<?xml version="1.0" encoding="UTF-8"?>
<svg id="Layer_1" xmlns="http://www.w3.org/2000/svg" version="1.1" viewBox="0 0 512 512">
  <!-- Generator: Adobe Illustrator 29.1.0, SVG Export Plug-In . SVG Version: 2.1.0 Build 142)  -->
  <defs>
    <style>
      .st0 {
        fill: #e6e6e7;
        opacity: .1;
      }

      .st0, .st1 {
        isolation: isolate;
      }

      .st2 {
        fill: #a32430;
      }

      .st3 {
        fill: #929496;
      }

      .st4 {
        fill: #6b8d2d;
      }

      .st5 {
        fill: #415416;
      }

      .st6 {
        fill: #fff;
      }

      .st7 {
        fill: #808183;
      }

      .st1 {
        opacity: .6;
      }

      .st1, .st8 {
        fill: #434244;
      }

      .st9 {
        fill: #272525;
      }

      .st10 {
        fill: #d0d1d3;
      }
    </style>
  </defs>
  <g id="Color">
    <g>
      <path class="st4" d="M492.47,309.65c.74-1.31,1.4-2.67,1.95-4.11,1.42-3.71,1.74-7.59,1.74-11.53,0-4.61.32-9.21,0-13.82,0-3.92.06-7.84,0-11.76-.07-4.43-1.08-8.64-3.04-12.61-1.97-4-5.06-7.52-7.48-11.27-6.49-10.04-16.37-17.36-26.82-22.89-21.99-11.64-47.12-17.29-71.57-20.87-4.95-.73-9.92-1.37-14.9-1.89-1.64-.17-3.28-.33-4.92-.48-.14-.01-.28-.02-.43-.04-.02-.14-.04-.28-.07-.42-.16-.89-.37-1.77-.6-2.64-.58-2.22-1.33-4.39-2.17-6.53-2-5.07-4.42-9.96-7.22-14.65-6.86-11.5-15.67-21.99-25.84-30.7-12.42-10.65-26.88-18.96-42.91-22.65-9.29-2.14-18.66-2.56-28.13-2.56h-51.74c-8.36,0-15.04,1.31-23.6,2.99-13.34,2.62-26.52,6.1-39.33,10.63-39.76,14.09-75.28,38.6-99.11,73.76-15.65,23.08-25.85,49.93-30.15,77.45-1.19,7.65-2.05,15.39-2.2,23.13-.02,1.09-.07,2.21-.02,3.31h-6.96c-4.29,0-7.01,4.59-4.95,8.36l6.43,11.76c.99,1.81,2.89,2.94,4.95,2.94h33.65c4.1,0,7.7-2.72,8.81-6.66l3.94-13.92c14.5-24.67,55.01-28.17,76.48-9.71,5.58,4.8,9.74,10.76,11.94,17.66l1.04,6.94c.48,3.24,3.26,5.64,6.54,5.64h165.59c3.16,0,5.88-2.24,6.49-5.34l1.33-6.77c9.47-32.12,56.41-38.52,80.11-18.13,4.15,3.57,7.51,7.77,9.87,12.53l3.34,12.08c.93,3.36,3.99,5.69,7.47,5.69h61.7c2.01,0,3.87-1.13,4.84-2.94l6.28-11.76c2.77-6.23,1.39-7.84-10.34-8.24Z"/>
      <path class="st5" d="M327.47,193.84c-1.61-5.19-4.04-10.26-7.04-14.8-8.64-13.07-21.89-21.85-36.44-27.4-15.85-6.04-32.74-7.7-49.59-7.7-8.94,0-25.18-1.59-25.25,11.21-.05,8.79.09,17.59.13,26.38.02,4.53.04,9.06.07,13.59.02,3.51-.14,6.75,2.55,9.56,3.01,3.15,7.51,4.2,11.74,4.34h74.99c5.28,0,10.83.45,16.07-.3,7.47-1.07,15.37-6.5,12.77-14.87Z"/>
      <path class="st5" d="M192.72,153.29c-3.2-6.7-10.64-5.86-16.73-4.68-6.64,1.28-13.08,3.38-19.3,6-12.27,5.15-23.5,12.46-33.48,21.21-4.67,4.1-9.05,8.54-13.03,13.29-1.95,2.32-3.97,4.61-3.99,7.81-.02,2.97,1.55,5.64,3.9,7.37,3.78,2.78,8.89,2.14,13.34,2.14h58.71c.19.01.39.01.6,0,.34,0,.66-.03.96-.09,5.11-.64,9.25-3.92,9.55-9.39.1-1.78.03-3.59.05-5.37.07-7.51.13-15.02.2-22.53.03-3.08.05-6.16.08-9.23.02-2.25.16-4.42-.85-6.53Z"/>
      <g>
        <path class="st8" d="M50.9,322.14s54.85-45.26,103.02.04c0,0-2.48-42.44-51.95-42.44-49.35,0-51.07,42.4-51.07,42.4Z"/>
        <g>
          <path class="st3" d="M141.56,330.02c-3.48-18.39-20.23-31.52-38.67-31.74-16.52.19-31.26,10.44-37.05,25.96-5.71,15.3-.84,33.43,11.75,43.8,12.8,10.54,31.23,12.23,45.54,3.62,14.26-8.58,21.51-25.36,18.43-41.64Z"/>
          <path class="st10" d="M128.61,331.9c-2.2-11.65-12.81-19.96-24.49-20.1-10.46.12-19.79,6.61-23.46,16.44-3.62,9.69-.53,21.17,7.44,27.74,8.1,6.68,19.78,7.74,28.84,2.29,9.03-5.43,13.62-16.06,11.67-26.37Z"/>
          <path class="st3" d="M120.78,333.44c-1.49-7.85-8.64-13.46-16.52-13.56-7.06.08-13.35,4.46-15.83,11.09-2.44,6.53-.36,14.28,5.02,18.71,5.47,4.5,13.34,5.22,19.45,1.55,6.09-3.66,9.19-10.83,7.87-17.79Z"/>
          <path class="st6" d="M97.16,337.84c-.56-4.35,1.75-8.21,6.33-8.62.87-.08.88-1.45,0-1.37-5.26.47-8.36,4.81-7.7,9.99.11.86,1.48.87,1.37,0h0Z"/>
          <path class="st6" d="M106.04,329.32c.96,0,.96-1.5,0-1.5s-.96,1.5,0,1.5h0Z"/>
          <path class="st6" d="M131.67,338.45c.96,0,.96-1.5,0-1.5s-.96,1.5,0,1.5h0Z"/>
          <path class="st6" d="M130.91,340.47c-1.68,13.45-12.8,23.77-26.03,25.32-.94.11-.95,1.61,0,1.5,14.26-1.67,25.74-12.53,27.52-26.81.12-.95-1.38-.94-1.5,0Z"/>
        </g>
        <path class="st1" d="M48.72,331.28s56.38-45.26,105.9.04c0,0-.83-51.68-51.69-51.68s-54.21,51.64-54.21,51.64Z"/>
      </g>
      <g>
        <path class="st8" d="M322.4,322.14s54.85-45.26,103.02.04c0,0-2.48-42.44-51.95-42.44-49.35,0-51.07,42.4-51.07,42.4Z"/>
        <g>
          <path class="st3" d="M413.05,330.02c-3.48-18.39-20.23-31.52-38.67-31.74-16.52.19-31.26,10.44-37.05,25.96-5.71,15.3-.84,33.43,11.75,43.8,12.8,10.54,31.23,12.23,45.54,3.62,14.26-8.58,21.51-25.36,18.43-41.64Z"/>
          <path class="st10" d="M400.1,331.9c-2.2-11.65-12.81-19.96-24.49-20.1-10.46.12-19.79,6.61-23.46,16.44-3.62,9.69-.53,21.17,7.44,27.74,8.1,6.68,19.78,7.74,28.84,2.29,9.03-5.43,13.62-16.06,11.67-26.37Z"/>
          <path class="st3" d="M392.27,333.44c-1.49-7.85-8.64-13.46-16.52-13.56-7.06.08-13.35,4.46-15.83,11.09-2.44,6.53-.36,14.28,5.02,18.71,5.47,4.5,13.34,5.22,19.45,1.55,6.09-3.66,9.19-10.83,7.87-17.79Z"/>
          <path class="st6" d="M368.65,337.84c-.56-4.35,1.75-8.21,6.33-8.62.87-.08.88-1.45,0-1.37-5.26.47-8.36,4.81-7.7,9.99.11.86,1.48.87,1.37,0h0Z"/>
          <path class="st6" d="M377.53,329.32c.96,0,.96-1.5,0-1.5s-.96,1.5,0,1.5h0Z"/>
          <path class="st6" d="M403.16,338.45c.96,0,.96-1.5,0-1.5s-.96,1.5,0,1.5h0Z"/>
          <path class="st6" d="M402.4,340.47c-1.68,13.45-12.81,23.77-26.03,25.32-.94.11-.95,1.61,0,1.5,14.26-1.67,25.74-12.53,27.52-26.81.12-.95-1.38-.94-1.5,0Z"/>
        </g>
        <path class="st1" d="M320.21,331.28s56.38-45.26,105.9.04c0,0-.83-51.68-51.69-51.68s-54.21,51.64-54.21,51.64Z"/>
      </g>
      <path class="st2" d="M507.68,257.16c-2.12-8.26-12.34-11.78-19.95-12.76-2.36-.22-4.68-.24-7.05-.03-1.05.09-2.1,1.26-1.34,2.29,2.64,3.59,5.18,7.29,7.65,10.99,2.58,3.88,5.66,7.14,4.39,12.14-.31,1.21.76,2.06,1.91,1.87,7.13-1.15,16.58-5.94,14.38-14.5Z"/>
      <path class="st10" d="M329.65,191.64c-1.61-5.19-4.04-10.26-7.04-14.8-8.64-13.07-21.89-21.85-36.44-27.4-15.85-6.04-32.74-7.7-49.59-7.7-8.94,0-25.18-1.59-25.25,11.21-.05,8.79.09,17.59.13,26.38.02,4.53.04,9.06.07,13.59.02,3.51-.14,6.75,2.54,9.56,3.02,3.15,7.51,4.2,11.74,4.34h74.99c5.28,0,10.83.45,16.07-.3,7.47-1.07,15.37-6.5,12.78-14.87Z"/>
      <path class="st10" d="M194.91,151.08c-3.2-6.7-10.64-5.86-16.73-4.68-6.64,1.28-13.08,3.38-19.3,6-12.27,5.15-23.5,12.46-33.48,21.21-4.67,4.1-9.05,8.54-13.03,13.29-1.95,2.32-3.97,4.61-3.99,7.81-.02,2.97,1.55,5.64,3.9,7.37,3.78,2.78,8.89,2.14,13.34,2.14h58.71c.19.01.39.01.6,0,.34,0,.66-.03.96-.09,5.11-.64,9.25-3.92,9.55-9.39.1-1.78.03-3.59.05-5.37.07-7.51.13-15.02.2-22.53.03-3.08.05-6.16.08-9.23.02-2.25.16-4.42-.85-6.53Z"/>
      <path class="st5" d="M487.15,301.8c-.02-.18-.03-.37-.03-.56-.02-.25-.01-.48,0-.71.02-3.52.13-7.06.02-10.58-.02,1.25-.1,2.49-.34,3.7-.78,3.9-2.79,7.32-5.51,10.12-3.3,0-7.02.01-11.2.01h-27.57c-12.42-30.73-29-51.59-66.86-51.59s-68.48,19.43-85.85,48.4c-.05,1.26-.07,2.33-.07,3.19h-120.2c-9.92-31.39-32.72-51.59-70.72-51.59-29.38,0-55.78,12.57-74.03,32.55-1.58,5.63-2.9,11.33-3.96,17.07-.3,1.6-.57,3.2-.82,4.8-.13.81-.25,1.62-.37,2.43-.05.34-.1.68-.14,1.01,0,.03,0,.05-.01.08-.32,2.56-.62,5.13-.84,7.7-.04.41-.07.82-.1,1.23,18.16-24.31,47.35-40.09,80.27-40.09,38,0,60.81,20.19,70.72,51.59h120.2c0-.86.03-1.93.07-3.19,17.37-28.97,49.31-48.4,85.85-48.4s54.44,20.86,66.86,51.59h27.57c4.18,0,7.9-.01,11.2-.01,2.72-2.8,4.73-6.23,5.51-10.12.5-2.51.32-5.15.32-7.69,0-3.66.24-7.28.03-10.94Z"/>
      <path class="st2" d="M22.47,278.1c0-.84-.71-1.55-1.55-1.55h-10.92c-4.45,0-8.83,1.49-9.68,6.52-.87,5.18,2.3,9.92,7.71,10.16,3.34.15,6.71,0,10.05,0,.77,0,1.65-.71,1.55-1.55-.16-1.47-.1-2.4.28-3.9,1.09-3.22,2.57-6.21,2.56-9.67Z"/>
      <path class="st10" d="M451.72,240.84c-1.4,3.94-9.85,4.52-18.88,1.3-9.02-3.22-15.2-9.01-13.8-12.95s9.85-4.52,18.88-1.3c9.02,3.22,15.2,9.02,13.8,12.95Z"/>
      <g>
        <path class="st5" d="M338.26,186.31c-11.55-27.5-40.26-42.24-67.86-48.87-4.75-1.14-8.71-1.79-13.46-1.81-5.87-.02-11.74-.04-17.6-.06-12.11-.04-24.21-.08-36.32-.12-.75,0-1.49,0-2.24,0-10.69.33-21.56,2.71-31.79,5.61-22.75,6.44-44.24,17.68-61.69,33.73-5.34,4.91-10.28,10.26-14.75,15.97-4.3,5.5-10.01,11.79-10.23,19.09-.24,7.83,0,15.69,0,23.52,0,4.23.61,8.17,3.44,11.55,4.05,4.84,9.45,5.09,15.27,5.3,11.15.39,22.32,1.92,33.01,5.18,12.34,3.75,24.15,10.03,32.63,19.94,2.25,2.62,4.21,5.48,5.88,8.49,1.68,3.04,2.94,6.2,5.14,8.92,4.34,5.38,10.81,8.6,17.69,9,1.8.1,3.6.12,5.4.17h29.16c9.99,0,20.21.65,30.18-.11,10.36-.79,20.23-5.67,26.99-13.6,7.03-8.25,14.03-16.1,23.07-22.26,8.75-5.97,19.81-8.36,26.38-17.14,4.37-5.84,5.71-12.53,5.71-19.66,0-14.61,1.77-29.09-4-42.83ZM185.04,295.24c-6.35-4.13-8.29-11.16-12.34-17.12-6.79-9.98-16.71-17.24-27.71-22.02-10.31-4.47-21.37-6.93-32.51-8.17-4.69-.52-9.41-.82-14.13-.9-6.99-.13-12.67-4.13-12.93-11.58-.26-7.55,0-15.15,0-22.71,0-.96-.04-1.93,0-2.89.18-4.32,2.55-7.5,4.93-10.93,4.17-6.02,8.85-11.68,13.97-16.92,16.65-17.06,37.78-29.24,60.43-36.43,11.02-3.5,22.84-6.38,34.48-6.95v74.41c-1.43.53-2.45,1.9-2.45,3.5v16.48c0,1.6,1.03,2.97,2.45,3.5v17.1c-1.43.53-2.45,1.9-2.45,3.5v16.48c0,1.6,1.03,2.97,2.45,3.5v21.65c-5.02-.19-9.78-.64-14.19-3.5ZM339.12,233.04c-.26,5.27-2.24,10.44-5.54,14.56-3.47,4.32-7.88,6.68-12.85,8.87-10.06,4.45-19,11.23-26.68,19.05-7.3,7.44-12.64,16.17-22.63,20.4-10.08,4.27-22.27,2.87-32.99,2.87h-36.09v-21.5c1.85-.22,3.29-1.8,3.29-3.7v-16.48c0-1.9-1.44-3.48-3.29-3.7v-16.69c1.85-.22,3.29-1.8,3.29-3.7v-16.48c0-1.9-1.44-3.48-3.29-3.7v-74.27c19.42.07,38.84.13,58.27.2,2.06,0,4,.56,6.02,1,5.3,1.17,10.54,2.59,15.69,4.3,8.48,2.82,16.7,6.46,24.3,11.19,10.54,6.57,19.79,15.35,25.88,26.25,3.2,5.73,5.63,12.1,6.5,18.64.74,5.54.17,12.9.17,18.88,0,4.65.19,9.35-.04,14Z"/>
        <path class="st5" d="M323.3,226.34h-16.48c-2.05,0-3.73,1.68-3.73,3.73h0c0,2.05,1.68,3.73,3.73,3.73h16.48c2.05,0,3.73-1.68,3.73-3.73h0c0-2.05-1.68-3.73-3.73-3.73Z"/>
        <path class="st5" d="M118.38,226.34h-16.48c-2.05,0-3.73,1.68-3.73,3.73h0c0,2.05,1.68,3.73,3.73,3.73h16.48c2.05,0,3.73-1.68,3.73-3.73h0c0-2.05-1.68-3.73-3.73-3.73Z"/>
      </g>
      <path class="st7" d="M321.19,189.77c-1.38-4.15-6.18-10.54-8.75-14.17-7.4-10.45-18.76-17.48-31.22-21.91-13.58-4.83-28.06-6.15-42.5-6.15-7.66,0-21.57-1.27-21.64,8.96-.04,7.03.07,14.07.11,21.1.02,3.62.04,7.25.06,10.87.01,2.81-.12,5.4,2.18,7.64,2.58,2.52,6.44,3.36,10.06,3.47h64.26c4.52,0,19.11.36,23.61-.24,6.4-.85,6.06-2.87,3.83-9.57ZM310.7,190.47c-1.09,1.58-4.62,1.75-6.35,1.78-11.67.21-23.36,0-35.03,0h-39.82c-1.57-.05-2.62-.56-4.05-.96-.15-.04-.24-.12-.3-.17-.07-.54.05-1.22.05-1.71-.02-3.07-.03-6.15-.05-9.23-.04-7.12-.08-14.24-.11-21.36-.01-1.89-.62-2.78,1.37-3.5,3.1-1.12,7.58-.45,10.81-.45,12.46,0,24.7.75,36.68,4.21,11.62,3.36,23.13,9.21,30.4,18.49,2.34,2.98,4.39,6.41,5.72,9.68.46,1.13,1.31,2.32.69,3.22Z"/>
      <path class="st7" d="M189.57,157.04c-2.68-5.38-8.9-4.7-14-3.76-5.56,1.03-10.94,2.71-16.15,4.81-10.26,4.14-19.66,10-28.01,17.02-3.91,3.29-7.57,6.85-10.9,10.67-1.63,1.86-5,4.74-5.02,7.31-.02,2.38-1.29,3.23.68,4.62,3.16,2.23,11.71,1.97,15.43,1.97h49.11c.16,0,.33.01.5,0,.29,0,.55-.03.81-.07,4.28-.52,7.74-3.15,7.99-7.53.08-1.43.03-2.88.04-4.31.06-6.02.11-12.05.16-18.08.02-2.47.04-4.94.07-7.41.02-1.8.14-3.55-.71-5.24ZM124.78,191.99s.07.03.09.04c-.03-.02-.06-.03-.09-.04ZM124.93,192.14s.01-.02.02-.03c0,.02,0,.03-.02.03ZM128.53,192.36c-.81,0-1.68.09-2.49,0-.14-.02-.29,0-.43-.02-.28-.03-.43-.15-.64-.26.27-.4.66-.78.97-1.13.73-.83,1.47-1.66,2.23-2.47,6.34-6.76,13.66-12.67,21.73-17.47,8.28-4.91,17.31-8.64,26.88-10.53,1.33-.26,4.51-1.42,5.73-.47.26.2,0-.11.1.47.25,1.39-.03,3.06-.04,4.47-.05,6-.11,11.99-.16,17.99-.02,2.41-.04,4.81-.07,7.22-.01,1.59.43,2.11-1.14,2.2-17.56,0-35.12,0-52.68,0Z"/>
      <g>
        <path class="st6" d="M278.76,152.99c-.83-.06-1.62-.25-2.37-.6l-30.81,53.9,18.9.16,24.55-46.47c-3.56-2.11-7.04-4.29-10.28-7Z"/>
        <polygon class="st6" points="234.91 144.3 217.07 191.72 243.97 145.12 234.91 144.3"/>
        <path class="st6" d="M285.53,204.6c1.06,0,2.01.17,2.86.46.28-.02.57-.04.87-.04.91,0,1.73.13,2.48.34l17.01-38.49c-.81-.56-1.6-1.14-2.35-1.76l-23.53,39.88c.8-.25,1.69-.39,2.67-.39Z"/>
        <path class="st6" d="M265.27,148.05l-33.94,53.92,7.51-.18s31.24-53,31.24-53.55l-4.8-.19Z"/>
      </g>
      <g>
        <path class="st6" d="M168.59,150.09c-.83-.06-1.62-.25-2.37-.6l-30.81,53.9,18.9.16,28.41-51.16c-3.55-2.11-10.9.41-14.14-2.3Z"/>
        <path class="st6" d="M187.56,172.49l-15.61,31.07,5.69.65,11.44-30.4c-.52-.42-1.03-.86-1.51-1.32Z"/>
        <path class="st6" d="M148.23,159.03l-27.07,40.03,5.99-.14s24.91-39.35,24.91-39.76l-3.83-.14Z"/>
      </g>
      <g>
        <polygon class="st0" points="78.01 174.02 29.01 294.68 34.26 298.63 86.4 173.71 78.01 174.02"/>
        <polygon class="st0" points="110.78 153.84 45.77 298.01 88.59 283.48 153.85 135.44 110.78 153.84"/>
        <polygon class="st0" points="159.8 307.45 167.88 308.38 227.47 201.19 214.86 199.8 159.8 307.45"/>
        <polygon class="st0" points="274.28 317.26 282.36 318.2 321.92 203.34 309.31 201.95 274.28 317.26"/>
        <polygon class="st0" points="422.23 290.64 430.32 291.58 465.61 227.83 453 226.44 422.23 290.64"/>
        <polygon class="st0" points="254.47 202.04 209.19 315.55 247.07 317.73 290.65 200.29 254.47 202.04"/>
      </g>
      <path class="st10" d="M461.66,238.09c-2.38,0-2.23,3.7.16,3.7,2.38,0,2.23-3.7-.16-3.7Z"/>
      <path class="st10" d="M481.33,260.95c-1.04-3.42-2.75-6.6-4.38-9.76-1.75-3.39-5.16-5.14-7.43-8.08-1.44-1.87-4.6.07-3.14,1.96,1.04,1.35,1.98,2.55,3.33,3.6,1.47,1.13,3,2.38,3.85,4.06,1.53,3.03,3.24,6.07,4.23,9.32.69,2.28,4.23,1.18,3.54-1.1Z"/>
      <path class="st10" d="M51.73,222.06c-3.13,5.22-6.53,10.73-8.46,16.55-.44,1.32-.45,2.82-1.04,4.09-.52,1.13-1.34,1.93-1.74,3.14-.53,1.58-.77,3.16-1.42,4.72-.5,1.21-.82,2.23-.83,3.56-.01,2.38,3.69,2.23,3.7-.16,0-1.33.91-2.51,1.31-3.74.54-1.63.61-3.12,1.51-4.64,1.31-2.22,1.5-4.55,2.49-6.91,2.17-5.19,4.86-10.05,7.74-14.85,1.23-2.05-2.03-3.8-3.26-1.77Z"/>
      <path class="st10" d="M56.18,215.29c-2.38,0-2.23,3.7.16,3.7s2.23-3.7-.16-3.7Z"/>
      <path class="st10" d="M325.05,152.89c-2.38,0-2.23,3.7.16,3.7,2.38,0,2.23-3.7-.16-3.7Z"/>
      <path class="st10" d="M342.11,176.01c-.2-1.63-.71-2.94-1.46-4.39-.81-1.56-1.51-3.72-2.74-5.02-1.33-1.4-2.79-2.33-3.92-4.01-.9-1.34-1.5-2.63-2.82-3.61-1.89-1.41-4.45,1.28-2.54,2.69,2.07,1.54,3.03,4.42,5,6.19,2.01,1.81,4.43,5.45,4.79,8.3.29,2.35,3.99,2.22,3.7-.16Z"/>
    </g>
  </g>
  <g id="Stroke">
    <g>
      <path class="st9" d="M322.38,176.43c-8.7-13.29-22.04-22.23-36.69-27.87-15.96-6.15-32.97-7.83-49.94-7.83-9,0-25.35-1.61-25.42,11.4-.05,8.94.09,17.88.13,26.83.02,4.61.05,9.22.07,13.83.02,3.57-.14,6.87,2.56,9.72,3.04,3.2,7.57,4.27,11.82,4.41h75.51c5.31,0,10.9.45,16.18-.31,7.52-1.08,15.48-6.61,12.86-15.13-1.62-5.28-4.07-10.43-7.09-15.05ZM320.34,195.33c-1.29,2.01-5.43,2.22-7.47,2.26-13.71.26-27.45,0-41.16,0h-46.79c-1.85-.06-3.08-.71-4.75-1.22-.17-.05-.29-.15-.35-.22-.08-.69.06-1.56.06-2.18-.02-3.91-.04-7.82-.06-11.73-.04-9.05-.09-18.11-.13-27.16-.01-2.4-.73-3.53,1.61-4.45,3.64-1.42,8.9-.57,12.7-.57,14.64,0,29.03.95,43.1,5.36,13.65,4.27,27.18,11.71,35.72,23.51,2.75,3.79,5.16,8.15,6.72,12.3.54,1.44,1.53,2.96.81,4.1Z"/>
      <path class="st9" d="M124.73,173.55c-4.75,4.19-9.2,8.73-13.25,13.6-1.98,2.38-4.04,4.72-4.06,8-.02,3.04,1.58,5.77,3.97,7.54,3.84,2.85,9.05,2.19,13.57,2.19h59.71c.2.01.4.01.61,0,.35,0,.67-.03.98-.09,5.2-.66,9.41-4.02,9.72-9.61.1-1.82.03-3.67.05-5.5.07-7.68.13-15.37.2-23.05.03-3.15.06-6.3.08-9.45.02-2.3.16-4.52-.86-6.68-3.26-6.85-10.82-6-17.02-4.79-6.76,1.31-13.3,3.46-19.63,6.14-12.47,5.27-23.9,12.75-34.05,21.7ZM179.9,154.91c1.62-.34,5.48-1.81,6.97-.6.32.26,0-.14.12.6.31,1.77-.03,3.91-.05,5.7-.07,7.65-.13,15.3-.2,22.94-.03,3.07-.05,6.14-.08,9.21-.02,2.03.52,2.69-1.39,2.8h-64.05c-.99,0-2.04.11-3.02,0-.17-.02-.35,0-.52-.03-.33-.04-.53-.2-.78-.33.33-.51.8-.99,1.18-1.44.89-1.07,1.79-2.11,2.72-3.15,7.71-8.63,16.6-16.16,26.43-22.28,10.07-6.27,21.04-11.02,32.68-13.42Z"/>
      <path class="st9" d="M117.88,297.47c-16.63-6.19-36.39-.76-47.55,13.01-11.26,13.9-13.05,33.76-3.76,49.21,9.32,15.51,27.58,23.41,45.27,19.99,19.88-3.84,34.08-21.96,34.3-41.95-.2-17.99-11.39-33.98-28.26-40.26ZM115.01,369.14c-13.41,4.85-28.41.79-37.56-10.12-9.01-10.74-9.99-26.6-2.82-38.54,7.14-11.89,21.5-18.42,35.15-15.62,15.66,3.2,26.86,16.94,27.04,32.88-.16,13.78-8.69,26.66-21.81,31.41Z"/>
      <path class="st9" d="M111.07,318.13c-7.58-2.78-16.48-.39-21.66,5.79-5.33,6.36-6.21,15.61-1.93,22.78,4.19,7.03,12.37,10.67,20.4,9.32,9.26-1.56,15.72-9.69,16.19-18.83.02-.17.03-.35.02-.54,0-.23-.01-.45-.04-.66-.46-8.01-5.34-15.06-12.99-17.87ZM104.4,349.35c-6.91.02-12.71-5.78-12.69-12.69.02-6.93,5.75-12.69,12.69-12.69s12.51,5.77,12.69,12.69c-.18,6.94-5.63,12.68-12.69,12.69Z"/>
      <path class="st9" d="M387.51,297.47c-16.63-6.19-36.39-.76-47.55,13.01-11.26,13.9-13.05,33.76-3.76,49.21,9.32,15.51,27.58,23.41,45.27,19.99,19.88-3.84,34.08-21.96,34.3-41.95-.2-17.99-11.39-33.98-28.26-40.26ZM384.64,369.14c-13.41,4.85-28.41.79-37.56-10.12-9.01-10.74-9.99-26.6-2.82-38.54,7.14-11.89,21.5-18.42,35.15-15.62,15.66,3.2,26.86,16.94,27.04,32.88-.16,13.78-8.69,26.66-21.81,31.41Z"/>
      <path class="st9" d="M380.7,318.13c-7.58-2.78-16.48-.39-21.66,5.79-5.33,6.36-6.21,15.61-1.93,22.78,4.19,7.03,12.37,10.67,20.4,9.32,9.26-1.56,15.72-9.69,16.19-18.83.02-.17.03-.35.02-.54,0-.23-.01-.45-.04-.66-.46-8.01-5.34-15.06-12.99-17.87ZM374.04,349.35c-6.91.02-12.71-5.78-12.69-12.69.02-6.93,5.76-12.69,12.69-12.69s12.51,5.77,12.69,12.69c-.18,6.94-5.63,12.68-12.69,12.69Z"/>
      <path class="st9" d="M272.53,135.57c-4.75-1.14-8.71-1.79-13.46-1.81-5.87-.02-11.74-.04-17.6-.06-12.11-.04-24.21-.08-36.32-.12-.75,0-1.49,0-2.24,0-10.69.33-21.56,2.71-31.79,5.61-22.75,6.44-44.24,17.68-61.69,33.73-5.34,4.91-10.28,10.26-14.75,15.97-4.3,5.5-10.01,11.79-10.23,19.09-.24,7.83,0,15.69,0,23.52,0,4.23.61,8.17,3.44,11.55,4.05,4.84,9.45,5.09,15.27,5.3,11.15.39,22.32,1.92,33.01,5.17,12.34,3.75,24.15,10.03,32.63,19.94,2.25,2.62,4.21,5.48,5.88,8.49,1.68,3.04,2.94,6.2,5.14,8.92,4.34,5.38,10.81,8.6,17.69,9,1.8.1,3.6.12,5.4.17h29.16c9.99,0,20.21.65,30.18-.11,10.36-.79,20.23-5.67,26.99-13.6,7.03-8.25,14.03-16.1,23.06-22.26,8.75-5.97,19.81-8.36,26.38-17.14,4.37-5.84,5.71-12.53,5.71-19.66,0-14.61,1.77-29.09-4-42.83-11.54-27.5-40.25-42.24-67.86-48.87ZM201.36,190.49v20.68c-1.43.53-2.45,1.9-2.45,3.5v16.48c0,1.6,1.03,2.97,2.45,3.5v17.1c-1.43.53-2.45,1.9-2.45,3.5v16.48c0,1.6,1.03,2.97,2.45,3.5v21.65c-5.02-.18-9.77-.63-14.19-3.5-6.35-4.13-8.29-11.16-12.34-17.12-6.79-9.98-16.72-17.24-27.71-22.02-10.31-4.47-21.37-6.93-32.51-8.17-4.69-.52-9.41-.82-14.13-.9-6.99-.13-12.67-4.13-12.93-11.58-.26-7.55,0-15.15,0-22.71,0-.96-.04-1.93,0-2.89.18-4.32,2.55-7.5,4.93-10.93,4.17-6.02,8.85-11.68,13.97-16.92,16.65-17.06,37.78-29.24,60.43-36.43,11.02-3.5,22.84-6.38,34.48-6.95,0,17.91,0,35.82,0,53.73ZM341.28,217.17c0,4.65.2,9.35-.04,14-.26,5.27-2.24,10.44-5.54,14.56-3.47,4.32-7.88,6.68-12.85,8.87-10.06,4.45-19,11.23-26.68,19.05-7.3,7.44-12.64,16.17-22.63,20.4-10.08,4.27-22.27,2.87-32.99,2.87h-36.09v-21.5c1.85-.22,3.29-1.8,3.29-3.7v-16.48c0-1.9-1.44-3.48-3.29-3.7v-16.69c1.85-.22,3.29-1.8,3.29-3.7v-16.48c0-1.9-1.44-3.48-3.29-3.7v-74.27c19.42.07,38.84.13,58.27.2,2.06,0,4,.56,6.02,1,5.3,1.17,10.54,2.59,15.69,4.3,8.48,2.82,16.7,6.46,24.3,11.19,10.54,6.57,19.79,15.35,25.88,26.25,3.2,5.73,5.63,12.1,6.5,18.64.74,5.54.17,12.9.17,18.88Z"/>
      <path class="st9" d="M505.78,277.34h-9.38c0-1.99.02-3.97.02-5.96,6.61-1.8,13.78-6.52,11.84-14.26-2.12-8.44-12.34-12.04-19.95-13.04-.89-.09-1.76-.13-2.64-.16-6.49-9.89-16.27-17.12-26.62-22.59-21.99-11.64-47.12-17.29-71.57-20.87-4.95-.73-9.92-1.37-14.9-1.89-1.64-.17-3.28-.33-4.92-.48-.14-.01-.28-.02-.43-.04-.02-.14-.04-.28-.07-.42-.16-.89-.37-1.77-.6-2.64-.58-2.22-1.33-4.39-2.17-6.53-2-5.07-4.42-9.96-7.22-14.65-6.86-11.5-15.67-21.99-25.84-30.7-12.42-10.65-26.88-18.96-42.91-22.65-9.29-2.14-18.66-2.56-28.13-2.56h-51.74c-8.36,0-15.04,1.31-23.6,2.99-13.34,2.62-26.51,6.1-39.33,10.63-39.76,14.08-75.28,38.6-99.11,73.76-14.48,21.36-24.29,45.96-29.08,71.32h-7.61c-4.45,0-8.83,1.49-9.68,6.52-.87,5.18,2.3,9.92,7.71,10.16,2.36.1,4.75.06,7.12.03-.44,4.18-.73,8.37-.81,12.56-.02,1.09-.07,2.21-.02,3.31h-6.96c-4.29,0-7.01,4.59-4.95,8.36l6.43,11.76c.99,1.81,2.89,2.94,4.95,2.94h33.65c4.1,0,7.7-2.72,8.81-6.66l3.94-13.91c14.5-24.67,55.01-28.17,76.48-9.71,5.59,4.8,9.74,10.76,11.94,17.66l1.03,6.94c.48,3.24,3.26,5.64,6.54,5.64h165.59c3.16,0,5.88-2.24,6.49-5.34l1.33-6.77c9.47-32.12,56.41-38.52,80.11-18.13,4.15,3.57,7.51,7.77,9.87,12.53l3.34,12.08c.93,3.36,3.99,5.69,7.47,5.69h61.7c2.02,0,3.87-1.13,4.84-2.94l6.28-11.76c2.77-6.23,1.4-7.84-10.33-8.24.74-1.31,1.4-2.67,1.95-4.11,1.42-3.71,1.74-7.59,1.74-11.53,0-1.3.02-2.59.06-3.89h9.33c3.42,0,6.22-2.8,6.22-6.22s-2.8-6.22-6.22-6.22ZM16.36,282.74c-.39,2.47-.73,4.95-1.03,7.44h-5.59c-1.45,0-2.98.14-4.28-.64-2.37-1.42-3.06-5.14-1.68-7.5,1.78-3.05,6.01-2.32,8.99-2.32h4.11c-.17,1.01-.35,2.01-.51,3.02ZM473.44,289.77h13.64c0,.52-.01,1.05-.01,1.58,0,2.54.18,5.19-.31,7.69-.78,3.9-2.76,7.32-5.45,10.12-3.26,0-6.94.01-11.07.01h-27.25c-12.27-30.73-28.66-51.59-66.09-51.59s-67.69,19.43-84.85,48.4c-.05,1.26-.07,2.33-.07,3.19h-118.81c-9.8-31.39-32.34-51.59-69.9-51.59-32.54,0-61.39,15.78-79.34,40.09.03-.41.06-.82.1-1.23.22-2.57.51-5.14.83-7.7,0-.03,0-.05.01-.08.05-.34.09-.68.14-1.01.12-.81.24-1.62.36-2.43.25-1.6.52-3.2.81-4.8,1.33-7.32,3.09-14.57,5.25-21.69,5.44-17.92,13.14-34.27,24.04-50.05,13.01-18.82,30.35-35.15,49.92-47.56,26.25-16.64,56.11-26.58,86.57-32.1,2.3-.42,4.6-.81,6.91-1.18,1.27-.2,3.33-.2,4.89-.63h55.4c13.27,0,26.17,1,38.72,5.87,17.26,6.7,32.43,19.65,43.65,34.2,5.03,6.52,9.43,13.63,12.83,21.14,1.21,2.68,2.25,5.48,3.04,8.33.34,1.24.62,2.49.86,3.75.05.27.09.54.13.8-.18-1.14.04.51.1.77.34,1.44,1.08,2.7,2.2,3.66.96.83,2,1.21,3,1.27,2.1.4,4.37.41,6.47.61,3.65.35,7.29.78,10.93,1.26,3.79.5,9.54,1.39,14.07,2.19,5.75,1.02,11.47,2.18,17.14,3.52,12,2.83,23.99,6.34,35.24,11.44,10.19,4.61,20.25,10.47,27.55,19.12,2.24,2.65,3.92,5.83,5.98,8.67,2.96,4.09,5.72,7.89,5.99,13.13.18,3.44.09,6.92.04,10.38h-13.64c-3.42,0-6.22,2.8-6.22,6.22s2.79,6.22,6.21,6.22ZM496.39,268.08c-.07-4.42-1.08-8.64-3.04-12.61-1.45-2.94-3.5-5.63-5.45-8.33.14.01.27.02.41.03,6.08.8,14.62,3.61,16.77,10.14,1.93,5.86-3.6,9.28-8.68,10.83v-.06Z"/>
      <path class="st9" d="M439.22,226.76c-5.11-1.98-18.87-5.73-21.74,1.82-2.56,6.76,8.14,12.34,12.77,14.26,5.32,2.2,19.26,6.36,22.66-1.22.06-.11.12-.24.16-.38,2-7.21-8.74-12.5-13.86-14.48ZM450.1,240.29c-2.58,4.88-13.3,1.66-16.99.34-3.38-1.21-6.78-2.9-9.52-5.27-1.37-1.18-3.89-3.48-3.23-5.56.77-2.42,4.89-2.48,6.9-2.45,3.61.06,7.24.94,10.61,2.21,3.41,1.29,13.46,5.63,12.22,10.72Z"/>
      <path class="st9" d="M325.43,224.47h-16.48c-2.05,0-3.73,1.68-3.73,3.73s1.68,3.73,3.73,3.73h16.48c2.05,0,3.73-1.68,3.73-3.73s-1.68-3.73-3.73-3.73Z"/>
      <path class="st9" d="M120.51,224.47h-16.48c-2.05,0-3.73,1.68-3.73,3.73s1.68,3.73,3.73,3.73h16.48c2.05,0,3.73-1.68,3.73-3.73s-1.68-3.73-3.73-3.73Z"/>
    </g>
  </g>
</svg>