<?xml version="1.0" encoding="UTF-8"?>
<svg id="Layer_1" xmlns="http://www.w3.org/2000/svg" version="1.1" viewBox="0 0 512 512">
  <!-- Generator: Adobe Illustrator 29.1.0, SVG Export Plug-In . SVG Version: 2.1.0 Build 142)  -->
  <defs>
    <style>
      .st0 {
        fill: #563817;
      }

      .st1 {
        fill: #a32430;
      }

      .st2 {
        fill: #929496;
      }

      .st3 {
        fill: #815620;
      }

      .st4 {
        fill: #fff;
      }

      .st5 {
        fill: #f1f1f2;
      }

      .st6 {
        fill: #808183;
      }

      .st7 {
        opacity: .6;
      }

      .st7, .st8 {
        isolation: isolate;
      }

      .st7, .st9 {
        fill: #434244;
      }

      .st10 {
        opacity: .73;
      }

      .st11 {
        fill: #563614;
      }

      .st8 {
        fill: #e3f6ff;
        opacity: .1;
      }

      .st12 {
        fill: #272525;
      }

      .st13 {
        fill: #d0d1d3;
      }
    </style>
  </defs>
  <g id="Color">
    <g>
      <path class="st3" d="M496.52,315.23c.22-4.82-.06-9.72-.06-14.44,0-8.67-.02-17.35-.02-26.02,0-.19-.01-.37-.03-.55-.35-6.4-5.23-12.81-10.06-16.63-4.22-3.34-8.6-5.03-13.8-6.15-10.1-2.19-20.44-3.37-30.73-4.31-16.01-1.46-32.09-2.18-48.16-2.53-10.14-.26-20.28-.35-30.41-.25-4.39-27.71-12.49-56.17-29.56-78.81-.18-.49-.46-.92-.81-1.28-3.14-5.56-8.22-9.9-14.05-12.48-3.6-1.59-7.3-2.55-11.21-3.02-2.35-.28-6.35-1.03-9.25-.33H82.71c-8.04,0-13.18,6.42-17.25,12.67-8.54,13.12-14.06,28.5-18.89,43.31-2.41,7.39-4.59,14.88-6.38,22.45-1.26,5.32-2.6,10.9-2.79,16.39-.01.41-.02.7,0,.75-.07.37-.14.74-.21,1.1-.24,1.31-.47,2.62-.71,3.94-.26,1.44.1,2.88.93,3.9-.51,2.82-1.02,5.63-1.52,8.45-.05,0-.11,0-.16.01-1.73.13-3.73,1.21-4.08,3.1-1.13,6.18-2.22,12.36-3.38,18.53-1.2,6.4-.87,12.91-.87,19.4s-.07,12.94,0,19.41c.13,11.74,6.11,22.58,15.97,28.96,8.94,5.79,18.81,5.49,28.97,5.49,1.7,0,3.77-1.3,4.08-3.1.24-1.46.55-2.9.91-4.33.8-.55,1.42-1.34,1.58-2.27.89-5.43,2.72-10.61,5.33-15.32,8.48-10.21,21.11-16.43,34.55-16.67,14.2-.25,27.85,6.11,36.78,17.17,4.99,6.18,8.05,13.62,9.34,21.42.3,1.8,2.36,3.1,4.08,3.1h162.87c1.69,0,3.78-1.3,4.08-3.1,2.79-16.8,14.52-31.03,30.84-36.31,16.43-5.32,34.86-1.01,47.04,11.28,6.79,6.85,11.02,15.55,12.6,25.04.3,1.8,2.36,3.1,4.08,3.1h27.56c5.06,0,10.08-.12,14.94-1.79,8.1-2.78,15.12-8.42,19.33-15.92,3.92-6.99,4.39-14.31,4.39-22.1,0-.44-.06-.85-.17-1.23Z"/>
      <path class="st11" d="M65.5,182.52h-5.13l-16.59,56.69h21.72c6.64,0,12.07-5.78,12.07-12.84v-31.01c0-7.06-5.43-12.84-12.07-12.84Z"/>
      <g>
        <path class="st11" d="M192.52,189c-.55-8.2-7.29-14.33-15.53-14.54-2.34-.06-4.68,0-7.01,0h-32.89c-8.16,0-16.33-.09-24.5,0-6.93.08-13.18,4.23-15.24,10.9-1.08,3.48-.67,7.52-.67,11.11,0,9.8-.08,19.61,0,29.41.06,7.03,4.33,13.43,11.39,15.36,2.74.75,5.7.55,8.51.55h60.46c.19,0,.36-.01.54-.03,8.36-.54,14.74-6.98,14.97-15.34.09-3.48,0-6.97,0-10.45,0-8.92.57-18.04-.03-26.95Z"/>
        <path class="st11" d="M320.87,225.4c-1.4-3.9-2.94-7.76-4.41-11.64-2.24-5.91-4.48-11.82-6.71-17.73-1.76-4.64-3.15-9.69-5.48-14.05-2.53-4.74-6.6-6.61-11.79-6.61h-66.94c-2.6,0-5.38-.25-7.95.22-8.05,1.48-11.48,9.67-11.5,16.95-.01,5.4,0,10.81,0,16.21v16.43c0,7.06,2.89,15.02,10.53,17.1,2.47.67,5.3.41,7.83.41h82.98c.2,0,.39-.01.57-.04,8.69-.63,16.01-8.51,12.86-17.25Z"/>
      </g>
      <path class="st11" d="M377.59,294.63c-14.98-3.75-33.18.65-46.55,11.05-6.2,4.82-10.87,10.62-13.82,16.76h-146.54c-.16.84-.46,1.65-.88,2.39,2.95,3.09,5.08,6.94,6.52,11.35,1.02,3.12,1.66,6.35,2.41,9.54.05.21.1.42.15.62,1.07-.18,2.19-.19,3.3,0,15.13,2.65,30.37,4.49,45.68,5.7,13.77,1.09,27.58,1.68,41.4,1.91,7.03.12,14.07.14,21.11.08,6.26-.05,11.79-.05,17.69-1.57,5.54-1.43,10.39-3.45,15.41-5.89,4.93-2.4,7.68-4.72,11.46-8.5,3.49-3.48,6.72-7.17,10.04-10.75-.91-.49-1.81-1-2.69-1.54,4.01-8.56,9.59-15.92,17.38-21.59,6.52-4.75,14.4-7.45,22.42-8.16-1.43-.55-2.93-1.03-4.49-1.42Z"/>
      <path class="st11" d="M127.18,294.63c-14.98-3.75-33.18.65-46.55,11.05-5.44,4.23-9.69,9.21-12.65,14.51-7.11-3.09-13.77-6.57-18.83-12.45-5.86-6.8-8.47-14.73-7.4-21.98-2.67,3.92-4.22,8.37-6.03,12.7-.08.2-.16.39-.25.59.2.85.26,1.74.11,2.63-1.39,8.54-.33,16.55,2.64,23.96,1.36.83,2.5,2.08,3.27,3.59.02.04.05.09.07.13.56,1.08.73,2.56.53,3.98.39.64.8,1.28,1.22,1.91,2.15,3.23,4.54,6.29,7.06,9.22,1.25.66,2.52,1.27,3.84,1.78.62.24,1.26.44,1.89.66-1.67-.57.08.02.51.1.7.14,1.4.19,2.1.3.13.02.23.04.32.05.03,0,.07-.02.13-.03,3.67-.61,5.57-.54,8.54-1.76.3-.12,1.62-.76,1.87-.86.21-.16,1.43-.98,1.68-1.18,1.27-.99,1.19-.91,2.38-2.53,1.81-2.44,2.22-5.72,2.71-9.3,1.12.07,2.26.09,3.38.07,2-3.42,3.74-7,5.77-10.4,3.12-5.22,6.84-9.44,11.87-12.85,9.16-6.21,20.21-9.46,30.61-12.92.53-.18,1.07-.27,1.61-.3-.78-.25-1.57-.47-2.39-.68Z"/>
      <path class="st11" d="M490.4,297.46c-.38,3.91-1.36,7.67-3.78,11.3-3.85,5.79-10.26,10.15-17.67,12.29-4.44,1.29-9.03,1.38-13.66,1.38h-22.2c-.09,0-4.48-.89-4.56-.84-.98.58,2.2,1.85,1.03,1.93-.27.02-.55.04-.82.06-.41.03-.67.51-.47.9.87,1.71,1.15,3.8.78,5.86-.62,3.46-1.65,6.91-2.99,10.2-.09.23-.05.5.11.68,3.04,3.35,5.89,6.87,8.28,10.83.12.19.32.3.53.27.24-.03.49-.04.74-.04,3.47,0,6.95-.06,10.42-.25,1.67-.09,3.34-.22,5.01-.38.84-.08,1.68-.17,2.51-.28.25-.03,1.47-.21,1.63-.23.01,0,.02,0,.04,0,2.97-.49,5.93-1.12,8.83-1.99,1.47-.44,2.93-.94,4.37-1.51.26-.1,1.17-.49,1.42-.59.01,0,.02,0,.04-.02.23-.12,1.12-.56,1.37-.69,1.34-.71,2.65-1.49,3.92-2.36.58-.4,1.14-.83,1.71-1.25,0,0,.21-.16.37-.29.21-.19.6-.53.67-.59,2.41-2.23,3.94-4.06,5.24-6.32,3.39-5.88,4.74-13.39,5.59-20.23.5-4.03.92-8.36,1.52-12.69,0-.03,0-.06,0-.09,0-1.69,0-3.38,0-5.07Z"/>
      <path class="st0" d="M353.67,231.96c-1.85,0-3.76.15-5.6,0-1.58-.13-2.03-1.25-2.77-3.04-1.24-3-2.12-6.23-3.2-9.3-2.95-8.42-5.9-16.85-8.84-25.27-.58-1.64-1.32-3.43-1.37-5.03-.03-.1-.06-.19-.08-.29-.05-.2-.1-.4-.16-.6-1.45-2.92-2.78-5.97-2.75-9.28-4.63,3.23-6.83,8.65-4.8,14.58,1.35,3.92,2.74,7.82,4.11,11.73,3.12,8.91,5.78,18.21,9.43,26.92,1.58,3.77,4.03,7.13,8.3,7.86,2.51.43,5.19.18,7.72.18,5.44,0,5.45-8.46,0-8.46Z"/>
      <g class="st10">
        <polygon class="st8" points="76.29 228 38.89 328.16 47.03 325.35 83.91 227.72 76.29 228"/>
        <polygon class="st8" points="108.25 233.08 65.43 339.77 113.18 304.34 141.23 234.21 108.25 233.08"/>
        <polygon class="st8" points="171.71 234.07 140.27 312.24 147.6 313.08 182.36 232.37 171.71 234.07"/>
      </g>
      <g class="st10">
        <polygon class="st8" points="261.27 239.36 220.43 341.2 225.19 344.78 268.88 239.08 261.27 239.36"/>
        <polygon class="st8" points="278.18 237.95 235.62 344.22 269.16 344.22 311.16 239.08 278.18 237.95"/>
        <polygon class="st8" points="295.38 343.94 302.71 344.78 356.62 239.21 348.06 231.96 295.38 343.94"/>
        <polygon class="st8" points="421.61 247.91 398.62 309.31 424.92 331.44 461.73 254.07 421.61 247.91"/>
      </g>
      <polygon class="st8" points="476.41 257.59 434.49 345.3 444.3 345.3 486.34 264.15 476.41 257.59"/>
      <g>
        <path class="st9" d="M73.83,343.36s52.12-46.51,97.9.04c0,0-2.35-43.61-49.37-43.61-46.9,0-48.53,43.57-48.53,43.57Z"/>
        <g>
          <path class="st2" d="M157.32,352.88c-3.27-17.29-19.02-29.63-36.36-29.83-15.53.18-29.38,9.82-34.83,24.4-5.37,14.38-.79,31.42,11.05,41.18,12.03,9.91,29.36,11.49,42.81,3.4,13.4-8.06,20.22-23.84,17.32-39.15Z"/>
          <path class="st13" d="M145.14,354.65c-2.07-10.95-12.04-18.76-23.02-18.89-9.83.12-18.61,6.22-22.06,15.45-3.4,9.11-.5,19.9,7,26.07,7.62,6.27,18.59,7.28,27.11,2.16,8.49-5.1,12.81-15.09,10.97-24.79Z"/>
          <path class="st2" d="M137.79,356.1c-1.4-7.38-8.12-12.66-15.53-12.74-6.63.08-12.55,4.19-14.88,10.42-2.29,6.14-.34,13.42,4.72,17.59,5.14,4.23,12.54,4.91,18.29,1.45,5.72-3.45,8.64-10.18,7.4-16.72Z"/>
          <path class="st4" d="M115.58,360.23c-.53-4.09,1.65-7.72,5.95-8.1.82-.07.83-1.36,0-1.29-4.95.44-7.86,4.52-7.24,9.39.1.81,1.39.82,1.28,0h0Z"/>
          <path class="st4" d="M123.92,352.22c.9,0,.9-1.41,0-1.41-.9,0-.9,1.41,0,1.41h0Z"/>
          <path class="st4" d="M148.02,360.8c.9,0,.9-1.41,0-1.41-.9,0-.91,1.41,0,1.41h0Z"/>
          <path class="st4" d="M147.31,362.71c-1.58,12.64-12.04,22.35-24.47,23.8-.89.1-.9,1.51,0,1.41,13.41-1.57,24.2-11.77,25.87-25.2.11-.9-1.29-.89-1.4,0Z"/>
        </g>
        <path class="st7" d="M71.75,352.74s53.58-46.51,100.64.04c0,0-.79-53.11-49.12-53.11-48.21,0-51.52,53.06-51.52,53.06Z"/>
      </g>
      <g>
        <path class="st9" d="M334.14,343.36s52.12-46.51,97.91.04c0,0-2.35-43.61-49.37-43.61-46.9,0-48.53,43.57-48.53,43.57Z"/>
        <g>
          <path class="st2" d="M417.63,352.88c-3.27-17.29-19.02-29.63-36.36-29.83-15.53.18-29.38,9.82-34.83,24.4-5.37,14.38-.79,31.42,11.05,41.18,12.03,9.91,29.36,11.49,42.81,3.4,13.4-8.06,20.22-23.84,17.32-39.15Z"/>
          <path class="st13" d="M405.46,354.65c-2.07-10.95-12.04-18.76-23.02-18.89-9.83.12-18.61,6.22-22.06,15.45-3.4,9.11-.5,19.9,7,26.07,7.62,6.27,18.59,7.28,27.11,2.16,8.49-5.1,12.81-15.09,10.97-24.79Z"/>
          <path class="st2" d="M398.1,356.1c-1.4-7.38-8.12-12.66-15.53-12.74-6.63.08-12.55,4.19-14.88,10.42-2.29,6.14-.34,13.42,4.72,17.59,5.14,4.23,12.54,4.91,18.29,1.45,5.73-3.45,8.64-10.18,7.4-16.72Z"/>
          <path class="st4" d="M375.89,360.23c-.53-4.09,1.65-7.72,5.95-8.1.82-.07.83-1.36,0-1.29-4.95.44-7.86,4.52-7.24,9.39.1.81,1.39.82,1.28,0h0Z"/>
          <path class="st4" d="M384.24,352.22c.9,0,.9-1.41,0-1.41-.9,0-.9,1.41,0,1.41h0Z"/>
          <path class="st4" d="M408.33,360.8c.9,0,.9-1.41,0-1.41-.9,0-.9,1.41,0,1.41h0Z"/>
          <path class="st4" d="M407.62,362.71c-1.58,12.64-12.04,22.35-24.47,23.8-.89.1-.9,1.51,0,1.41,13.41-1.57,24.2-11.77,25.87-25.2.11-.9-1.29-.89-1.4,0Z"/>
        </g>
        <path class="st7" d="M332.06,352.74s53.58-46.51,100.64.04c0,0-.79-53.11-49.12-53.11-48.21,0-51.52,53.06-51.52,53.06Z"/>
      </g>
      <path class="st1" d="M509.95,272.25c0-.76-.65-1.41-1.41-1.41h-14.86c-.76,0-1.41.65-1.41,1.41v16.29c0,.76.65,1.41,1.41,1.41h14.86c.41,0,.73-.15.95-.38.02-.01.03-.03.05-.05,0,0,.02-.02.03-.03.23-.23.38-.54.38-.96,0-5.43,0-10.86,0-16.29Z"/>
      <path class="st13" d="M464.39,263.55l-13.42-2.46c-3.09-.57-6.07,1.41-6.61,4.4h0c-.55,2.99,1.53,5.89,4.62,6.46l13.42,2.46c3.09.57,6.07-1.41,6.61-4.4h0c.55-2.98-1.53-5.89-4.62-6.46Z"/>
      <g>
        <path class="st11" d="M235.04,260.63h-12.85c-1.47,0-2.73.96-3.19,2.28-1.18.53-2,1.71-2,3.08v.48c0,1.86,1.52,3.38,3.38,3.38h12.85c1.47,0,2.73-.96,3.19-2.28,1.17-.53,2-1.71,2-3.08v-.48c0-1.86-1.52-3.38-3.38-3.38Z"/>
        <path class="st11" d="M337.35,246.19c0-1.96.32-4.21-.05-6.14-.35-1.84-1.31-3.73-1.93-5.48-7-19.9-14.01-39.79-21.01-59.69-.58-1.63-1.15-3.27-1.73-4.9-2.12-5.43-6.82-8.62-12.63-8.68-2.47-.03-4.94,0-7.42,0h-76.34c-2.31,0-4.77-.22-7.01.3-2.84.66-5.12,2.28-6.69,4.45-1.11.96-2.03,2.13-2.72,3.44-2.91-5.05-8.31-8.06-14.11-8.19-1.27-.03-2.54,0-3.81,0h-72.78c-1.72,0-3.43-.06-5.14.21-4.16.65-7.87,2.94-10.39,6.21-2.01,1.88-3.57,4.26-4.43,6.93-1.27,3.93-.77,8.64-.77,12.72v79.25c0,5.21-.04,10.42,0,15.62.02,2.14.5,4.21,2.79,5.07,2.1.79,4.82-.49,6.91-.99,2.26-.54,4.53-1.02,6.82-1.43,23.72-4.27,48.86-.15,65.98,18.01,2.47,2.63,4.73,5.45,6.77,8.42,1.69,2.46,2.72,5.39,5.75,6.06.15.06.32.09.51.09.15.02.29,0,.41-.01,5.1-.13,9.38-2.56,12.21-6.22.99-.93,1.88-1.98,2.62-3.13,1.65,4.61,5.7,8.07,10.89,8.57,4.82.46,9.83.07,14.66.07h93.7c1.42,0,2.85.04,4.26,0,4.28-.12,7.96-2.15,10.28-5.28,2.63-2.33,4.29-5.7,4.4-9.56.21-7.45,0-14.94,0-22.39,0-11.1,0-22.21,0-33.32ZM324.45,311.95c-15.07.53-30.26,0-45.34,0h-60.57c-1.76,0-3.53.05-5.28,0-5.77-.15-10.09-4.34-10.28-10.14-.07-2.17-.07-4.34-.05-6.52.23-.3.41-.63.53-1,1.15-.48,1.97-1.62,1.97-2.94v-12.57c0-1.5-1.05-2.76-2.44-3.1v-15.26c.21-.28.37-.59.48-.93,1.15-.48,1.97-1.62,1.97-2.94v-12.57c0-1.5-1.05-2.76-2.44-3.1v-66.67c0-2.28.5-4.48,1.66-6.25.66-.52,1.42-.96,2.31-1.29,2.26-.85,4.89-.58,7.3-.58h82.93c4.78,0,9.06,1.83,10.94,6.62,5.84,16.58,11.67,33.17,17.51,49.75,2.34,6.64,5.17,13.29,7.06,20.07.02.08.04.12.05.13,0,.07,0,.19,0,.41,0,1.16,0,2.33,0,3.49v46.87c0,3.22.02,6.45,0,9.67-.01,2.48-.72,4.73-1.97,6.54-1.66,1.37-3.79,2.23-6.3,2.32ZM185.72,312.68c-1.55-.2-3.24-3.91-4.07-5.12-1.03-1.49-2.12-2.94-3.25-4.36-2.07-2.59-4.32-5.03-6.74-7.29-4.41-4.1-9.39-7.6-14.78-10.28-9.82-4.88-20.74-7.06-31.66-7.17-9.61-.09-19.23,1.34-28.52,3.77-1.48.39-3.11.61-3.68-1.17-.13-.4,0-1.05,0-1.46v-99.44c0-.86-.02-1.71,0-2.57.07-3.01,1.07-5.77,2.74-8,2.37-2.13,5.48-3.44,8.94-3.51,3.88-.08,7.77,0,11.65,0h52.9c4.8,0,9.61-.08,14.41,0,8.36.14,13.74,6.67,13.74,14.69v60.84c-.42.38-.73.86-.91,1.4-1.15.48-1.97,1.61-1.97,2.94v12.57c0,1.65,1.27,3.02,2.88,3.18v11.38c0,1.1.01,2.2.03,3.3-.43.38-.76.87-.93,1.43-1.15.48-1.97,1.61-1.97,2.93v12.57c0,1.72,1.37,3.12,3.07,3.19-.04,1.82-.1,3.64-.22,5.44-.17,2.68-1.15,5.17-2.69,7.22-2.4,2.16-5.55,3.49-8.96,3.49Z"/>
      </g>
      <path class="st13" d="M67.83,172.73h-5.13l-16.59,56.69h21.72c6.64,0,12.07-5.78,12.07-12.84v-31.01c0-7.06-5.43-12.84-12.07-12.84Z"/>
      <g>
        <path class="st13" d="M194.94,184.83c-.55-8.2-7.29-14.33-15.53-14.54-2.34-.06-4.68,0-7.01,0h-32.89c-8.16,0-16.33-.09-24.5,0-6.93.08-13.18,4.23-15.24,10.9-1.08,3.48-.67,7.52-.67,11.11,0,9.8-.08,19.61,0,29.41.06,7.03,4.33,13.43,11.39,15.36,2.74.75,5.7.55,8.51.55h60.46c.19,0,.36-.01.54-.03,8.36-.54,14.74-6.98,14.97-15.35.09-3.48,0-6.97,0-10.45,0-8.92.57-18.04-.03-26.95Z"/>
        <path class="st13" d="M323.29,221.23c-1.4-3.9-2.94-7.76-4.41-11.64-2.24-5.91-4.48-11.82-6.71-17.73-1.76-4.64-3.15-9.69-5.48-14.05-2.53-4.74-6.6-6.61-11.79-6.61h-66.94c-2.6,0-5.38-.25-7.95.22-8.05,1.48-11.48,9.67-11.5,16.95-.01,5.4,0,10.81,0,16.21v16.43c0,7.06,2.89,15.02,10.53,17.1,2.47.67,5.3.41,7.83.41h82.98c.2,0,.39-.01.57-.04,8.69-.63,16.01-8.51,12.87-17.25Z"/>
      </g>
      <path class="st13" d="M334.73,175.86c-3.94,1.26-7.82,5.44-5.77,10.77l11.53,32.95c2.17,6.89,3.66,11.17,8.14,11.17h6.01l-19.91-54.89Z"/>
      <path class="st6" d="M189.08,187.81c-.48-6.72-6.33-11.75-13.49-11.92-2.03-.05-4.07,0-6.09,0h-28.56c-7.09,0-14.18-.07-21.27,0-6.02.06-11.44,3.47-13.24,8.93-.94,2.85-.58,6.16-.58,9.11,0,8.03-.07,16.07,0,24.1.05,5.76,3.76,11.01,9.89,12.59,2.38.61,4.95.45,7.39.45h52.51c.16,0,.32,0,.47-.02,7.26-.44,12.8-5.72,13-12.58.08-2.85,0-5.71,0-8.57,0-7.31.5-14.79-.02-22.09ZM181.53,220.03c-.75,2.5-3.17,4.11-5.9,4.19h-53.72c-2.24,0-4.44.18-6.35-1.19-2.68-1.91-2.38-4.8-2.38-7.56v-24c0-2.76-.3-5.65,2.38-7.56,1.91-1.36,4.11-1.19,6.35-1.19h9.8c14.61,0,29.31-.48,43.91,0,4.3.14,6.12,3.35,6.12,6.92v23.38c0,2.18.42,4.86-.22,7Z"/>
      <path class="st6" d="M77.62,205.8c0-4.69.11-9.39,0-14.08-.12-4.93-2.5-9.68-6.88-12.17-3.29-1.87-6.82-1.69-10.46-1.69-4.4,0-4.41,6.84,0,6.84,2.06,0,4.55-.37,6.48.48,2.65,1.16,3.96,3.89,4.01,6.66.08,4.2,0,8.4,0,12.6s.08,8.15,0,12.22c-.06,2.85-1.52,5.64-4.29,6.7-1.52.58-3.37.37-4.97.37h-14.66c-4.4,0-4.41,6.84,0,6.84h14.66c2.28,0,4.59.11,6.79-.61,4.47-1.47,7.99-5.43,8.95-10.05.94-4.5.36-9.56.36-14.11Z"/>
      <path class="st6" d="M316.42,217.64c-1.26-3.2-2.64-6.36-3.95-9.54-2.01-4.84-4.01-9.69-6.02-14.53-1.58-3.8-2.83-7.94-4.92-11.52-2.27-3.89-5.92-5.42-10.57-5.42h-60.04c-2.33,0-4.82-.21-7.13.18-7.22,1.22-10.3,7.93-10.32,13.89-.01,4.43,0,8.86,0,13.28v13.46c0,5.79,2.59,12.31,9.45,14.01,2.21.55,4.75.34,7.02.34h74.43c.18,0,5.06.06,5.22.04,7.79-.52,9.65-7.04,6.83-14.21ZM304.36,224.97h-75.57c-1.8,0-3.85.3-5.31-.81-3.09-2.36-2.44-6.67-2.44-9.95,0-8.1-.15-16.21,0-24.3.06-3.3,1.78-6.43,5.66-6.43h9.22c18.6,0,37.2-.11,55.8,0,.79,0,1.48-.04,2.04.38,1.9,1.42,2.63,4.86,3.45,6.9,1.12,2.81,2.32,5.6,3.48,8.39,1.94,4.67,3.87,9.34,5.81,14.01.68,1.63,1.35,3.26,2.03,4.89.36.86,1.04,2.06,1.06,2.96.06,2.32-2.94,3.88-5.22,3.96Z"/>
      <g>
        <path class="st4" d="M291.3,175.08l-9.44-.43c-.36.21-.74.39-1.14.53-.91.48-1.88.69-2.93.66h-.38c-1.14,0-2.21-.25-3.22-.72l-29.43,55.35,21.68.19,25.91-53.72c-.44-.56-.78-1.19-1.04-1.85Z"/>
        <path class="st4" d="M212.49,221.44c.04.19.08.37.13.55l25.49-44.15-10.4-.94-16.02,42.59c.37.59.64,1.25.8,1.95Z"/>
        <path class="st4" d="M308.63,190.37l-20.31,40.41,6.53.75,14.71-39.08c-.3-.7-.61-1.39-.92-2.08Z"/>
        <path class="st4" d="M262.65,177.23l-35.16,54.73,7.78-.19s32.36-53.79,32.36-54.35l-4.98-.19Z"/>
      </g>
      <g>
        <path class="st4" d="M79.26,220.03c.03-.13.06-.26.08-.39-.1.42-.16.6.1-.48.02-.1.03-.2.04-.27.07-.73.14-1.47.19-2.2.25-3.55.25-7.1.28-10.65l-10.43,21.46,6.13.06c.96-2.63,2.21-5.11,3.61-7.52Z"/>
        <polygon class="st4" points="62.17 178.11 40.75 230.45 74.95 177.83 62.17 178.11"/>
        <path class="st4" d="M81.47,189.02c-.2-.9-.38-1.8-.54-2.7l-22.32,40.79,4.54-.19s10.35-20.33,17.69-34.91c.17-1.01.38-2.01.62-2.99Z"/>
      </g>
      <g>
        <path class="st4" d="M104.73,227.79l29.54-52.6-10.43,1.05-19.99,50.94c.3.2.59.4.88.6Z"/>
        <path class="st4" d="M189.24,186.19l-17.2,49.41,4.43,1,13.26-48.99c-.16-.48-.32-.95-.49-1.42Z"/>
        <g>
          <polygon class="st4" points="153.5 176.35 130.78 233.37 159.46 234.65 178.9 176.3 153.5 176.35"/>
          <path class="st4" d="M147.53,173.97l-27.92,57.38,4.65-.22s25.48-56.3,25.48-56.95l-2.21-.22Z"/>
        </g>
      </g>
      <path class="st5" d="M473.43,262.75c-2.16,0-2.02,3.35.14,3.35,2.16,0,2.02-3.35-.14-3.35Z"/>
      <path class="st5" d="M485.44,272.56c-.81-1.42-1.64-2.85-2.85-3.97-1.21-1.12-2.7-1.91-4.17-2.63-1.94-.95-3.54,2-1.6,2.95,1.21.6,2.46,1.2,3.46,2.12,1,.92,1.64,2.14,2.3,3.3,1.07,1.88,3.91.1,2.85-1.78Z"/>
      <path class="st5" d="M49.87,259.37c-2.16,0-2.02,3.35.14,3.35s2.02-3.35-.14-3.35Z"/>
      <path class="st5" d="M51.24,266.99c.15-2.15-3.21-2-3.35.14-.14,2.03-1.49,4.04-1.81,6.09-.34,2.22-.11,4.46-.07,6.69.04,2.16,3.39,2.02,3.35-.14-.04-2.49-.32-4.95.32-7.38.49-1.86,1.43-3.45,1.56-5.39Z"/>
      <path class="st5" d="M350.53,239.83c-2.16,0-2.02,3.35.14,3.35s2.02-3.35-.14-3.35Z"/>
    </g>
  </g>
  <g id="Stroke">
    <g>
      <path class="st12" d="M134.6,323.06c-15.35-5.73-33.52-.75-43.87,11.92-10.44,12.78-12.1,31.11-3.6,45.38,8.53,14.34,25.36,21.67,41.67,18.6,18.43-3.46,31.64-20.25,31.84-38.76-.18-16.59-10.49-31.34-26.04-37.14ZM132,389.32c-12.42,4.45-26.33.83-34.83-9.31-8.34-9.95-9.36-24.59-2.75-35.7,6.57-11.03,19.83-17.17,32.5-14.65,14.61,2.91,25.1,15.68,25.26,30.53-.14,12.72-8.03,24.76-20.18,29.12Z"/>
      <path class="st12" d="M128.45,342.22c-7.01-2.66-15.3-.51-20.13,5.22-4.96,5.88-5.77,14.52-1.75,21.14,3.96,6.51,11.59,9.8,19.04,8.43,8.4-1.54,14.22-9.01,14.64-17.32.02-.15.03-.31.02-.47,0-.2,0-.39-.03-.58-.4-7.33-4.83-13.78-11.78-16.42ZM122.12,371.02c-6.43.02-11.82-5.37-11.81-11.81.02-6.44,5.35-11.81,11.81-11.81s11.65,5.37,11.81,11.81c-.16,6.45-5.24,11.79-11.81,11.81Z"/>
      <path class="st12" d="M394.84,323.06c-15.35-5.73-33.52-.75-43.87,11.92-10.44,12.78-12.1,31.11-3.6,45.38,8.53,14.34,25.36,21.67,41.67,18.6,18.43-3.46,31.64-20.25,31.84-38.76-.18-16.59-10.49-31.34-26.04-37.14ZM392.24,389.32c-12.42,4.45-26.33.83-34.83-9.31-8.34-9.95-9.36-24.59-2.75-35.7,6.57-11.03,19.83-17.17,32.5-14.65,14.61,2.91,25.1,15.68,25.26,30.53-.14,12.72-8.03,24.76-20.18,29.12Z"/>
      <path class="st12" d="M388.69,342.22c-7.01-2.66-15.3-.51-20.13,5.22-4.96,5.88-5.77,14.52-1.75,21.14,3.96,6.51,11.59,9.8,19.04,8.43,8.4-1.54,14.22-9.01,14.63-17.32.02-.15.03-.31.02-.47,0-.2,0-.39-.04-.58-.4-7.33-4.82-13.78-11.78-16.42ZM382.36,371.02c-6.43.02-11.82-5.37-11.81-11.81.02-6.44,5.35-11.81,11.81-11.81s11.65,5.37,11.81,11.81c-.16,6.45-5.24,11.79-11.81,11.81Z"/>
      <path class="st12" d="M513,294.38h-16.68c0-1.47,0-2.95,0-4.42h12.58c.41,0,.73-.15.95-.38.02-.01.03-.03.05-.05,0,0,.02-.02.03-.03.23-.23.38-.54.38-.96v-16.29c0-.76-.65-1.41-1.41-1.41h-13.12c-1.42-5.31-5.52-10.34-9.57-13.54-4.22-3.34-8.6-5.03-13.8-6.16-10.1-2.19-20.44-3.37-30.73-4.31-16.06-1.47-32.19-2.19-48.32-2.53-10.08-.26-20.17-.35-30.24-.25-4.39-27.71-12.49-56.17-29.56-78.81-.18-.49-.46-.92-.81-1.28-3.14-5.56-8.22-9.9-14.05-12.48-3.6-1.59-7.3-2.55-11.21-3.02-2.35-.28-6.35-1.03-9.25-.33h-28.85v-6.13h17.84c3.14,0,5.86-1.77,7.17-4.32,1.61-1.24,2.81-2.98,3.32-5.14,1.48-6.23-2.65-12.07-9.06-12.42H95.5c-1.35,0-2.67.03-3.99.44-6.06,1.91-8.29,9.67-5,14.87.04.07.09.13.14.2.66,3.61,3.94,6.37,7.86,6.37h19.3v6.13h-31.24c-8.04,0-13.18,6.42-17.25,12.67-8.54,13.12-14.06,28.5-18.89,43.31-1.91,5.85-3.66,11.75-5.2,17.71-1.04-.27-2.13-.41-3.26-.41H14.45c-7.4,0-13.45,6.05-13.45,13.45v71.27c0,7.4,6.05,13.45,13.45,13.45h12.92c0,.65,0,1.31.01,1.96.13,11.9,6.42,22.83,16.52,29.11,9.11,5.66,19.1,5.35,29.37,5.35,1.68,0,3.8-1.3,4.08-3.1.25-1.65.44-3.36.68-5.06.38-.44.66-.96.75-1.53.89-5.43,2.72-10.61,5.33-15.32,8.48-10.21,21.11-16.43,34.55-16.67,14.2-.25,27.85,6.11,36.78,17.17,4.99,6.18,8.05,13.62,9.34,21.42.3,1.8,2.36,3.1,4.08,3.1h162.87c1.69,0,3.78-1.3,4.08-3.1,2.79-16.8,14.52-31.03,30.84-36.31,16.43-5.32,34.86-1.01,47.04,11.28,6.79,6.85,11.02,15.55,12.6,25.04.3,1.8,2.36,3.1,4.08,3.1h27.56c5.06,0,10.08-.12,14.94-1.79,8.1-2.78,15.12-8.42,19.33-15.92,3.92-6.99,4.39-14.31,4.39-22.1,0-.44-.06-.85-.17-1.23.16-3.52.05-7.09-.02-10.6h16.63v-9.96ZM333.54,180.37c3.09,5.25,5.8,10.74,8.13,16.37,3.96,9.56,6.99,19.47,9.37,29.53-.96.02-1.92.02-2.86-.06-1.58-.13-2.03-1.25-2.77-3.04-1.24-3-2.12-6.23-3.2-9.3-2.95-8.42-5.9-16.85-8.84-25.27-1.02-2.92-2.57-6.31.18-8.23ZM265.03,124.36h23.61c6.82.37,6.66,10.75-.07,11.16-.66.04-1.34,0-2,0h-21.54v-11.16h0ZM230.03,124.36h32v11.16h-32v-11.16h0ZM258.26,142.01v6.13H124.93v-6.13h133.33ZM192.32,124.36h34.71v11.16h-34.71v-11.16h0ZM157.32,124.36h32v11.16h-32v-11.16ZM122.32,124.36h32v11.16h-32v-11.16h0ZM94.7,135.52c-3.95-.12-6.29-3.64-5.24-7.43.74-2.67,3.14-3.69,5.65-3.74,3.1-.05,6.21,0,9.32,0h14.89v11.16c-8.19.01-16.43.25-24.62,0ZM51.01,218.08c3.71-13.08,8.09-26.17,13.84-38.54,2.18-.08,4.54-.22,6.47.63,3.27,1.44,4.9,4.81,4.96,8.23.1,5.19,0,10.39,0,15.57s.1,10.07,0,15.1c-.07,3.52-1.87,6.96-5.3,8.28-1.88.72-4.17.46-6.15.46h-16.4c.79-3.26,1.67-6.51,2.58-9.73ZM45.71,243.34c.06-.88.11-1.76.21-2.65.03-.27.07-.55.1-.82,0-.04.01-.08.02-.13.11-.7.22-1.41.34-2.11.08-.45.16-.91.25-1.36.03,0,.06,0,.09,0h18.12c2.82,0,5.67.14,8.4-.76,5.53-1.82,9.87-6.71,11.07-12.42,1.16-5.56.44-11.81.44-17.44s.14-11.61,0-17.41c-.15-6.09-3.1-11.96-8.5-15.04-2.33-1.32-4.75-1.81-7.24-1.99,2.46-4.65,5.12-9.06,8.63-12.42.33-.31.67-.62,1.01-.91.04-.03.07-.06.09-.08.02-.01.03-.02.06-.04.17-.11.33-.24.5-.34.29-.17.58-.34.87-.5-.16.11.5-.16.82-.3.05-.02.09-.04.12-.06.06.01.13.02.24.03.13,0,.26,0,.38,0,4.91.13,9.84,0,14.75,0h187.28c4.87,0,9.79.21,14.66,0,.15,0,.3-.02.45-.03-.02,0-.05.02-.07.03,10.46-.62,21.9,2.52,27.06,12.4.04.08.08.15.13.22.78,1.43,2.09,2.78,3.09,4.15-4.68,3.22-6.9,8.68-4.86,14.63,1.35,3.92,2.74,7.82,4.11,11.73,3.12,8.91,5.78,18.21,9.43,26.92,1.58,3.77,4.03,7.13,8.3,7.86,2.21.38,4.55.23,6.81.19.73,3.63,1.38,7.28,1.97,10.94h-16.85c.04-1.85.29-3.91-.06-5.7-.35-1.84-1.31-3.73-1.93-5.48-7-19.9-14.01-39.79-21.01-59.69-.58-1.63-1.15-3.27-1.73-4.9-2.13-5.43-6.82-8.62-12.63-8.68-2.47-.03-4.94,0-7.41,0h-76.34c-2.31,0-4.77-.22-7.01.3-4.64,1.07-7.79,4.72-8.75,9.12-.12-.26-.25-.52-.39-.78-2.84-5.32-8.4-8.5-14.37-8.63-1.27-.03-2.54,0-3.81,0h-72.78c-1.72,0-3.43-.06-5.14.21-6.04.94-11.14,5.36-13.02,11.17-1.27,3.93-.77,8.64-.77,12.72v60.35h-9.45c-10.8,0-21.66-.31-32.47-.15-1.15-.03-2.29-.04-3.43-.03.1-.69.18-1.39.23-2.09ZM203.61,275.55v-16.02c1.4-.34,2.44-1.6,2.44-3.1v-2.35h116.27c4.27,0,8.55.05,12.84.1v37.14c0,3.22.02,6.45,0,9.67-.03,5.92-3.96,10.62-10.08,10.84-15.07.53-30.26,0-45.34,0h-60.57c-1.76,0-3.52.05-5.28,0-5.77-.15-10.09-4.34-10.28-10.14-.08-2.44-.07-4.9-.05-7.35,1.42-.32,2.49-1.6,2.49-3.11v-12.57c0-1.5-1.05-2.76-2.44-3.1ZM335.16,240.96c0,1.16,0,2.33,0,3.49v1.17h-129.11v-1.77c0-1.5-1.05-2.76-2.44-3.1v-66.67c0-4.11,1.63-7.96,5.77-9.52,2.26-.85,4.89-.58,7.3-.58h82.93c4.78,0,9.06,1.83,10.94,6.62,5.84,16.58,11.67,33.17,17.51,49.75,2.34,6.64,5.17,13.29,7.06,20.07.02.08.04.12.05.13,0,.07,0,.19,0,.4ZM93.66,177.47c.16-7.44,6.04-13.32,13.48-13.48,3.88-.08,7.77,0,11.65,0h52.9c4.8,0,9.61-.08,14.41,0,8.36.14,13.74,6.67,13.74,14.69v62c-1.61.16-2.88,1.53-2.88,3.18v1.77h-103.3v-65.57c0-.86-.02-1.72,0-2.57ZM93.66,279.48v-25.41h103.3v2.35c0,1.65,1.27,3.02,2.88,3.18v11.38c0,1.49.02,2.99.04,4.48-1.63.14-2.92,1.52-2.92,3.18v12.57c0,1.72,1.37,3.12,3.07,3.19-.04,1.82-.1,3.64-.22,5.44-.44,7.01-6.42,12.69-13.46,12.69-1.55-.2-3.23-3.91-4.07-5.12-1.03-1.49-2.12-2.94-3.25-4.36-2.07-2.59-4.32-5.03-6.74-7.29-4.41-4.1-9.39-7.6-14.78-10.28-9.82-4.88-20.74-7.06-31.66-7.17-9.61-.09-19.23,1.34-28.52,3.77-1.48.39-3.11.61-3.68-1.17-.12-.4,0-1.05,0-1.46ZM487.87,314.9c0,.53-.03,1.05-.07,1.58-3.61,10.54-13.35,17.73-24.62,17.88h-27.65c-4.13-18.16-17.83-33.19-35.59-39.06-19.1-6.32-40.84-.92-54.89,13.43-6.92,7.07-11.79,16.01-13.97,25.63h-154.12c-3.96-17.44-16.68-31.85-33.43-38.29-18.19-7-39.2-2.9-53.89,9.69-8.1,6.94-13.87,16.38-16.69,26.64-.19.7-.21,1.36-.09,1.95h-4.06c-14.6-.18-26.59-11.69-26.65-26.4-.04-9.48,0-18.96,0-28.43,0-4.55.79-8.88,1.61-13.35.11-.61.1-1.26-.02-1.88.61-3.41,1.23-6.81,1.84-10.22h45.25v10.44c0,5.21-.04,10.42,0,15.62.02,2.14.5,4.21,2.79,5.07,2.09.79,4.82-.49,6.91-.99,2.26-.54,4.53-1.02,6.82-1.43,23.72-4.27,48.86-.15,65.98,18.01,2.48,2.63,4.73,5.45,6.77,8.42,1.69,2.46,2.72,5.39,5.75,6.06.15.06.32.09.51.09.15.02.29,0,.41-.01,6.81-.17,12.16-4.45,14.54-10.27,1.42,5.06,5.65,8.96,11.18,9.49,4.82.46,9.83.07,14.66.07h93.7c1.42,0,2.85.04,4.26,0,7.16-.2,12.67-5.71,12.88-12.87.21-7.45,0-14.94,0-22.39v-25.18c7.71.09,15.43.14,23.11-.13.18,0,.37,0,.55,0h14.93c15.52,0,31.13.48,46.64,0,.21,0,.42,0,.63,0,.47.03.91-.01,1.3-.11,12.49.71,24.97,1.83,37.27,3.87,4.29.71,9.12,1.23,13.2,2.76,2.75,1.04,5.4,3.09,7.43,5.18,2.03,2.1,4.77,5.65,4.81,8.7,0,6.63.04,13.27.07,19.9h-11.3v9.96h11.31c0,3.52-.02,7.04-.05,10.56ZM496.3,274.48c0-.19-.01-.37-.03-.55,0-.09,0-.18-.02-.27h11.23v13.48h-11.17c0-4.22,0-8.44-.01-12.66Z"/>
      <path class="st12" d="M465.2,262.32c-.1-.04-.2-.07-.32-.09-3.87-.71-7.74-1.42-11.61-2.13-1.73-.32-3.42-.69-5.17-.2-2.86.8-5.01,3.38-5.12,6.37-.19,5.48,4.76,6.89,9.06,7.68,2.49.45,4.98.91,7.47,1.37,1.53.28,3.16.72,4.72.59,8-.7,8.12-11.47.97-13.58ZM463.07,273.09c-1.25-.09-2.52-.45-3.75-.67-3.25-.6-6.65-.97-9.86-1.81-4.98-1.3-4.53-8.32.84-8.18,1.23.03,2.51.43,3.71.65,3.37.62,6.73,1.23,10.1,1.85,5.13,1.29,4.43,8.56-1.05,8.15Z"/>
      <path class="st12" d="M222.82,267.75h12.85c1.86,0,3.38-1.52,3.38-3.38v-.48c0-1.86-1.52-3.38-3.38-3.38h-12.85c-1.86,0-3.38,1.52-3.38,3.38v.48c0,1.86,1.52,3.38,3.38,3.38Z"/>
      <path class="st12" d="M99.1,221.71c.06,7.12,4.33,13.61,11.39,15.56,2.74.76,5.7.56,8.51.56h60.46c.19,0,.36-.01.54-.03,8.36-.54,14.74-7.08,14.97-15.54.09-3.52,0-7.06,0-10.59,0-9.04.57-18.28-.03-27.3-.55-8.31-7.29-14.52-15.53-14.73-2.34-.06-4.68,0-7.01,0h-32.89c-8.16,0-16.33-.09-24.5,0-6.93.08-13.18,4.28-15.24,11.04-1.08,3.52-.67,7.61-.67,11.25,0,9.93-.08,19.86,0,29.79ZM110.3,179.54c2.2-1.68,4.73-1.47,7.31-1.47h11.29c16.82,0,33.75-.59,50.56,0,4.95.17,7.05,4.14,7.05,8.55v28.9c0,2.7.48,6.01-.25,8.66-.86,3.09-3.65,5.08-6.79,5.18h-61.85c-2.58,0-5.11.22-7.31-1.47-3.09-2.36-2.74-5.93-2.74-9.34v-29.67c0-3.41-.34-6.98,2.75-9.34Z"/>
      <path class="st12" d="M318.88,209.43c-2.24-5.99-4.48-11.97-6.71-17.96-1.76-4.7-3.15-9.81-5.48-14.23-2.53-4.8-6.6-6.7-11.79-6.7h-66.94c-2.6,0-5.38-.25-7.95.23-8.05,1.5-11.48,9.8-11.5,17.17-.01,5.47,0,10.95,0,16.42v16.64c0,7.15,2.89,15.22,10.53,17.32,2.47.68,5.3.42,7.83.42h82.98c.2,0,.39-.01.57-.04,8.69-.64,16.01-8.62,12.87-17.47-1.41-3.95-2.94-7.86-4.41-11.79ZM309.85,230.28h-84.25c-2,0-4.29.38-5.92-1-3.45-2.92-2.72-8.25-2.72-12.3,0-10.01-.17-20.03,0-30.04.07-4.08,1.98-7.95,6.31-7.95h10.28c20.73,0,41.47-.14,62.21,0,.88,0,1.65-.05,2.28.47,2.12,1.76,2.94,6.01,3.84,8.53,1.25,3.47,2.59,6.92,3.88,10.38,2.16,5.77,4.32,11.55,6.48,17.32.75,2.01,1.5,4.03,2.26,6.04.4,1.07,1.16,2.55,1.19,3.66.07,2.86-3.28,4.79-5.82,4.89Z"/>
    </g>
  </g>
</svg>