<?xml version="1.0" encoding="UTF-8"?>
<svg id="Layer_1" xmlns="http://www.w3.org/2000/svg" version="1.1" viewBox="0 0 512 512">
  <!-- Generator: Adobe Illustrator 29.1.0, SVG Export Plug-In . SVG Version: 2.1.0 Build 142)  -->
  <defs>
    <style>
      .st0 {
        fill: #e6e6e7;
        opacity: .1;
      }

      .st0, .st1 {
        isolation: isolate;
      }

      .st2 {
        fill: #929496;
      }

      .st3 {
        fill: #a0395d;
      }

      .st4 {
        fill: #771d3f;
      }

      .st5 {
        fill: #fff;
      }

      .st6 {
        fill: #f1f1f2;
      }

      .st7 {
        fill: #808183;
      }

      .st1 {
        opacity: .6;
      }

      .st1, .st8 {
        fill: #434244;
      }

      .st9 {
        fill: #272525;
      }

      .st10 {
        fill: #d0d1d3;
      }
    </style>
  </defs>
  <g>
    <path class="st3" d="M484.45,280.76c0-.22-.01-.44-.03-.64-.17-4.15-1.5-8.54-2.62-12.56l.28-.29s-1.53-25.94-14.75-47.31l-.05.41c-9.85-15.47-25.59-27.87-40.07-37.77-23.16-15.84-48.57-27.75-73.35-40.75-4.84-2.54-9.68-5.12-14.31-8.03-.97-.61-1.93-1.23-2.87-1.88-.42-.29-2.04-1.52-1.79-1.3-.7-.57-1.37-1.17-2-1.8-.22-.42-.5-.8-.83-1.14-4.24-7.56-11.15-13.42-19.06-16.89-4.79-2.1-9.71-3.38-14.9-3.98-3.14-.36-8.51-1.38-12.35-.43-14.56.02-29.15.57-43.71.85-28.9.56-57.81,1.12-86.72,1.67-17.99.35-35.99.69-53.98,1.04-.66-.15-1.36-.15-2.09.04-.04,0-.09,0-.13,0H30.63c-6.3,0-7.08,8.68-1.44,10.63.6.21,1.19.44,1.78.67.29.11.57.23.86.35.06.03.13.06.21.1.89.41,1.79.81,2.67,1.23,4.42,2.14,9.15,4.9,12.74,7.72,4.59,3.61,8.69,7.87,10.99,13.24,1.96,4.57,1.98,9.45.75,14.28-6.31,15.37-11.58,31.21-15.92,47.24-1.76,6.51-3.38,13.08-4.65,19.71-.56,2.94-1.03,5.89-1.39,8.86-.12,1.01-.24,2.02-.31,3.04-.05.67-.18,2.61-.06,2-.18,1.23-.41,2.45-.64,3.67-1.28.7-2.34,1.85-2.54,3.23-1.29,8.69-2.58,17.38-3.86,26.07-1.17,7.91-2.62,15.78-2.62,23.79v31.45c0,2.83.04,5.63.17,8.4h-1.04c.39,2.19.9,4.35,1.57,6.49.78,6.55,2.43,12.91,5.86,19.03,4.46,7.95,11.3,14.56,19.76,18.06,6.24,2.58,12.6,2.56,19.21,2.56,2.95,0,5.38-2.48,5.41-5.41.24-21.01,13.37-40.67,33.34-47.91,20.41-7.39,43.25-1.3,57.28,15.24,4.3,5.06,7.44,10.94,9.4,17.2.18,1.71.3,3.43.32,5.15.02,1.54.66,2.96,1.69,4.01.27,2.09.42,4.2.44,6.31.03,2.93,2.45,5.41,5.41,5.41h133.16c2.95,0,5.38-2.48,5.41-5.41.24-21.01,13.37-40.67,33.34-47.91,20.41-7.39,43.25-1.3,57.28,15.24,4.3,5.06,7.44,10.94,9.4,17.2.18,1.71.3,3.43.32,5.15.02,1.54.66,2.96,1.69,4.01.27,2.09.42,4.2.45,6.31.03,2.93,2.45,5.41,5.41,5.41,7.34,0,15.24.76,22.36-1.35,12.13-3.6,21.12-13.55,25.8-25.01,3.25-7.96,3.84-16.23,3.84-24.71v-24.72c-.01-8.42-.03-16.85-.04-25.28ZM31.76,121.63c-.34-.15-.34-.15,0,0h0Z"/>
    <g>
      <path class="st4" d="M484.92,325.9h-77.77c-.64-.48-1.3-.94-1.96-1.38,1.39,2.46,2.64,4.99,4.12,7.4.34.55.6,1.12.8,1.7,4.39,2.14,8.47,4.47,12.06,6.84.11.07.2.15.31.22h62.44c.06-1.63.08-3.28.08-4.93v-14.78c0,1.65-.02,3.29-.08,4.93Z"/>
      <path class="st4" d="M80.02,325.9H27.89c-.13-2.77-.17-5.57-.17-8.4v14.78c0,2.83.04,5.63.17,8.4h63.05c.05-1.44.46-2.87,1.14-4.17.76-2.09,2.2-3.95,4.19-5.19-.64.4.42-.42.96-.9.12-.23.55-.9.69-1.14,0,0,0,0,0,0l10.93-7.87h19.83s7.62-6.38,7.62-6.38c-26.79-8-47.3,3.97-56.28,10.88Z"/>
      <path class="st4" d="M326.81,325.9h-166.12c-1.59-1.18-3.24-2.26-4.94-3.24.46,1.51.6,3.11.33,4.6.45.31.89.63,1.33.95,1.18.85,2.37,1.71,3.47,2.67,2.37.69,4.08,2.23,5.15,4.13.92.37,1.72.87,2.41,1.48,2.65.58,4.56,2.17,5.72,4.19h163.52c2.72-4.36,6.01-7.76,9.7-10.34-.46-.71-.81-1.47-1.05-2.24l9.3-6.7h19.83s7.62-6.38,7.62-6.38c-26.79-8-47.29,3.98-56.28,10.88Z"/>
    </g>
    <path class="st4" d="M333.09,205.35c-.13-.14-.26-.27-.41-.39-12.34-9.83-24.71-19.61-37.01-29.49-11.71-9.4-23.03-20.22-36.6-26.94-13.19-6.52-27.48-8.01-42.02-8.01h-49.89c-8.2,0-16.45-.35-24.58.82-15.17,2.18-29.52,9.82-39.95,21.04-10.71,11.52-17.13,26.34-18.35,42-.41,5.21-.97,11.78.57,16.84,2.32,7.61,9.28,12.33,17.05,12.6,17.51.61,35.15,0,52.67,0h163.12c1.41,0,2.83.05,4.24,0,6.52-.21,12.34-3.64,15-9.71,2.84-6.48,1.38-13.98-3.84-18.78Z"/>
    <path class="st10" d="M337.1,201.43c-.13-.14-.26-.27-.41-.39-12.34-9.83-24.71-19.61-37.01-29.49-11.71-9.4-23.03-20.22-36.6-26.94-13.19-6.52-27.48-8.01-42.02-8.01h-49.89c-8.2,0-16.45-.35-24.58.82-15.17,2.18-29.52,9.82-39.95,21.04-10.71,11.52-17.13,26.34-18.35,42-.41,5.21-.97,11.78.57,16.84,2.32,7.61,9.28,12.33,17.05,12.6,17.51.61,35.15,0,52.67,0h163.12c1.41,0,2.83.05,4.24,0,6.52-.21,12.34-3.64,15-9.71,2.84-6.48,1.38-13.98-3.84-18.78Z"/>
    <g>
      <polygon class="st0" points="95.65 225.42 49.12 340.94 55.22 345.52 105.4 225.06 95.65 225.42"/>
      <polygon class="st0" points="117.3 223.62 68.57 344.8 118.26 327.95 159.52 225.06 117.3 223.62"/>
      <polygon class="st0" points="152.17 329.68 161.55 330.77 217.7 225.23 203.07 223.62 152.17 329.68"/>
      <polygon class="st0" points="355.3 323.47 364.68 324.55 421.81 212.67 407.18 211.06 355.3 323.47"/>
      <polygon class="st0" points="338.19 164.63 268.48 339.36 302.15 367.68 368.36 189.25 338.19 164.63"/>
    </g>
    <g>
      <path class="st8" d="M72.75,367.82s60.07-49.57,112.83.05c0,0-2.71-46.48-56.9-46.48s-55.93,46.43-55.93,46.43Z"/>
      <g>
        <path class="st2" d="M172.28,370.74c-3.81-20.14-22.16-34.52-42.35-34.76-18.09.21-34.23,11.44-40.58,28.43-6.25,16.76-.92,36.61,12.87,47.97,14.02,11.54,34.21,13.39,49.88,3.97,15.61-9.39,23.56-27.77,20.18-45.61Z"/>
        <path class="st10" d="M158.1,372.8c-2.42-12.75-14.03-21.86-26.82-22.01-11.46.14-21.68,7.24-25.7,18-3.96,10.61-.58,23.18,8.15,30.38,8.88,7.31,21.66,8.48,31.58,2.51,9.89-5.95,14.92-17.59,12.78-28.88Z"/>
        <path class="st2" d="M149.53,374.49c-1.63-8.6-9.46-14.74-18.09-14.85-7.73.09-14.62,4.89-17.33,12.14-2.67,7.16-.39,15.64,5.5,20.49,5.99,4.93,14.61,5.72,21.3,1.69,6.67-4.01,10.06-11.86,8.62-19.48Z"/>
        <path class="st5" d="M123.65,379.3c-.61-4.76,1.92-8.99,6.93-9.44.95-.08.96-1.58,0-1.5-5.77.51-9.16,5.26-8.43,10.94.12.94,1.62.95,1.5,0h0Z"/>
        <path class="st5" d="M133.38,369.98c1.05,0,1.05-1.64,0-1.64s-1.05,1.64,0,1.64h0Z"/>
        <path class="st5" d="M161.45,379.97c1.05,0,1.05-1.64,0-1.64s-1.05,1.64,0,1.64h0Z"/>
        <path class="st5" d="M160.62,382.19c-1.84,14.73-14.03,26.03-28.5,27.73-1.03.12-1.05,1.76,0,1.64,15.62-1.83,28.19-13.72,30.14-29.36.13-1.04-1.51-1.03-1.64,0Z"/>
      </g>
      <path class="st1" d="M70.35,377.82s61.74-49.57,115.98.05c0,0-.9-56.6-56.61-56.6-55.56,0-59.37,56.55-59.37,56.55Z"/>
    </g>
    <g>
      <path class="st8" d="M317.66,367.82s60.07-49.57,112.83.05c0,0-2.71-46.48-56.9-46.48s-55.93,46.43-55.93,46.43Z"/>
      <g>
        <path class="st2" d="M417.2,370.74c-3.81-20.14-22.16-34.52-42.35-34.76-18.09.21-34.23,11.44-40.58,28.43-6.25,16.76-.92,36.61,12.87,47.97,14.02,11.54,34.21,13.39,49.87,3.97,15.62-9.39,23.56-27.77,20.18-45.61Z"/>
        <path class="st10" d="M403.01,372.8c-2.42-12.75-14.03-21.86-26.82-22.01-11.46.14-21.68,7.24-25.7,18-3.96,10.61-.59,23.18,8.15,30.38,8.88,7.31,21.66,8.48,31.58,2.51,9.89-5.95,14.92-17.59,12.78-28.88Z"/>
        <path class="st2" d="M394.44,374.49c-1.63-8.6-9.46-14.74-18.09-14.85-7.73.09-14.62,4.89-17.33,12.14-2.67,7.16-.39,15.64,5.5,20.49,5.99,4.93,14.61,5.72,21.3,1.69,6.67-4.01,10.06-11.86,8.62-19.48Z"/>
        <path class="st5" d="M368.57,379.3c-.61-4.76,1.92-8.99,6.93-9.44.95-.08.96-1.58,0-1.5-5.77.51-9.16,5.26-8.43,10.94.12.94,1.62.95,1.5,0h0Z"/>
        <path class="st5" d="M378.3,369.98c1.05,0,1.05-1.64,0-1.64s-1.05,1.64,0,1.64h0Z"/>
        <path class="st5" d="M406.36,379.97c1.05,0,1.05-1.64,0-1.64s-1.05,1.64,0,1.64h0Z"/>
        <path class="st5" d="M405.54,382.19c-1.84,14.73-14.03,26.03-28.5,27.73-1.03.12-1.05,1.76,0,1.64,15.62-1.83,28.19-13.72,30.14-29.36.13-1.04-1.51-1.03-1.64,0Z"/>
      </g>
      <path class="st1" d="M315.26,377.82s61.74-49.57,115.98.05c0,0-.9-56.6-56.61-56.6-55.56,0-59.37,56.55-59.37,56.55Z"/>
    </g>
    <polygon class="st10" points="327.96 131.84 308.88 138.71 395.1 211.96 449.27 209.67 327.96 131.84"/>
    <g>
      <path class="st4" d="M152.53,261.9h-33.53c-1.32,0-2.5.6-3.3,1.54h-.03c-2.38,0-4.33,1.95-4.33,4.33v2.5c0,2.38,1.95,4.33,4.33,4.33h33.53c1.32,0,2.5-.6,3.3-1.54h.03c2.38,0,4.33-1.95,4.33-4.33v-2.5c0-2.38-1.95-4.33-4.33-4.33Z"/>
      <path class="st4" d="M364.54,222.03c-.59-6.18-3.33-12.02-7.42-16.66-1.36-1.54-2.96-2.77-4.53-4.09-4.78-4.01-9.56-8.02-14.33-12.04-13.75-11.58-27.49-23.2-41.08-34.98-5.98-5.19-11.72-11.13-18.43-15.37-8.31-5.26-17.96-8.27-27.6-9.92-7.88-1.35-15.72-1.57-23.66-1.57h-74.4c-14.04,0-28.37,3.1-41.01,9.29-14.37,6.28-26.86,16.38-34.76,30.32-6.69,11.81-10.03,25.36-10,38.9.06,22.54-.4,45.1,0,67.63.14,8.09,4.55,15.56,12.06,18.93,5.21,2.34,11.16,1.94,16.73,2.4,6.47.53,12.92,1.29,19.33,2.38,15.53,2.63,31.9,6.91,44.78,16.39,3.15,2.32,6.12,5.04,8.47,8.19.05.07.11.12.16.18.04.06.07.13.12.19,7.43,9.46,18.6,7.95,29.19,7.93,14.34-.03,28.68-.07,43.02-.1,10.07-.02,20.15.02,30.22-.07,5.05-.04,9.97-1.24,14.3-3.6,3.86-1.5,7.39-3.81,10.3-6.96,4.4-4.76,8.35-10.07,12.3-15.31,1.22-.02,2.41-.55,3.24-1.54,1.3,0,2.6-.56,3.45-1.67l10.9-14.19c1.18-1.53,1.16-3.62.11-5.13,4.94-6.18,9.93-12.33,15.02-18.4,1.54.35,3.21-.16,4.28-1.43,1.31,0,2.6-.56,3.46-1.67l10.9-14.19c1.23-1.59,1.16-3.79-.03-5.31,3.42-5.55,5.57-11.7,4.92-18.52ZM317.17,279.74c-1.3,0-2.6.57-3.45,1.68l-10.9,14.19c-1.42,1.84-1.1,4.49.67,5.97-3.83,4.85-7.66,9.71-11.49,14.56-2.33,2.95-5.04,5.28-8.06,6.96-2.93,1.11-6.11,1.69-9.5,1.71-3.54.02-7.08.02-10.62.03-24.51.06-49.02.11-73.53.17-6.18.01-11.45-1.83-15.42-6.9,0,0-.01-.01-.02-.02-5.87-7.66-14.33-12.94-23.08-16.77-18.22-7.99-38.52-10.79-58.21-12.01-5.96-.37-11.25-1.33-15.3-6.15-2.64-3.14-3.9-7-3.97-11.06-.06-3.36,0-6.73,0-10.09v-41.19c0-12.34-.65-24.42,2.59-36.46,2.88-10.73,8.09-20.85,15.63-29.06,5.83-6.35,12.82-11.28,20.43-14.99,5.49-2.37,11.25-4.15,17.13-5.4,10.73-2.28,21.05-2.33,31.89-2.33h41.92c21.67,0,44.57-1.81,64.61,8.11,7.54,3.73,13.42,9.48,19.69,14.95,6.49,5.66,13.02,11.26,19.58,16.84,12,10.23,24.06,20.4,36.14,30.53,5.85,4.91,10.97,9.18,13.07,17.04,1.67,6.24.46,12.06-2.19,17.38-1.41-.16-2.86.36-3.82,1.51-1.3,0-2.6.57-3.45,1.68l-10.9,14.19c-1.28,1.66-1.15,3.98.19,5.5-2.53,3.03-5.05,6.08-7.55,9.13-2.45,2.99-4.88,6-7.31,9.02-1.66-.58-3.56-.1-4.74,1.3ZM360.49,219.45c-.66-2.61-1.69-5.11-3.04-7.44,1.19,1.89,2.15,4.01,2.81,6.48.09.32.15.64.23.96ZM71.22,276.61c.68,3,1.98,5.8,3.82,8.21-.04-.05-.08-.09-.12-.14-1.98-2.36-3.18-5.12-3.69-8.07Z"/>
    </g>
    <g>
      <path class="st6" d="M160.4,258.29h-33.53c-1.32,0-2.5.6-3.3,1.54h-.03c-2.38,0-4.33,1.95-4.33,4.33v2.5c0,2.38,1.95,4.33,4.33,4.33h33.53c1.32,0,2.5-.6,3.3-1.54h.03c2.38,0,4.33-1.95,4.33-4.33v-2.5c0-2.38-1.95-4.33-4.33-4.33Z"/>
      <path class="st6" d="M372.41,218.42c-.59-6.18-3.33-12.02-7.42-16.66-1.36-1.54-2.96-2.77-4.53-4.09-4.78-4.01-9.56-8.02-14.33-12.04-13.75-11.58-27.49-23.2-41.08-34.98-5.98-5.19-11.72-11.13-18.43-15.37-8.31-5.26-17.96-8.27-27.6-9.92-7.88-1.35-15.72-1.57-23.66-1.57h-74.4c-14.04,0-28.37,3.1-41.01,9.29-14.37,6.28-26.86,16.38-34.76,30.32-6.69,11.81-10.03,25.36-10,38.9.06,22.54-.4,45.1,0,67.63.14,8.09,4.55,15.56,12.06,18.93,5.21,2.34,11.16,1.94,16.73,2.4,6.47.53,12.92,1.29,19.33,2.38,15.53,2.63,31.9,6.91,44.78,16.39,3.15,2.32,6.12,5.04,8.47,8.19.05.07.11.12.16.18.04.06.07.13.12.19,7.43,9.46,18.6,7.95,29.19,7.93,14.34-.03,28.68-.07,43.02-.1,10.07-.02,20.15.02,30.22-.07,5.05-.04,9.97-1.24,14.3-3.6,3.86-1.5,7.39-3.81,10.3-6.96,4.4-4.76,8.35-10.07,12.3-15.31,1.22-.02,2.41-.55,3.24-1.54,1.3,0,2.6-.56,3.45-1.67l10.9-14.19c1.18-1.53,1.16-3.62.11-5.13,4.94-6.18,9.93-12.33,15.02-18.4,1.54.35,3.21-.16,4.28-1.43,1.31,0,2.6-.56,3.46-1.67l10.9-14.19c1.23-1.59,1.16-3.79-.03-5.31,3.42-5.54,5.57-11.69,4.93-18.52ZM325.04,276.13c-1.3,0-2.6.57-3.45,1.68l-10.9,14.19c-1.42,1.84-1.1,4.49.67,5.97-3.83,4.85-7.66,9.71-11.49,14.56-2.33,2.95-5.04,5.28-8.06,6.96-2.93,1.11-6.11,1.69-9.49,1.71-3.54.02-7.08.02-10.62.03-24.51.06-49.02.11-73.53.17-6.18.01-11.45-1.83-15.42-6.9,0,0-.01-.01-.02-.02-5.87-7.66-14.33-12.94-23.08-16.77-18.22-7.99-38.52-10.79-58.21-12.01-5.96-.37-11.25-1.33-15.3-6.15-2.64-3.14-3.9-7-3.97-11.06-.06-3.36,0-6.73,0-10.09v-41.19c0-12.34-.65-24.42,2.59-36.46,2.88-10.73,8.09-20.85,15.63-29.06,5.83-6.35,12.82-11.28,20.43-14.99,5.49-2.37,11.25-4.15,17.13-5.4,10.73-2.28,21.05-2.33,31.89-2.33h41.92c21.67,0,44.57-1.81,64.61,8.11,7.54,3.73,13.42,9.48,19.69,14.95,6.49,5.66,13.02,11.26,19.58,16.84,12,10.23,24.06,20.4,36.14,30.53,5.85,4.91,10.97,9.18,13.07,17.04,1.67,6.24.46,12.06-2.19,17.38-1.41-.16-2.86.36-3.82,1.51-1.3,0-2.6.57-3.45,1.68l-10.9,14.19c-1.28,1.66-1.15,3.98.19,5.5-2.53,3.03-5.05,6.08-7.55,9.13-2.45,2.99-4.88,6-7.31,9.02-1.66-.58-3.57-.1-4.75,1.3ZM368.36,215.84c-.66-2.61-1.69-5.11-3.04-7.44,1.19,1.89,2.15,4.01,2.81,6.48.09.32.16.64.23.96ZM79.09,273.01c.68,3,1.98,5.8,3.82,8.21-.04-.05-.08-.09-.12-.14-1.98-2.36-3.18-5.12-3.69-8.07Z"/>
    </g>
    <path class="st7" d="M314.38,224.94c1.22.01,2.5.04,3.79.07,1.82-.33,3.64-.7,5.44-1.16,1.52-.39,3.02-.82,4.5-1.33.66-.23,1.31-.48,1.96-.72.02,0,.04-.01.06-.02.07-.04.15-.08.25-.14,1.29-.69,2.56-1.35,3.79-2.13.16-.1.3-.2.42-.28.48-.43.96-.85,1.41-1.31.09-.1.4-.47.64-.76.2-.31.44-.68.5-.79.05-.08.48-1.02.6-1.24.13-.45.32-1.11.43-1.42,0-.23.01-.58.03-.9-.08-.18-.22-.72-.33-1.13-.13-.21-.4-.7-.59-.99-.35-.53-.69-1.06-1.05-1.58-.06-.03-1.18-1.48-1.18-1.48-.54-.65-1.09-1.28-1.63-1.93-1.53-1.81-2.98-3.68-4.43-5.56-.69-.91-1.1-1.93-1.3-3.01-2.84-2.14-5.69-4.28-8.53-6.42-7.91-5.94-15.81-11.88-23.68-17.86-10.94-8.31-21.52-17.88-34.2-23.81-12.32-5.77-25.68-7.08-39.27-7.08h-46.62c-7.66,0-15.37-.31-22.97.72-14.18,1.93-27.59,8.68-37.33,18.6-10,10.19-16.01,23.28-17.15,37.13-.38,4.6-.91,10.42.53,14.89,2.17,6.73,8.67,10.9,15.93,11.14,16.36.54,32.84,0,49.22,0h146.05l4.71.49ZM307.78,211.56c-1.13.36-2.48.24-3.67.24H125.88c-5.01,0-12.51,1.1-12.98-5.59-.66-9.6,1.14-19.4,6.08-27.85,5.76-9.86,15.28-17.73,26.55-21.5,8.84-2.95,17.74-2.75,26.95-2.75h40.13c8.3,0,16.62-.11,24.75,1.72,10.66,2.39,19.43,8.17,27.84,14.58,13.11,9.99,26.23,19.97,39.4,29.89,1.38,1.04,2.76,2.08,4.15,3.12,2.81,2.28,3.15,6.82-.97,8.14Z"/>
    <g>
      <path class="st5" d="M244.61,139.93l-14.41-.66c-.55.33-1.13.6-1.75.8-1.38.73-2.87,1.06-4.47,1h-.57c-1.74,0-3.37-.38-4.91-1.1l-44.89,84.42,33.07.29,39.52-81.94c-.66-.86-1.19-1.81-1.58-2.82Z"/>
      <path class="st5" d="M114.32,227.77c.08.36.16.71.25,1.05l48.92-84.32-19.96-1.79-30.75,81.34c.7,1.14,1.24,2.38,1.54,3.73Z"/>
      <path class="st5" d="M278.55,161.03l-38.48,63.83,12.37,1.19,27.87-61.73c-.57-1.1-1.15-2.2-1.75-3.29Z"/>
      <path class="st5" d="M288.52,224.68l24.27-40.26-7.8-.75-17.57,38.93c.36.7.73,1.39,1.1,2.07Z"/>
      <path class="st5" d="M282.58,164.63l-5.94,64.48,10.53-4.42-1.85-58.34c-.9-.58-1.81-1.15-2.73-1.72Z"/>
      <path class="st5" d="M200.91,143.21l-53.63,83.48,11.87-.29s49.36-82.05,49.36-82.91l-7.6-.29Z"/>
    </g>
    <path class="st5" d="M49.61,257.06c-2.76,0-2.58,4.29.18,4.29s2.58-4.29-.18-4.29Z"/>
    <path class="st5" d="M46.65,266.9c-.19,1.99-.53,3.97-.72,5.99-.2,2.1-.2,4.52-1,6.46-1.05,2.53,2.73,4.6,3.78,2.04.91-2.21.99-4.29,1.25-6.64.26-2.31.66-4.6.88-6.89.26-2.71-3.92-3.71-4.19-.97Z"/>
    <path class="st5" d="M444.58,219.06c-2.76,0-2.58,4.29.18,4.29s2.58-4.29-.18-4.29Z"/>
    <path class="st5" d="M457.21,234.07c-1.42-1.26-1.71-3.39-2.81-4.91-1.16-1.59-2.52-3.34-3.92-4.72-1.98-1.94-4.92,1.19-2.95,3.13.74.73,1.24,1.65,1.92,2.43.68.79,1.41,1.45,1.9,2.38.91,1.72,1.41,3.47,2.91,4.8,2.07,1.84,5.01-1.28,2.95-3.12Z"/>
  </g>
  <g>
    <path class="st9" d="M146.03,335.34c-18.51-6.96-40.51-1-53.05,14.25-12.77,15.52-14.81,37.87-4.38,55.21,10.39,17.29,30.71,26.08,50.44,22.34,22.27-4.22,38.18-24.53,38.44-46.89-.24-20.05-12.65-37.86-31.44-44.92ZM142.25,415.07c-14.9,5.23-31.72.6-41.62-11.8-9.65-12.09-10.53-29.39-2.45-42.5,8.01-13,23.94-19.97,38.93-16.77,17.15,3.67,29.33,18.78,29.53,36.26-.18,15.33-9.73,29.67-24.4,34.81Z"/>
    <path class="st9" d="M138.49,358.39c-8.54-3.25-18.64-.54-24.49,6.45-5.92,7.07-6.9,17.37-2.21,25.37,4.68,8,13.98,12.11,23.05,10.55,10.32-1.78,17.48-10.87,18.03-21.05.02-.2.04-.41.03-.63,0-.28-.01-.53-.05-.78-.53-8.91-5.9-16.68-14.36-19.9ZM130.84,393.01c-7.61,0-13.94-6.33-13.94-13.94s6.33-13.94,13.94-13.94,13.74,6.33,13.94,13.94c-.21,7.61-6.18,13.94-13.94,13.94Z"/>
    <path class="st9" d="M392.48,335.34c-18.51-6.96-40.51-1-53.05,14.25-12.77,15.52-14.81,37.87-4.38,55.21,10.39,17.29,30.71,26.08,50.44,22.34,22.27-4.22,38.18-24.53,38.44-46.89-.24-20.05-12.65-37.86-31.44-44.92ZM388.7,415.07c-14.9,5.23-31.72.6-41.62-11.8-9.65-12.09-10.53-29.39-2.45-42.5,8.01-13,23.94-19.97,38.93-16.77,17.15,3.67,29.33,18.78,29.53,36.26-.18,15.33-9.73,29.67-24.39,34.81Z"/>
    <path class="st9" d="M384.94,358.39c-8.54-3.25-18.64-.54-24.49,6.45-5.92,7.07-6.9,17.37-2.22,25.37,4.68,8,13.98,12.11,23.05,10.55,10.32-1.78,17.48-10.87,18.03-21.05.02-.2.04-.41.03-.63,0-.28-.01-.53-.05-.78-.53-8.91-5.9-16.68-14.36-19.9ZM377.29,393.01c-7.61,0-13.94-6.33-13.94-13.94s6.33-13.94,13.94-13.94,13.74,6.33,13.94,13.94c-.2,7.61-6.18,13.94-13.94,13.94Z"/>
    <path class="st9" d="M337.04,201.43c-.13-.14-.26-.27-.41-.39-12.34-9.83-24.71-19.61-37.01-29.49-11.71-9.4-23.03-20.22-36.6-26.94-13.19-6.52-27.48-8.01-42.02-8.01h-49.89c-8.2,0-16.45-.35-24.58.82-15.17,2.18-29.52,9.82-39.95,21.04-10.71,11.52-17.13,26.34-18.35,42-.41,5.21-.97,11.78.57,16.84,2.32,7.61,9.27,12.33,17.05,12.6,17.51.61,35.15,0,52.67,0h163.12c1.41,0,2.83.05,4.24,0,6.52-.21,12.34-3.64,15-9.71,2.84-6.48,1.38-13.98-3.84-18.78ZM327.83,218.81c-1.33.45-2.91.29-4.31.29H114.11c-5.89,0-14.7,1.36-15.25-6.95-.78-11.92,1.34-24.1,7.15-34.59,6.77-12.25,17.95-22.02,31.19-26.7,10.39-3.67,20.84-3.41,31.67-3.41h47.15c9.75,0,19.53-.13,29.08,2.13,12.53,2.97,22.82,10.15,32.71,18.11,15.4,12.42,30.82,24.81,46.29,37.13,1.62,1.29,3.25,2.59,4.87,3.88,3.29,2.82,3.69,8.47-1.14,10.11Z"/>
    <path class="st9" d="M155.35,261.07h-33.53c-2.38,0-4.33,1.95-4.33,4.33v2.5c0,2.38,1.95,4.33,4.33,4.33h33.53c2.38,0,4.33-1.95,4.33-4.33v-2.5c0-2.38-1.95-4.33-4.33-4.33Z"/>
    <path class="st9" d="M484.71,280.76c0-.22-.01-.44-.03-.64-.17-4.15-1.5-8.54-2.62-12.56l.28-.29s-1.53-25.94-14.75-47.31l-.05.41c-9.85-15.47-25.59-27.87-40.07-37.77-23.16-15.84-48.57-27.75-73.35-40.75-4.84-2.54-9.68-5.12-14.31-8.03-.97-.61-1.93-1.23-2.87-1.88-.42-.29-2.04-1.52-1.79-1.3-.7-.57-1.37-1.17-2-1.8-.22-.42-.5-.8-.83-1.14-4.24-7.56-11.15-13.42-19.06-16.89-4.79-2.1-9.71-3.38-14.9-3.98-3.14-.36-8.51-1.38-12.35-.43-14.56.02-29.15.57-43.71.85-28.9.56-57.81,1.12-86.72,1.67-17.99.35-35.99.69-53.98,1.04-.66-.15-1.36-.15-2.09.04-.04,0-.09,0-.13,0H30.89c-6.3,0-7.08,8.68-1.44,10.63.6.21,1.19.44,1.78.67.29.11.57.23.86.35.06.03.13.06.21.1.89.41,1.79.81,2.67,1.23,4.42,2.14,9.15,4.9,12.74,7.72,4.59,3.61,8.69,7.87,10.99,13.24,1.96,4.57,1.98,9.45.75,14.28-6.31,15.37-11.58,31.21-15.92,47.24-1.76,6.51-3.38,13.08-4.65,19.71-.56,2.94-1.03,5.89-1.39,8.86-.12,1.01-.24,2.02-.31,3.04-.05.67-.18,2.61-.06,2-.18,1.23-.41,2.45-.64,3.67-1.28.7-2.34,1.85-2.54,3.23-1.29,8.69-2.58,17.38-3.86,26.07-1.17,7.91-2.62,15.78-2.62,23.79v31.45c0,2.83.04,5.63.17,8.4h-1.04c.39,2.19.9,4.35,1.57,6.49.79,6.55,2.43,12.91,5.86,19.03,4.46,7.95,11.3,14.56,19.76,18.06,6.24,2.58,12.6,2.56,19.21,2.56,2.95,0,5.38-2.48,5.41-5.41.24-21.01,13.37-40.67,33.34-47.91,20.41-7.39,43.25-1.3,57.28,15.24,4.3,5.06,7.44,10.94,9.4,17.2.18,1.71.3,3.43.32,5.15.02,1.54.66,2.96,1.69,4.01.27,2.09.42,4.2.45,6.31.03,2.93,2.45,5.41,5.41,5.41h133.16c2.95,0,5.38-2.48,5.41-5.41.24-21.01,13.37-40.67,33.34-47.91,20.41-7.39,43.25-1.3,57.28,15.24,4.3,5.06,7.44,10.94,9.4,17.2.44,1.96,1.02,3.45,1.48,5.11.48,1.74.3,2.59.52,4.05.27,2.09.42,4.2.45,6.31.03,2.93,2.45,5.41,5.41,5.41,7.34,0,15.24.76,22.36-1.35,12.13-3.6,21.11-13.55,25.8-25.01,3.25-7.96,3.84-16.23,3.84-24.71v-24.72c0-8.43-.02-16.86-.03-25.28ZM32.02,121.63c-.34-.15-.34-.15,0,0h0ZM326.69,137.73c1.42,1.22,2.97,2.27,4.13,3.09,3.54,2.51,7.33,4.67,11.13,6.77,10.76,5.94,21.83,11.31,32.75,16.95,22.01,11.37,44.8,23.41,63.69,39.79-13.72.58-27.44,1.16-41.16,1.74-24.52-20.83-49.03-41.66-73.55-62.48-1.32-1.12-2.63-2.23-3.95-3.35,2.32-.84,4.64-1.67,6.95-2.5ZM48.21,234.91c.02-.16.12-.92.15-1.16.06-.42.12-.84.19-1.27.22-1.38.46-2.76.72-4.14.58-3.08,1.25-6.14,1.96-9.19,3.62-15.43,8.34-30.64,13.8-45.52.84-2.28,1.69-4.57,2.57-6.85.43-.55.79-1.18,1.06-1.85,1.91-4.77,3.82-9.54,5.73-14.32,2.89-6.21,6.1-12.26,9.8-17.99.06-.09.11-.18.18-.27,5.94-3.85,11.89-7.7,17.83-11.54,15.8-.18,31.6-.65,47.4-.95,28.79-.56,57.57-1.11,86.36-1.67,16.75-.32,33.67,0,50.4-.97.16,0,.31-.02.47-.04-.02.01-.05.02-.07.03,12.09-.75,25.15,2.31,33.08,11.51-4.05,1.46-8.09,2.91-12.13,4.37-3.5,1.26-5.74,6.2-2.39,9.05,17.9,15.21,35.8,30.41,53.7,45.62,9.56,8.13,19.13,16.25,28.7,24.38,2.16,1.83,4.71,4.7,7.67,4.83,4.17.2,8.5-.36,12.67-.54,13.72-.58,27.43-1.16,41.15-1.74,7.37,7.95,13.39,16.95,16.09,27.31h-46.87c-7.9-.55-15.7-.14-23.6,0h-31.48c-.08-.82-.38-1.62-.9-2.28,3.42-5.54,5.57-11.69,4.92-18.52-.59-6.18-3.33-12.02-7.42-16.66-1.36-1.54-2.96-2.77-4.53-4.09-4.78-4.01-9.56-8.02-14.33-12.04-13.75-11.58-27.49-23.2-41.07-34.98-5.98-5.19-11.72-11.13-18.43-15.37-8.31-5.26-17.96-8.27-27.6-9.92-7.88-1.35-15.72-1.57-23.66-1.57h-74.4c-28.43,0-58.06,12.68-72.44,38.07-6.69,11.81-10.03,25.36-10,38.9.03,12.79-.1,25.6-.15,38.39-8.17-.09-16.36-.24-24.52-.14-.47,0-.94,0-1.41,0,.3-2.28.57-4.57.81-6.89ZM309.63,299.21c-3.83,4.85-7.66,9.71-11.49,14.56-5.26,6.65-12.42,10.15-20.89,10.21-3.54.02-7.08.02-10.62.03-24.51.06-49.02.11-73.53.17-6.18.01-11.45-1.83-15.42-6.9,0,0-.01-.01-.02-.02-5.87-7.66-14.33-12.94-23.08-16.77-18.22-7.99-38.52-10.79-58.21-12.01-5.96-.37-11.25-1.33-15.3-6.15-2.64-3.14-3.9-7-3.97-11.06-.06-3.36,0-6.73,0-10.09v-8.34h265.37c-.97,1.62-.77,3.69.46,5.09-2.53,3.03-5.05,6.08-7.55,9.13-3.09,3.77-6.16,7.57-9.22,11.37l-.21-.16c-1.89-1.45-4.62-1.09-6.07.8l-10.9,14.19c-1.42,1.84-1.11,4.49.67,5.97ZM325.43,242.01H82.83c-1.92,0-3.83-.01-5.75-.03v-22c0-12.34-.65-24.42,2.58-36.46,2.88-10.73,8.09-20.85,15.63-29.06,10.78-11.73,25.46-18.65,40.89-21.92,10.73-2.28,21.05-2.33,31.89-2.33h41.92c21.67,0,44.57-1.81,64.61,8.11,7.54,3.73,13.42,9.48,19.69,14.95,6.49,5.66,13.02,11.26,19.58,16.84,12,10.23,24.06,20.4,36.14,30.53,5.85,4.91,10.97,9.18,13.07,17.04,1.92,7.17.04,13.79-3.47,19.72-1.88-1.39-4.56-1.02-6,.85l-2.9,3.77c-8.43,0-16.86,0-25.29,0ZM473.97,335.69h-51.39c-6.71-7.66-15.3-13.74-25.25-17.45-23.61-8.81-51.47-1.56-67.9,17.45h-153.3c-6.71-7.66-15.3-13.74-25.25-17.45-23.61-8.81-51.47-1.56-67.9,17.45h-44.54c-.14-2.96-.14-5.96-.14-8.99v-30.09c0-6.7.96-13.14,1.94-19.75,1.19-8.01,2.37-16.02,3.56-24.04h29.52c.01,6.12.05,12.23.16,18.35.14,8.09,4.55,15.56,12.06,18.93,5.21,2.34,11.16,1.94,16.73,2.4,6.47.53,12.92,1.29,19.33,2.38,15.53,2.63,31.9,6.91,44.78,16.39,3.15,2.32,6.12,5.04,8.47,8.19.05.07.11.12.16.18.04.06.07.13.12.19,7.43,9.46,18.6,7.95,29.19,7.93,14.34-.03,28.68-.07,43.02-.1,10.07-.02,20.14.01,30.22-.07,8.04-.07,15.76-3.06,21.27-9.03,4.94-5.34,9.31-11.37,13.74-17.23,1.79.82,3.99.34,5.24-1.29l10.9-14.19c1.18-1.53,1.16-3.62.11-5.13,5.54-6.93,11.13-13.82,16.85-20.59,1.88,1.3,4.49.92,5.9-.91l4.89-6.37c11.72.09,23.49.4,35.19.05,28,.84,78.78,5.05,81.53,24.52.27,1.91.5,3.53.71,4.92,0,14.38.03,28.75.03,43.12,0,3.35.13,6.8.05,10.22Z"/>
    <path class="st9" d="M452.04,265.67c-6.17-2.35-20.6-5.39-23.75,3.25-2.81,7.7,7.8,13.95,13.42,16.26,6.4,2.64,21.02,6.12,24.76-2.57.08-.14.15-.28.19-.45,2.25-8.21-8.47-14.15-14.62-16.5Z"/>
  </g>
</svg>