<?xml version="1.0" encoding="UTF-8"?>
<svg id="Layer_1" xmlns="http://www.w3.org/2000/svg" version="1.1" viewBox="0 0 512 512">
  <!-- Generator: Adobe Illustrator 29.1.0, SVG Export Plug-In . SVG Version: 2.1.0 Build 142)  -->
  <defs>
    <style>
      .st0 {
        fill: #c18500;
      }

      .st1 {
        fill: #a32430;
      }

      .st2 {
        fill: #929496;
      }

      .st3 {
        fill: #d39a1a;
        opacity: .1;
      }

      .st3, .st4 {
        isolation: isolate;
      }

      .st5 {
        fill: #fff;
      }

      .st6 {
        fill: #f1f1f2;
      }

      .st7 {
        fill: #808183;
      }

      .st4 {
        opacity: .6;
      }

      .st4, .st8 {
        fill: #434244;
      }

      .st9 {
        fill: #eab42d;
      }

      .st10 {
        fill: #272525;
      }

      .st11 {
        fill: #d0d1d3;
      }
    </style>
  </defs>
  <g>
    <path class="st9" d="M511.84,251.24c-.75-20.56-17.63-36.9-37.71-37.16h-108.04c-.63-.45-1.4-.74-2.33-.8-.31-.02-.63-.05-.94-.08-.37-.04-.74-.08-1.11-.12-.18-.02-.37-.05-.55-.07-.01,0-.02,0-.04,0-.02,0-.03,0-.05,0-3.01-.46-6-1.06-8.96-1.84-7.67-2.05-15.44-5.29-21.18-11.02-3.62-3.61-5.44-7.98-7.67-12.53-2.72-5.57-5.77-10.98-9.2-16.13-5.69-8.57-12.36-16.54-20.12-23.25-16.36-14.14-37.25-22.87-58.86-22.16-10.9.36-21.86,0-32.77,0s-20.91.64-31.34.98c-6.9.23-13.66.29-20.49,1.35-12.66,1.97-25.4,6.18-36.21,13.27-13.71,8.99-23.82,23.11-25.97,39.8t0,0c-.05.32-.09.65-.14.97-.19,1.14-.39,2.27-.62,3.4-.6,2.88-1.36,5.72-2.3,8.49-2.04,5.99-5.38,12.63-10.71,16.38-3.01,2.12-6.35,3.1-10.01,3.15-.51,0-.97.09-1.38.22h-23.43c-7.09,0-13.98,1.31-20.26,4.87-7.99,4.53-14.04,11.98-17.2,20.68C.31,244.97.04,250.51.04,256.12c0,10.41-.09,20.83,0,31.24.04,4.98,1.03,9.83,2.81,14.33,2.55,16.11,16.35,28.52,32.86,28.52h14.12s.38-3.15,1.06-7.07c.05-.15.09-.31.12-.47,3.02-18.78,15.75-34.92,33.68-40.93,18.15-6.08,38.42-1.1,51.76,12.84,7.19,7.52,11.71,17.01,13.51,27.29l.91,8.34h5.24l178.78.16,1.44-7.31c.04-.13.07-.25.09-.38.04-.26.09-.51.14-.77l.43-2.21c3.82-17.49,16.14-32.27,33.11-37.96,18.15-6.08,38.42-1.1,51.76,12.84,1.88,1.96,3.57,4.07,5.09,6.28h-.38c.51.55,1,1.11,1.49,1.68,3.8,6.07,6.3,12.91,7.46,20.12.31,1.93,2.48,3.32,4.28,3.32h.07c.32,1.39.6,2.79.81,4.22h34.34c14.63,0,27.13-9.74,31.56-23.16,2.83-4.9,4.58-10.39,5.13-16.13.35-3.71.16-7.51.16-11.23,0-9.47.32-18.99-.03-28.45ZM246.56,135.55c-.13-.02-.12-.02,0,0h0Z"/>
    <path class="st0" d="M397.6,269.98c-.66-.34-1.33-.66-2.01-.97l.35-.15c-2.23-1.45-4.59-2.74-7.06-3.82-17.57-7.68-38.17-4.38-52.65,8.31-4.64,4.07-8.37,8.92-11.15,14.24l-168.97-.15h-3.6c-6.76,1.2-13.56,2.11-20.39,2.76,1.51,1.24,2.96,2.59,4.34,4.02,7.19,7.51,11.71,17.01,13.51,27.28l.91,8.34h5.24l178.78.16,1.44-7.31c.04-.13.07-.25.09-.38.04-.26.09-.51.14-.77l.43-2.21c2.81-12.87,10.22-24.26,20.7-31.65-2.54-.09-5.08-.17-7.62-.23,5.01-4.71,11.45-8.16,17.38-10.07,4.97-1.6,10.34-2.68,15.53-1.87,7.46-1.09,15.41-.98,22.49,1.4-2.39-2.57-5.01-4.9-7.86-6.93Z"/>
    <path class="st0" d="M113.05,269.98c-.66-.34-1.33-.66-2.01-.97l.35-.15c-2.23-1.45-4.59-2.74-7.06-3.82-17.57-7.68-38.17-4.38-52.65,8.31-4.6,4.03-8.31,8.83-11.08,14.09h-4.9c-16.52,0-30.31-12.41-32.86-28.52-1.29-3.25-2.16-6.7-2.55-10.24-.2,2.34-.25,4.71-.25,7.08,0,10.41-.09,20.83,0,31.24.04,4.98,1.03,9.84,2.81,14.33,2.55,16.11,16.35,28.52,32.86,28.52h14.12s.38-3.15,1.06-7.07c.05-.15.09-.31.12-.47,2.01-12.53,8.36-23.89,17.69-31.85-2.04-.12-4.08-.23-6.13-.33.5-.44,1.01-.87,1.53-1.29,5.17-5.42,12.28-9.36,18.78-11.45,4.97-1.6,10.34-2.68,15.53-1.87,7.46-1.09,15.41-.98,22.49,1.4-2.39-2.58-5.01-4.91-7.86-6.94Z"/>
    <path class="st0" d="M511.25,250.88c-.03-.82-.09-1.62-.17-2.43-.58,5.62-2.31,11.01-5.09,15.82-4.44,13.42-16.93,23.16-31.56,23.16h-30.23c-9.6.5-19.2,1.17-28.8,1.55,2.07,1.57,4.04,3.32,5.88,5.23,1.88,1.96,3.57,4.07,5.09,6.28h-.38c.51.55,1,1.11,1.49,1.68,3.8,6.07,6.3,12.91,7.46,20.12.31,1.93,2.48,3.32,4.28,3.32h.07c.32,1.39.6,2.79.81,4.22h34.34c14.63,0,27.13-9.74,31.56-23.16,2.83-4.9,4.58-10.39,5.13-16.13.35-3.71.16-7.51.16-11.23,0-9.47.32-18.99-.03-28.45Z"/>
    <path class="st0" d="M51.01,239.16c.05-2.75.06-5.49.05-8.24,0-.86-.68-1.45-1.48-1.51-11.4-.83-34.46.26-34.78,16.2-.02.81.69,1.51,1.48,1.51h32.86c.45,0,.79-.17,1.03-.43,0,0,.01,0,.02-.01,1.46-1.17.81-5.95.83-7.52Z"/>
    <path class="st1" d="M53.08,237.93c.05-2.75.06-5.49.05-8.24,0-.86-.68-1.45-1.48-1.51-11.4-.83-34.46.26-34.78,16.2-.02.81.69,1.51,1.48,1.51h32.86c.45,0,.79-.17,1.03-.43,0,0,.01,0,.02-.01,1.45-1.17.8-5.95.83-7.52Z"/>
    <path class="st0" d="M277.07,191.54c-.11-.12-.22-.23-.35-.33-8.26-6.7-16.54-13.35-24.76-20.09-7.75-6.35-15.28-13.66-24.3-18.14-8.88-4.41-18.47-5.4-28.24-5.4h-32.91c-5.38,0-10.78-.23-16.12.55-10.25,1.49-19.95,6.69-27,14.41-7.26,7.95-11.57,18.14-12.4,28.94-.26,3.43-.58,7.63.27,10.99,1.46,5.77,6.49,9.44,12.22,9.68,11.47.47,23.06,0,34.54,0h108.63c5.81,0,11.3-1.83,13.45-8,1.55-4.44.3-9.39-3.03-12.59Z"/>
    <g>
      <g>
        <path class="st3" d="M94.84,221.83l-25.02,61.48,8.55-3,23.91-57.95c-2.48-.09-4.97-.26-7.44-.53Z"/>
        <path class="st3" d="M124.84,221.74c-3.04.19-6.08.37-9.12.51l-21.14,53.63h35.21l21.64-55.08c-8.87.09-17.71.38-26.59.94Z"/>
        <path class="st3" d="M185.87,221.18c-.14,0-.28-.01-.43-.02l-35.35,89.46,7.69.9,36.49-86.24-.34-4.22c-2.65.26-5.37.25-8.07.12Z"/>
        <path class="st3" d="M50.37,219.98c-.14,0-.28-.01-.43-.02l-35.35,89.46,7.69.9,36.49-86.24-.34-4.22c-2.65.26-5.37.25-8.07.12Z"/>
      </g>
      <g>
        <polygon class="st3" points="226.79 205.37 183.91 314.19 188.91 318.01 234.77 205.07 226.79 205.37"/>
        <polygon class="st3" points="247.29 202.69 202.61 316.24 237.82 316.24 281.9 203.9 247.29 202.69"/>
        <polygon class="st3" points="274.75 317.11 282.44 318.01 335.1 209.33 326.15 203.86 274.75 317.11"/>
        <polygon class="st3" points="370.86 217.55 347.53 282.59 394.88 273.84 417.7 223.79 370.86 217.55"/>
      </g>
    </g>
    <g>
      <path class="st8" d="M48.16,320.86s54.71-47.01,102.76.05c0,0-2.47-44.08-51.82-44.08-49.22,0-50.94,44.04-50.94,44.04Z"/>
      <g>
        <path class="st2" d="M140.98,321.04c-3.76-20.23-21.86-34.67-41.79-34.91-17.85.21-33.78,11.49-40.03,28.56-6.17,16.83-.91,36.77,12.7,48.18,13.83,11.6,33.75,13.45,49.21,3.98,15.41-9.43,23.24-27.9,19.91-45.81Z"/>
        <path class="st11" d="M126.99,323.11c-2.38-12.81-13.84-21.96-26.46-22.11-11.3.14-21.39,7.27-25.35,18.08-3.91,10.66-.58,23.29,8.04,30.51,8.76,7.34,21.37,8.52,31.16,2.52,9.76-5.97,14.72-17.66,12.61-29.01Z"/>
        <path class="st2" d="M118.53,324.8c-1.61-8.64-9.34-14.81-17.85-14.91-7.62.09-14.43,4.91-17.1,12.2-2.64,7.19-.39,15.71,5.42,20.58,5.91,4.95,14.42,5.74,21.02,1.7,6.58-4.03,9.93-11.92,8.51-19.57Z"/>
        <path class="st5" d="M93,329.63c-.6-4.78,1.89-9.03,6.84-9.48.94-.08.95-1.59,0-1.51-5.69.52-9.04,5.29-8.32,10.98.12.95,1.6.96,1.48,0h0Z"/>
        <path class="st5" d="M102.6,320.27c1.04,0,1.04-1.65,0-1.65-1.04,0-1.04,1.65,0,1.65h0Z"/>
        <path class="st5" d="M130.29,330.31c1.04,0,1.04-1.65,0-1.65s-1.04,1.65,0,1.65h0Z"/>
        <path class="st5" d="M129.47,332.54c-1.82,14.79-13.84,26.15-28.12,27.85-1.02.12-1.03,1.77,0,1.65,15.41-1.83,27.81-13.78,29.74-29.49.13-1.05-1.49-1.04-1.62,0Z"/>
      </g>
      <path class="st4" d="M45.97,330.35s56.23-47.01,105.63.05c0,0-.82-53.69-51.56-53.69-50.6,0-54.08,53.64-54.08,53.64Z"/>
    </g>
    <g>
      <path class="st8" d="M335.1,320.86s54.71-47.01,102.76.05c0,0-2.47-44.08-51.82-44.08-49.22,0-50.94,44.04-50.94,44.04Z"/>
      <g>
        <path class="st2" d="M427.92,321.04c-3.76-20.23-21.86-34.67-41.79-34.91-17.85.21-33.78,11.49-40.03,28.56-6.17,16.83-.91,36.77,12.7,48.18,13.83,11.6,33.75,13.45,49.21,3.98,15.41-9.43,23.24-27.9,19.91-45.81Z"/>
        <path class="st11" d="M413.93,323.11c-2.38-12.81-13.84-21.96-26.46-22.11-11.3.14-21.39,7.27-25.35,18.08-3.91,10.66-.58,23.29,8.04,30.51,8.76,7.34,21.37,8.52,31.16,2.52,9.76-5.97,14.72-17.66,12.61-29.01Z"/>
        <path class="st2" d="M405.47,324.8c-1.61-8.64-9.34-14.81-17.85-14.91-7.62.09-14.43,4.91-17.1,12.2-2.64,7.19-.39,15.71,5.42,20.58,5.91,4.95,14.42,5.74,21.02,1.7,6.58-4.03,9.93-11.92,8.5-19.57Z"/>
        <path class="st5" d="M379.95,329.63c-.6-4.78,1.89-9.03,6.84-9.48.94-.08.95-1.59,0-1.51-5.69.52-9.04,5.29-8.32,10.98.12.95,1.6.96,1.48,0h0Z"/>
        <path class="st5" d="M389.54,320.27c1.04,0,1.04-1.65,0-1.65-1.04,0-1.04,1.65,0,1.65h0Z"/>
        <path class="st5" d="M417.23,330.31c1.04,0,1.04-1.65,0-1.65s-1.04,1.65,0,1.65h0Z"/>
        <path class="st5" d="M416.42,332.54c-1.82,14.79-13.84,26.15-28.12,27.85-1.02.12-1.03,1.77,0,1.65,15.41-1.83,27.81-13.78,29.74-29.49.13-1.05-1.49-1.04-1.62,0Z"/>
      </g>
      <path class="st4" d="M332.91,330.35s56.24-47.01,105.63.05c0,0-.82-53.69-51.56-53.69-50.6,0-54.08,53.64-54.08,53.64Z"/>
    </g>
    <g>
      <path class="st5" d="M214.42,146.98l-9.91-.46c-.38.23-.77.42-1.2.56-.95.51-1.98.74-3.08.7h-.39c-1.19,0-2.32-.26-3.38-.77l-30.89,59.14,22.76.2,27.19-57.4c-.46-.6-.82-1.27-1.09-1.98Z"/>
      <path class="st5" d="M127.06,209.39c.05.26.11.5.16.74l31.37-59.93-12.8-1.28-19.72,57.82c.45.81.79,1.69.99,2.65Z"/>
      <path class="st5" d="M236.97,159.67l-25.68,46.76,8.25.87,18.59-45.23c-.38-.81-.77-1.61-1.17-2.41Z"/>
      <path class="st5" d="M184.35,149.28l-36.91,58.48,8.17-.2s33.97-57.48,33.97-58.08l-5.23-.2Z"/>
    </g>
    <g>
      <path class="st5" d="M214.42,146.98l-9.91-.46c-.38.23-.77.42-1.2.56-.95.51-1.98.74-3.08.7h-.39c-1.19,0-2.32-.26-3.38-.77l-30.89,59.14,22.76.2,27.19-57.4c-.46-.6-.82-1.27-1.09-1.98Z"/>
      <path class="st5" d="M127.06,209.39c.05.26.11.5.16.74l31.37-59.93-12.8-1.28-19.72,57.82c.45.81.79,1.69.99,2.65Z"/>
      <path class="st5" d="M236.97,159.67l-25.68,46.76,8.25.87,18.59-45.23c-.38-.81-.77-1.61-1.17-2.41Z"/>
      <path class="st5" d="M184.35,149.28l-36.91,58.48,8.17-.2s33.97-57.48,33.97-58.08l-5.23-.2Z"/>
    </g>
    <g>
      <path class="st5" d="M214.42,146.98l-9.91-.46c-.38.23-.77.42-1.2.56-.95.51-1.98.74-3.08.7h-.39c-1.19,0-2.32-.26-3.38-.77l-30.89,59.14,22.76.2,27.19-57.4c-.46-.6-.82-1.27-1.09-1.98Z"/>
      <path class="st5" d="M127.06,209.39c.05.26.11.5.16.74l31.37-59.93-12.8-1.28-19.72,57.82c.45.81.79,1.69.99,2.65Z"/>
      <path class="st5" d="M236.97,159.67l-25.68,46.76,8.25.87,18.59-45.23c-.38-.81-.77-1.61-1.17-2.41Z"/>
      <path class="st5" d="M184.35,149.28l-36.91,58.48,8.17-.2s33.97-57.48,33.97-58.08l-5.23-.2Z"/>
    </g>
    <path class="st1" d="M492.83,247.28c-2.2,4.6-10.73,4.99-19.05.87-8.33-4.12-13.29-11.2-11.09-15.8,2.2-4.6,10.73-4.99,19.05-.87,8.32,4.12,13.29,11.2,11.09,15.8Z"/>
    <path class="st11" d="M276.33,140.4c-6.74,2.81-9.41,15.4-3.52,20.99l32.04,30.47c2.22,2.11,5.19,3.13,8.17,2.8l5.77-6.95-42.46-47.31Z"/>
    <g>
      <path class="st0" d="M162.1,242.74h-26.91c-1.95,0-3.55,1.63-3.55,3.61v4.03c0,1.99,1.6,3.61,3.55,3.61h26.91c1.95,0,3.55-1.63,3.55-3.61v-4.03c0-1.99-1.6-3.61-3.55-3.61Z"/>
      <path class="st0" d="M298.99,223.95c0-12.59-3.74-24.45-11.9-34.07-5.15-6.07-11.96-10.95-18.01-16.02-7.11-5.96-14.22-11.92-21.33-17.88-10.02-8.4-21.77-13.25-34.87-13.21-.77,0-1.54,0-2.31.01-.22,0-.43-.01-.65-.01-16.36.04-32.71.33-49.07.49-8.96.09-17.43.56-26.1,3.49-14.38,4.86-26.12,15.7-31.02,30.47-2.7,8.13-2.37,16.47-2.37,24.91v30.96c0,8.1-.84,16.35,5.27,22.7,5.65,5.87,13.95,5.76,21.12,8.47,6.82,2.58,13.11,6.59,18.31,11.79,3.92,3.92,7.16,8.44,9.77,13.36,4.92,8.94,13.75,12.35,23.35,12.3.74,0,1.47,0,2.21-.01.25,0,.5.02.75.01,7.09-.04,14.18-.08,21.28-.12,19.25-.11,38.5-.22,57.74-.33,1.96.02,3.95.07,5.94.04,3.57.04,7.2,0,10.62-.73,12.28-2.62,21.15-13.57,21.27-26.31.16-16.76,0-33.53,0-50.3ZM296.04,231.85c0-2.63-.01-5.27-.01-7.9,0-5.47-.71-10.79-2.17-15.86.27.83.52,1.67.74,2.54,1.77,6.89,1.51,14.13,1.44,21.22ZM179.68,298.72c-7.66-.07-14.57-3.98-18.33-10.82-5.5-10.37-13.93-18.94-24.36-24.14-3.29-1.64-6.74-2.97-10.27-3.97-3.99-1.13-8.34-1.36-11.94-3.61-4.86-3.04-7.47-8.24-7.5-13.97-.11-16.18,0-32.37,0-48.55,0-12.23,4-23.73,12.56-32.51,9.2-9.42,23.01-14.53,35.96-14.8,16.83-.35,33.67-.34,50.51-.51.23,0,.47,0,.7,0,8.36.08,16.46.88,24.29,4.66,7.5,3.62,13.67,9.52,20.03,14.84,7.19,6.03,14.38,12.06,21.58,18.08,8.75,7.33,15.81,15.76,18.74,27.21,1.94,7.59,1.43,15.59,1.43,23.37v29.87c0,7.64.82,15.61-3.22,22.46-5.06,8.59-13.95,11.81-23.32,11.87-16.71.1-33.42.19-50.14.29-10.62.06-21.25.25-31.88.26-1.61,0-3.22-.02-4.83-.03ZM104.56,188.58c-.17,2.23-.23,4.47-.25,6.72,0-.55,0-1.09,0-1.64,0-1.71.09-3.4.24-5.08ZM104.31,198.91c0,1.07,0,2.15,0,3.23v30.96c0,1.04-.01,2.08-.02,3.11-.05-12.43,0-24.87.01-37.3ZM104.31,240.65c.07,2.3.27,4.55.78,6.72-.5-1.63-.76-3.37-.78-5.16,0-.52,0-1.04,0-1.57ZM296.03,273.84c.02-2.2.02-4.4.04-6.6.04,2.2.07,4.41-.04,6.6Z"/>
    </g>
    <path class="st11" d="M279.68,189.53c-.11-.12-.22-.23-.35-.33-8.25-6.7-16.54-13.35-24.76-20.09-7.75-6.35-15.28-13.66-24.3-18.14-8.88-4.41-18.47-5.4-28.24-5.4h-32.91c-5.38,0-10.78-.23-16.12.55-10.25,1.49-19.95,6.69-27,14.41-7.26,7.95-11.57,18.14-12.4,28.94-.26,3.43-.58,7.63.27,10.99,1.46,5.77,6.49,9.44,12.22,9.68,11.47.47,23.06,0,34.54,0h108.63c5.81,0,11.3-1.83,13.45-8,1.55-4.44.3-9.39-3.03-12.6Z"/>
    <path class="st7" d="M267.63,187.82c-.09-.1-.2-.19-.31-.27-7.3-5.39-14.62-10.76-21.89-16.19-6.85-5.12-13.51-11.01-21.48-14.62-7.85-3.56-16.32-4.35-24.96-4.35h-29.09c-4.75,0-9.53-.18-14.25.44-9.06,1.2-17.64,5.39-23.87,11.61-6.42,6.41-10.23,14.62-10.96,23.32-.23,2.76-.51,6.15.24,8.85,1.29,4.65,5.73,7.61,10.8,7.8,10.14.38,20.38,0,30.53,0h96.02c5.14,0,13.89,1.79,15.79-3.19,1.37-3.58-3.63-10.83-6.58-13.41ZM261.21,197.09c-.65.17-1.56.06-2.23.06h-122.12c-3.06,0-7.97.86-8.31-3.14-.55-6.59.93-13.38,4.53-19.08,4.03-6.39,10.56-11.38,18.16-13.68,5.75-1.74,11.55-1.57,17.51-1.57h27.58c5.57,0,11.16-.08,16.62,1.1,7.33,1.59,13.34,5.5,19.11,9.83,8.91,6.68,17.84,13.32,26.8,19.95.97.72,1.94,1.43,2.91,2.15,1.57,1.27,1.89,3.74-.56,4.38Z"/>
    <g>
      <path class="st5" d="M212.64,148.18l-9.91-.46c-.38.23-.77.42-1.2.56-.95.51-1.98.74-3.08.7h-.4c-1.19,0-2.32-.26-3.38-.77l-30.89,59.14,22.76.2,27.19-57.4c-.45-.6-.82-1.27-1.09-1.98Z"/>
      <path class="st5" d="M125.29,210.59c.05.26.11.5.16.74l31.37-59.93-12.8-1.28-19.72,57.82c.45.81.79,1.69.99,2.65Z"/>
      <path class="st5" d="M235.19,160.88l-25.68,46.76,8.25.87,18.59-45.23c-.38-.81-.77-1.61-1.17-2.41Z"/>
      <path class="st5" d="M182.57,150.48l-36.91,58.48,8.17-.2s33.97-57.48,33.97-58.08l-5.23-.2Z"/>
    </g>
    <path class="st6" d="M481.11,224.87c-2.27,0-2.12,3.58.15,3.58s2.12-3.58-.15-3.58Z"/>
    <path class="st6" d="M495.98,236.42c-1.7-3.45-4.55-6.06-7.28-8.65-1.66-1.57-4.08,1.04-2.42,2.61,5.14,4.87,9.01,10.2,9.31,17.64.09,2.3,3.61,2.16,3.52-.15-.16-4.1-1.33-7.8-3.13-11.46Z"/>
    <path class="st6" d="M312.27,201.58c-2.27,0-2.12,3.58.15,3.58,2.27,0,2.12-3.58-.15-3.58Z"/>
    <path class="st6" d="M324.21,209.3c-.74-.89-1.79-1.46-2.79-2-.68-.37-1.96-.64-2.45-1.26-.59-.76-1.56-1.13-2.43-.57-.74.47-1.16,1.71-.56,2.47,1.53,1.96,4.25,2.1,5.81,3.97.62.74,1.89.57,2.49-.08.71-.77.54-1.79-.07-2.53Z"/>
    <path class="st6" d="M24.23,227.56c-1.86.89-3.71,1.44-5.4,2.67-1.28.93-1.87,2.11-2.87,3.18-2.24,2.4-4.06,4.78-4.98,8.07-.25.91.42,1.97,1.32,2.15.08.02.16.03.24.05,1.39.28,2.23-.99,2.1-2.09.37-.99.91-2.01,1.4-2.87.81-1.44,1.93-2.02,2.95-3.18.86-.98,1.18-1.94,2.36-2.73,1.45-.97,3.18-1.46,4.75-2.21,2.05-.98.16-4.02-1.87-3.04Z"/>
    <path class="st6" d="M32.98,225.68c-2.27,0-2.12,3.58.15,3.58s2.12-3.58-.15-3.58Z"/>
  </g>
  <g>
    <path class="st10" d="M107.54,307.85c-8.5-3.18-18.56-.3-24.31,6.76-5.91,7.26-6.92,17.73-2.21,25.93,4.78,8.31,14.3,12.47,23.52,10.73,10.19-1.92,17.28-11.23,17.78-21.49.02-.2.03-.41.03-.63,0-.27-.01-.52-.04-.77-.5-9.27-6.12-17.28-14.76-20.52ZM100.17,342.68c-7.26,0-13.3-6.15-13.3-13.54s6.04-13.54,13.3-13.54,13.14,6.15,13.3,13.54c-.16,7.4-5.91,13.54-13.3,13.54Z"/>
    <path class="st10" d="M511.84,251.24c-.75-20.56-17.63-36.9-37.71-37.16h-108.04c-.63-.45-1.4-.74-2.33-.8-.31-.02-.63-.05-.94-.08-.37-.04-.74-.08-1.11-.12-.18-.02-.37-.05-.55-.07-.01,0-.02,0-.04,0-.02,0-.03,0-.05,0-3.01-.46-6-1.06-8.96-1.84-7.67-2.05-15.44-5.29-21.18-11.02-3.62-3.61-5.44-7.98-7.67-12.53-2.72-5.57-5.77-10.98-9.2-16.13-5.69-8.57-12.36-16.54-20.12-23.25-16.36-14.14-37.25-22.87-58.86-22.16-10.9.36-21.86,0-32.77,0s-20.91.64-31.34.98c-6.9.23-13.66.29-20.49,1.35-12.66,1.97-25.4,6.18-36.21,13.27-13.71,8.99-23.82,23.11-25.97,39.79t0,0c-.05.32-.09.65-.14.97-.19,1.14-.39,2.27-.62,3.4-.6,2.88-1.36,5.72-2.3,8.49-2.04,5.99-5.38,12.63-10.71,16.38-3.01,2.12-6.35,3.1-10.01,3.15-.51,0-.97.09-1.39.22h-23.43c-7.09,0-13.98,1.31-20.26,4.87-7.99,4.53-14.04,11.98-17.2,20.68C.31,244.97.04,250.51.04,256.12c0,10.41-.09,20.83,0,31.24.04,4.98,1.03,9.83,2.81,14.33,2.55,16.11,16.35,28.52,32.86,28.52h14.12s.38-3.15,1.06-7.07c.05-.15.09-.31.12-.47,3.02-18.78,15.76-34.92,33.68-40.93,18.15-6.08,38.42-1.1,51.76,12.84,7.19,7.52,11.71,17.01,13.51,27.28l.91,8.34h5.24l178.78.16,1.44-7.31c.04-.13.07-.25.09-.38.04-.26.09-.51.14-.77l.43-2.21c3.82-17.49,16.14-32.27,33.11-37.96,18.15-6.08,38.42-1.1,51.76,12.84,7.37,7.71,11.95,17.5,13.65,28.09.06.34.17.66.33.97.29,2.14.57,4.33.91,6.57h38.26c14.63,0,27.13-9.74,31.56-23.16,2.83-4.9,4.58-10.39,5.13-16.13.35-3.71.16-7.51.16-11.23,0-9.47.32-18.99-.03-28.45ZM277.91,147.69c.1-.04.18-.1.27-.15.97.62,1.93,1.26,2.87,1.92,7.64,5.34,14.35,12.03,20.15,19.36,3.5,4.42,6.61,9.16,9.44,14.04,1.43,2.46,2.67,5.02,3.91,7.58-2.6.25-5.12.1-7.25-1.86-2.85-2.62-5.62-5.34-8.42-8.01-7.36-7-14.71-13.99-22.07-20.99-1.17-1.11-2.31-2.16-2.84-3.76-1.16-3.52.83-6.7,3.94-8.14ZM246.56,135.55c-.12-.02-.11-.02,0,0h0ZM95.25,191.87c.6-2.32,1.1-4.66,1.47-7.03.14-.91.24-1.82.38-2.73.02-.15.03-.31.06-.47.01-.09.06-.26,0,.16-.08.44.33-1.61.4-1.95,1.74-8.17,5.46-15.71,11.09-21.83,9.62-10.46,22.82-16.18,36.25-19.35,2.48-.59,4.98-1.08,7.49-1.49.51-.08,1.02-.16,1.54-.24.06,0,.1-.02.12-.02.06,0,.12-.02.2-.02.76-.09,1.52-.19,2.29-.26,1.89-.18,3.78-.21,5.67-.28,12.59-.41,25.18-.91,37.78-1.24,10.66-.28,21.36-.03,32.03-.03,4.9,0,9.71-.17,14.61.46.15.02.42.06.76.12.61.1,1.22.2,1.83.31,1.38.25,2.76.54,4.13.87,2.88.69,5.72,1.54,8.52,2.53,2.57.92,5.12,2.01,7.63,3.23-5.4,5.29-6.25,14.52-1.39,20.76,2.21,2.85,5.18,5.2,7.77,7.67,8.28,7.87,16.55,15.74,24.83,23.61,2.16,2.05,4.54,3.81,7.47,4.55,3.45.87,7.01.15,10.47-.23.08,0,.15-.02.23-.03.05.09.1.19.15.28,3.73,6.48,9.34,11.32,15.79,14.86h-34.72c-1.15-9.98-4.86-19.3-11.51-27.13-5.15-6.07-11.96-10.95-18.01-16.02-7.11-5.96-14.22-11.92-21.33-17.88-10.02-8.4-21.77-13.25-34.87-13.21-16.36.04-32.71.33-49.07.49-8.96.09-17.43.56-26.1,3.5-14.39,4.86-26.12,15.7-31.02,30.47-2.7,8.13-2.37,16.47-2.37,24.91v14.88h-21.91c5.57-5.93,9.25-14.11,11.36-22.22ZM112.61,223.12h184.96c0,2.66-.06,5.32-.06,7.95v29.87c0,7.64.82,15.61-3.21,22.46-5.06,8.59-13.95,11.81-23.32,11.87-16.71.1-33.42.19-50.14.29-13.22.08-26.46.36-39.68.23-7.66-.07-14.57-3.98-18.33-10.82-5.5-10.37-13.93-18.94-24.36-24.13-3.29-1.64-6.74-2.97-10.27-3.97-3.99-1.13-8.34-1.36-11.94-3.61-4.86-3.04-7.47-8.24-7.5-13.97-.04-5.39-.04-10.78-.04-16.17,1.3,0,2.6,0,3.9,0ZM108.72,214.08c.01-7.78.04-15.57.04-23.35,0-12.23,4-23.73,12.56-32.51,9.2-9.42,23.01-14.53,35.96-14.8,16.83-.35,33.67-.34,50.51-.51,9.66-.1,18.98.33,27.95,4.66,7.5,3.62,13.67,9.52,20.03,14.84,7.19,6.03,14.38,12.06,21.58,18.08,8.75,7.33,15.81,15.76,18.74,27.21.54,2.1.88,4.23,1.11,6.38H108.72ZM502.99,287.4c-.04,4.71-1.09,9.31-3.15,13.46h-62.5c-7.17-12.96-18.99-23.1-33.16-27.84-20.93-6.99-44.67-1.04-60.12,14.88-3.75,3.86-6.96,8.23-9.54,12.96h-182.59c-7.17-12.96-18.99-23.1-33.16-27.84-20.93-6.99-44.67-1.04-60.12,14.88-3.75,3.86-6.96,8.23-9.54,12.96H12.07c-.04-.08-.09-.16-.13-.25-2.5-4.98-3.02-10.28-3.02-15.76v-17.2c0-11.4-1.33-23.26,5.9-32.95,5.74-7.69,14.6-11.57,23.94-11.58,8.01-.01,16.02,0,24.03,0h43.01v7.05c0,8.1-.84,16.35,5.27,22.7,5.65,5.87,13.95,5.76,21.12,8.47,6.82,2.58,13.11,6.59,18.31,11.79,3.92,3.92,7.16,8.44,9.77,13.36,4.92,8.94,13.75,12.35,23.36,12.3,7.09-.04,14.18-.08,21.28-.12,19.59-.11,39.17-.23,58.76-.34,5.09-.03,10.53.38,15.54-.69,12.28-2.62,21.15-13.57,21.27-26.31.15-16.06.02-32.14,0-48.2h148.2c8.12,0,16.25.13,24.37,0,.36,0,.72,0,1.07,0,14.97.19,28.07,12.24,28.82,27.7.42,8.61.04,17.32.04,25.93,0,3.55.03,7.1,0,10.65Z"/>
    <path class="st10" d="M115.11,286.11c-17.93-6.83-39.26-.94-51.35,14.16-12.28,15.34-14.22,37.34-4.04,54.39,10.12,16.96,29.82,25.59,48.89,21.78,21.39-4.28,36.72-24.17,36.92-46.1-.19-19.74-12.27-37.31-30.43-44.23ZM112.38,365.99c-14.95,5.51-31.57.94-41.85-11.37-10.1-12.1-11.26-30.16-3.35-43.71,7.89-13.53,23.83-21.02,39.07-17.97,17.56,3.52,30.23,19.21,30.41,37.39-.15,15.61-9.68,30.28-24.28,35.65Z"/>
    <path class="st10" d="M393.94,307.85c-8.5-3.18-18.56-.3-24.31,6.76-5.91,7.26-6.92,17.73-2.21,25.93,4.78,8.31,14.3,12.47,23.52,10.73,10.19-1.92,17.28-11.23,17.78-21.49.02-.2.03-.41.03-.63,0-.27-.01-.52-.04-.77-.49-9.27-6.12-17.28-14.76-20.52ZM386.57,342.68c-7.26,0-13.3-6.15-13.3-13.54s6.04-13.54,13.3-13.54,13.14,6.15,13.3,13.54c-.16,7.4-5.91,13.54-13.3,13.54Z"/>
    <path class="st10" d="M401.51,286.11c-17.93-6.83-39.26-.94-51.35,14.16-12.28,15.34-14.22,37.34-4.04,54.39,10.12,16.96,29.82,25.59,48.89,21.78,21.39-4.28,36.71-24.17,36.92-46.1-.19-19.74-12.27-37.31-30.43-44.23ZM398.78,365.99c-14.95,5.51-31.57.94-41.85-11.37-10.1-12.1-11.26-30.16-3.35-43.71,7.89-13.53,23.83-21.02,39.07-17.97,17.56,3.52,30.24,19.21,30.41,37.39-.15,15.61-9.68,30.28-24.28,35.65Z"/>
    <path class="st10" d="M53.1,229.7c0-.86-.68-1.45-1.48-1.51-11.4-.83-34.46.26-34.78,16.2-.02.81.69,1.51,1.48,1.51h32.86c.45,0,.79-.17,1.03-.43,0,0,.01,0,.02-.01,1.45-1.17.8-5.95.83-7.52.05-2.75.06-5.49.05-8.24ZM49.86,243.61s-.03.05-.04.07c0-.01.02-.04.05-.09,0,0,0,.02,0,.02ZM50.11,236.45c-.02,1.61-.04,3.21-.1,4.82-.02.53-.09,1.08-.09,1.62h-29.99c1.19-7.45,10.01-9.96,16.48-11.01,4.49-.73,9.16-.98,13.72-.75,0,1.77,0,3.55-.02,5.33Z"/>
    <path class="st10" d="M488.71,234.65c-5.37-4.57-13.05-7.94-20.16-7-5.04.67-8.99,4.48-7.47,9.91,1.77,6.35,8.35,10.81,13.99,13.18,5.45,2.29,15.04,4.22,18.86-1.93.09-.11.16-.22.23-.37.08-.14.12-.27.15-.4,1.84-5.14-1.82-10.17-5.59-13.38ZM491.58,246.91c-3.34,6.04-14.01,2.05-18.34-.36-3.61-2.01-11.6-7.75-9.25-13.05,2.7-6.11,14.02-1.96,17.91.13,3.81,2.05,11.97,7.76,9.68,13.28Z"/>
    <path class="st10" d="M160.61,210.18h108.63c5.81,0,11.3-1.83,13.45-8,1.55-4.44.3-9.39-3.03-12.6-.11-.12-.22-.23-.35-.33-8.25-6.7-16.54-13.35-24.76-20.09-7.75-6.35-15.28-13.66-24.3-18.14-8.88-4.41-18.47-5.4-28.23-5.4h-32.91c-5.38,0-10.78-.23-16.12.55-10.25,1.49-19.95,6.69-27,14.41-7.26,7.95-11.57,18.14-12.4,28.94-.26,3.43-.58,7.63.27,10.99,1.46,5.77,6.49,9.44,12.22,9.68,11.47.48,23.06,0,34.54,0ZM122.34,197.25c-.62-8.17,1.05-16.6,5.12-23.68,4.56-7.93,11.94-14.12,20.54-16.98,6.51-2.16,13.07-1.94,19.81-1.94h31.21c6.3,0,12.63-.1,18.8,1.37,8.3,1.97,15.09,6.82,21.62,12.2,10.08,8.29,20.18,16.53,30.32,24.75,1.1.89,2.19,1.78,3.29,2.67,1.78,1.58,2.14,4.64-.64,5.44-.73.21-1.76.07-2.52.07h-138.16c-3.46,0-9.02,1.07-9.4-3.89Z"/>
    <path class="st10" d="M139.63,251.07h23.95c1.95,0,3.55-1.63,3.55-3.61v-4.03c0-1.99-1.6-3.61-3.55-3.61h-23.95c-1.95,0-3.55,1.63-3.55,3.61v4.03c0,1.99,1.6,3.61,3.55,3.61Z"/>
  </g>
</svg>