<?xml version="1.0" encoding="UTF-8"?>
<svg id="Layer_1" xmlns="http://www.w3.org/2000/svg" version="1.1" viewBox="0 0 512 512">
  <!-- Generator: Adobe Illustrator 29.1.0, SVG Export Plug-In . SVG Version: 2.1.0 Build 142)  -->
  <defs>
    <style>
      .st0 {
        fill: #a32430;
      }

      .st1, .st2 {
        fill: #e3f6ff;
      }

      .st3 {
        fill: #929496;
      }

      .st4 {
        fill: #fff;
      }

      .st5 {
        fill: #f1f1f2;
      }

      .st6 {
        fill: #808183;
      }

      .st7 {
        opacity: .6;
      }

      .st7, .st2 {
        isolation: isolate;
      }

      .st7, .st8 {
        fill: #434244;
      }

      .st9 {
        fill: #5296c9;
      }

      .st10 {
        fill: #ef6767;
      }

      .st2 {
        opacity: .1;
      }

      .st11 {
        fill: #0a587a;
      }

      .st12 {
        fill: #272525;
      }

      .st13 {
        fill: #d0d1d3;
      }
    </style>
  </defs>
  <g>
    <path class="st9" d="M469.85,250.24c-1.34-3.46-4.89-5.97-7.76-8.09-3.47-2.57-7.2-4.87-11.13-6.66-.15-.07-.31-.13-.47-.19-.21-.1-.42-.2-.65-.28-25.15-8.78-50.3-17.57-75.45-26.35-2.93-1.02-5.85-2.04-8.78-3.06-7.02-12.16-14.04-24.32-21.05-36.48-3.85-6.68-7.71-13.36-11.56-20.04-5.04-8.73-12.58-15.02-23.1-15.49-10.36-.46-20.84-.02-31.21-.02h-95.35c-.34-.08-.7-.13-1.07-.13-28.66.12-56.15,11.83-78.84,28.82-20.68,15.49-39.2,35.58-50.46,59.01-2.65,5.52-4.96,11.26-6.48,17.2-.72,2.79-1.22,5.61-1.57,8.46-.15,1.23-.27,2.46-.33,3.7-.02.34,0,.7-.02,1.05-.05.06-.22.92-.28,1.13-.89,2.93,1.54,5.93,4.51,5.93h245.68c19.14,0,38.34.43,57.48,0,.32,0,.64,0,.96,0,.16,0,.33-.01.49-.03h49.89c19.54,0,39.08.07,58.62,0,4.88-.02,10.16-2.66,7.92-8.46ZM463.22,249.38s.01-.02.01-.02c.01.02.43.1-.01.02Z"/>
    <path class="st9" d="M497.35,282.86c-1.03-19-16.93-33.91-35.85-34.17H54.1c-7.16,0-14.16,1.46-20.32,5.27-7.23,4.47-12.67,11.35-15.41,19.39-1.68,4.94-1.82,10.03-1.82,15.17,0,9.43-.1,18.86,0,28.29.19,16.72,12.07,31.96,28.7,35.22,5.13,1.01,10.39.74,15.59.74,1.87,0,4.19-1.44,4.51-3.44,2.82-17.14,14.6-31.88,31.29-37.35,16.73-5.48,35.39-1.03,47.75,11.53,6.96,7.08,11.24,16.06,12.84,25.82.33,2,2.62,3.44,4.51,3.44h166.63c1.87,0,4.19-1.44,4.51-3.44,2.82-17.14,14.6-31.88,31.29-37.35,16.73-5.48,35.39-1.03,47.75,11.53,6.96,7.08,11.24,16.06,12.85,25.82.33,2,2.62,3.44,4.51,3.44h25.95c3.72,0,7.45.13,11.15-.38,7.96-1.09,15.46-4.91,21.01-10.75,5.67-5.96,9.03-13.59,9.83-21.75.34-3.49.15-7.08.15-10.57,0-8.79.44-17.69-.04-26.47Z"/>
    <g>
      <polygon class="st2" points="115.66 216.29 73.93 317.02 82.95 313.91 124.09 215.98 115.66 216.29"/>
      <polygon class="st2" points="138.14 214.42 100.05 309.32 137.2 309.32 174.66 215.67 138.14 214.42"/>
      <polygon class="st2" points="203.38 234.08 158.64 345.33 166.75 346.27 205.26 256.87 203.38 234.08"/>
    </g>
    <g>
      <polygon class="st2" points="258.02 218.79 212.78 331.58 218.06 335.55 266.45 218.48 258.02 218.79"/>
      <polygon class="st2" points="276.75 217.23 229.61 334.92 266.76 334.92 313.28 218.48 276.75 217.23"/>
      <polygon class="st2" points="295.79 334.61 303.91 335.55 335.75 259.69 333.88 236.89 295.79 334.61"/>
      <polygon class="st2" points="418.64 229.09 390.08 304.74 422.75 332.01 464.12 245.79 418.64 229.09"/>
    </g>
    <polygon class="st2" points="485.24 262.18 448.77 346.37 457.3 346.37 493.88 268.48 485.24 262.18"/>
    <path class="st11" d="M472.23,253.6c-3.49.01-6.98.02-10.47.02-1.64-1.83-3.76-3.35-5.6-4.72-3.47-2.57-7.2-4.87-11.13-6.66-.15-.07-.31-.13-.47-.19-.21-.1-.42-.2-.65-.28-25.15-8.78-50.3-17.57-75.45-26.35-2.93-1.02-5.85-2.04-8.78-3.06-7.02-12.16-14.04-24.32-21.05-36.48-3.85-6.68-7.71-13.36-11.56-20.04-5.04-8.73-12.58-15.02-23.1-15.49-10.36-.46-20.84-.02-31.21-.02h-95.35c-.34-.08-.7-.13-1.07-.13-14.89.06-29.47,3.26-43.22,8.7,11.98-4.1,24.52-6.46,37.29-6.51.37,0,.73.05,1.07.13h95.35c10.37,0,20.84-.44,31.21.02,10.52.47,18.06,6.76,23.1,15.49,3.85,6.68,7.71,13.36,11.56,20.04,7.02,12.16,14.04,24.32,21.05,36.48,2.93,1.02,5.85,2.04,8.78,3.06,16.33,5.7,32.66,11.41,49,17.11.18.41.56.73,1.13.73.22,0,.4-.06.56-.14.04.01.07.03.11.04,0,.36.13.72.39.97-.85.58-.55,2.28.77,2.28.15,0,.27-.03.39-.06h0c0,.64.42,1.31,1.25,1.31.13,0,.25-.02.35-.05.05.02.1.04.15.06.11.53.52,1.01,1.22,1.01.05,0,.09,0,.14-.01.1.22.26.42.51.55h0s-.03.02-.05.04c-.48.39-.64.82-.53,1.42s.4,1.12.65,1.66c-.46.12-1.02.3-1.3.68-.43.59-.59,1.31-.33,2.01.36.99,1.31,1.4,2.26,1.59,1.77.36,3.65.43,5.46.78,4.12.8,8.38.85,12.54,1.4,2.96.39,6.74,1.03,9.34-.84.46-.33.62-.79.54-1.25,1.08.71,2.14,1.45,3.17,2.21,1.84,1.36,3.96,2.89,5.6,4.72,3.49,0,6.98,0,10.47-.02,2.52,0,5.16-.73,6.8-2.22-.29.02-.58.03-.87.03ZM421.38,238.18s-.01-.02-.02-.03c.01,0,.02,0,.03.01,0,0-.01,0-.01.01Z"/>
    <path class="st8" d="M64.56,351.15s49.85-44.43,93.63.04c0,0-2.25-41.66-47.22-41.66-44.85,0-46.41,41.62-46.41,41.62Z"/>
    <path class="st8" d="M332.22,351.15s49.85-44.43,93.63.04c0,0-2.25-41.66-47.22-41.66-44.85,0-46.41,41.62-46.41,41.62Z"/>
    <g>
      <path class="st13" d="M321.94,198.17c-2.86-4.81-5.73-9.62-8.59-14.43-3.21-5.4-6.43-10.8-9.64-16.2-1.8-3.02-3.44-6.37-5.72-9.07-3.33-3.94-8.07-6.02-13.13-6.33-.19-.02-.39-.03-.6-.03-18.92,0-37.84-.13-56.76,0-7.36.05-13.96,4.64-15.13,12.21-.57,3.69-.23,7.61-.23,11.33,0,10.1-.16,20.21,0,30.31.06,3.65.77,7.48,3.31,10.27,2.9,3.18,7.05,4.16,11.21,4.25,1.95.04,3.92,0,5.87,0h80.92c4.86,0,8.76-2.11,10.84-6.79,2.53-5.71.55-10.63-2.36-15.51Z"/>
      <path class="st13" d="M199.49,166.64c-.3-7.83-5.89-13.69-13.54-14.46-.3-.05-.62-.09-.96-.08h-.02c-29.1.15-57.45,12.94-76.33,35.2-2.27,2.67-4.41,5.47-6.41,8.35-1.97,2.84-4.25,5.88-5.06,9.29-1.57,6.66,2.59,15.14,9.99,15.52,4.07.21,8.2,0,12.27,0h53.26c4.09,0,8.18.09,12.27,0,6.14-.13,11.81-2.63,13.76-8.86.87-2.78.76-5.74.76-8.62v-28.65c0-2.56.1-5.14,0-7.7Z"/>
    </g>
    <g>
      <path class="st1" d="M322.82,197.49c-2.86-4.81-5.73-9.62-8.59-14.43-3.21-5.4-6.43-10.8-9.64-16.2-1.8-3.02-3.44-6.37-5.72-9.07-3.33-3.94-8.07-6.02-13.13-6.33-.19-.02-.39-.03-.6-.03-18.92,0-37.84-.13-56.76,0-4.23.03-8.21,1.57-11.05,4.31,2.76-2.24,6.36-3.5,10.17-3.52,18.92-.13,37.84,0,56.76,0,.21,0,.41.01.6.03,5.07.32,9.8,2.39,13.13,6.33,2.28,2.7,3.92,6.05,5.72,9.07,3.21,5.4,6.43,10.8,9.64,16.2,2.86,4.81,5.73,9.62,8.59,14.43,2.91,4.88,4.89,9.81,2.35,15.51-.65,1.45-1.47,2.66-2.44,3.63,1.36-1.08,2.49-2.53,3.32-4.41,2.54-5.7.55-10.63-2.35-15.51Z"/>
      <path class="st1" d="M200.37,173.67c0-2.56.1-5.14,0-7.7-.3-7.83-5.89-13.69-13.54-14.46-.3-.05-.62-.09-.96-.08h-.02c-24.69.13-48.85,9.36-67.14,25.76,18.17-15.91,41.95-24.85,66.25-24.98h.02c.34,0,.66.03.96.08,7.65.77,13.24,6.63,13.54,14.46.1,2.56,0,5.14,0,7.7v28.65c0,2.88.12,5.84-.76,8.62-.63,2.02-1.66,3.64-2.97,4.93,1.73-1.38,3.08-3.25,3.85-5.71.87-2.78.76-5.74.76-8.62,0-9.55,0-19.1,0-28.65Z"/>
    </g>
    <path class="st5" d="M363.91,207.44c-9.09-15.96-18.18-31.91-27.27-47.87-1.29-2.27-2.58-4.53-3.87-6.8-.67-1.18-1.7-1.69-2.74-1.71-.1-.01-.2-.03-.3-.03-5.06-.3-13.58-2.11-15.05,4.74-1.18,5.47,3.64,11.43,6.32,16.02,6.27,10.75,12.43,21.59,18.83,32.27,2.62,4.36,5.58,8.03,10.97,8.23,3.36.12,6.71.24,10.08.44,2.73.16,4.29-3.08,3.03-5.28ZM320.84,157.83s.08-.02.21-.05c-.1.06-.18.09-.21.05Z"/>
    <path class="st11" d="M313.49,220.52h-80.92c-1.95,0-3.92.04-5.87,0-4.16-.08-8.31-1.07-11.21-4.25-2.54-2.79-3.26-6.62-3.31-10.27-.16-10.1,0-20.21,0-30.31,0-3.71-.35-7.64.23-11.33.25-1.64.78-3.13,1.49-4.48-1.83,1.95-3.12,4.44-3.58,7.39-.57,3.69-.23,7.61-.23,11.33,0,10.1-.16,20.21,0,30.31.06,3.65.77,7.48,3.31,10.27,2.9,3.18,7.05,4.16,11.21,4.25,1.95.04,3.92,0,5.87,0h80.92c4.61,0,8.35-1.9,10.5-6.1-2.16,2.17-5.06,3.18-8.42,3.18Z"/>
    <path class="st11" d="M185.01,220.56c-4.09.09-8.18,0-12.27,0h-53.26c-4.07,0-8.2.21-12.27,0-7.41-.38-11.56-8.86-9.99-15.52.77-3.26,2.88-6.17,4.78-8.9-.61.83-1.22,1.67-1.8,2.52-1.97,2.84-4.25,5.88-5.06,9.29-1.57,6.66,2.59,15.14,9.99,15.52,4.07.21,8.2,0,12.27,0h53.26c4.09,0,8.18.09,12.27,0,5.46-.12,10.55-2.12,12.98-6.95-2.72,2.74-6.7,3.94-10.9,4.03Z"/>
    <path class="st0" d="M25.18,295.33c0-.84-.71-1.56-1.56-1.56H3.68c-.84,0-1.56.72-1.56,1.56v14.86c0,.84.71,1.56,1.56,1.56h19.94c.46,0,.81-.17,1.06-.42.02-.02.04-.03.05-.05,0-.01.02-.02.03-.03.25-.25.42-.6.42-1.06,0-4.95,0-9.91,0-14.86Z"/>
    <g>
      <path class="st11" d="M317.72,243.71h-13.89c-1.76,0-3.2-1.44-3.2-3.2v-1.09c0-1.76,1.44-3.2,3.2-3.2h13.89c1.76,0,3.2,1.44,3.2,3.2v1.09c0,1.76-1.44,3.2-3.2,3.2Z"/>
      <path class="st11" d="M113.76,243.71h-13.89c-1.76,0-3.2-1.44-3.2-3.2v-1.09c0-1.76,1.44-3.2,3.2-3.2h13.89c1.76,0,3.2,1.44,3.2,3.2v1.09c0,1.76-1.44,3.2-3.2,3.2Z"/>
    </g>
    <g>
      <path class="st1" d="M319.75,241.29h-13.89c-1.76,0-3.2-1.44-3.2-3.2v-1.09c0-1.76,1.44-3.2,3.2-3.2h13.89c1.76,0,3.2,1.44,3.2,3.2v1.09c0,1.76-1.44,3.2-3.2,3.2Z"/>
      <path class="st1" d="M115.79,241.29h-13.89c-1.76,0-3.2-1.44-3.2-3.2v-1.09c0-1.76,1.44-3.2,3.2-3.2h13.89c1.76,0,3.2,1.44,3.2,3.2v1.09c0,1.76-1.44,3.2-3.2,3.2Z"/>
    </g>
    <path class="st1" d="M212.78,331.58c-1.64-1.53-2.68-3.68-2.78-6.48-.09-2.65,0-5.32,0-7.96v-23.1c1.15-.59,1.95-1.78,1.95-3.16v-12.22c0-1.35-.77-2.52-1.89-3.12.53.62.85,1.42.85,2.29v12.22c0,1.38-.8,2.57-1.95,3.16v23.1c0,2.65-.09,5.32,0,7.96.11,3.35,1.59,5.78,3.82,7.31Z"/>
    <path class="st1" d="M205.9,153.67c.1-.28.21-.55.33-.82-.89-1.75-2.19-3.35-4.11-4.76-.01,0-.02-.01-.03-.02,1.91,1.66,3.09,3.56,3.82,5.61Z"/>
    <path class="st1" d="M178.07,329.26s.03,0,.04,0c-.91-1.26-1.38-3.56-1.88-4.75-3.84-9.25-9.86-17.35-17.74-23.44,7.37,5.99,13.03,13.77,16.7,22.61.65,1.57,1.27,5.06,2.89,5.58Z"/>
    <path class="st1" d="M284.71,144.32h-65.03c-2.57,0-5.01.16-7.29,1.61-3.75,2.38-4.98,6.36-4.98,10.55v39.12s0,.02,0,.03v24.8c.4.2.75.48,1.04.81v-24.77s0-.02,0-.02v-39.12c0-4.19,1.23-8.17,4.98-10.55,2.28-1.45,4.72-1.61,7.29-1.61h65.03c1.34,0,2.69-.04,4.04,0,3.31.09,6.27,1.11,8.74,2.93-2.65-2.34-5.99-3.66-9.78-3.76-1.34-.04-2.69,0-4.04,0Z"/>
    <path class="st1" d="M210.58,225.5c.53.62.85,1.42.85,2.29v12.22c0,1.38-.8,2.57-1.95,3.16v31.51c.4.2.75.48,1.04.8v-31.48c1.15-.58,1.95-1.78,1.95-3.16v-12.22c0-1.35-.77-2.52-1.89-3.12Z"/>
    <path class="st1" d="M198.99,146.89c-2.11-1.74-4.74-2.57-7.54-2.89-.14.04-.28.07-.42.07h-.02c-.26,0-.49-.07-.7-.18-4.26-.29-8.82.41-12.58.73-13.5,1.15-26.93,4.28-39.31,9.84-11.81,5.31-22.56,12.72-31.83,21.77-4.73,4.61-9.09,9.61-13.05,14.9-2.1,2.8-4.09,5.68-5.99,8.61-.81,1.25-1.6,2.51-2.37,3.78-.37.61-.84,1.23-1.17,1.86-.01.03-.03.04-.04.07-.01.09-.04.26-.11.54-1.49,5.91-.87,12.08-.87,18.12v49.2c0,1.47-.07,2.96,0,4.44.07,1.58.48,3.05,1.18,4.34-.11-.54-.19-1.08-.21-1.65-.02-.54.02-1.06.1-1.58,0-.1-.02-.19-.03-.29-.07-1.47,0-2.96,0-4.44v-49.2c0-6.05-.62-12.21.87-18.12.07-.28.1-.44.11-.54.01-.02.02-.04.04-.07.33-.63.8-1.25,1.17-1.86.77-1.27,1.56-2.53,2.37-3.78,1.9-2.94,3.89-5.81,5.99-8.61,3.96-5.29,8.32-10.28,13.05-14.9,9.26-9.04,20.01-16.46,31.83-21.77,12.38-5.56,25.81-8.69,39.31-9.84,3.76-.32,8.32-1.03,12.58-.73.21.11.44.18.7.18h.02c.14,0,.28-.03.42-.07,2.53.29,4.9,1,6.89,2.4-.13-.11-.26-.23-.39-.34Z"/>
    <path class="st1" d="M338.36,294.68v-83.65c0-.24-.06-.46-.15-.66-.79-5.08-4.78-10.1-7.3-14.41-4.58-7.83-9.17-15.67-13.75-23.5-3.18-5.43-6.32-10.88-9.53-16.29-1.45-2.45-3.23-4.43-5.28-5.96,1.61,1.39,3.04,3.1,4.24,5.13,3.21,5.41,6.36,10.86,9.53,16.29,4.58,7.83,9.17,15.67,13.75,23.5,2.52,4.31,6.51,9.33,7.3,14.41.09.2.15.41.15.66v83.65c0,3.29.1,6.61,0,9.9-.13,4.31-2.03,7.36-5.25,10.09-5.17,4.39-9.27,9.21-12.1,15.4-2.71,5.94-7.92,7.81-13.97,7.8-5.02,0-10.04-.01-15.06-.02-15.8-.02-31.59-.04-47.39-.07-6.22,0-12.43-.02-18.65-.03-3.35,0-7.18.4-10.39-.69-1.24-.42-2.3-.96-3.2-1.6,1.11,1.01,2.5,1.84,4.24,2.43,3.22,1.09,7.04.69,10.39.69,6.22,0,12.43.02,18.65.03,15.8.02,31.59.04,47.39.07,5.02,0,10.04.01,15.06.02,6.05,0,11.26-1.85,13.97-7.8,2.83-6.19,6.93-11.02,12.1-15.4,3.22-2.73,5.11-5.78,5.25-10.09.1-3.3,0-6.61,0-9.9Z"/>
    <path class="st1" d="M205.33,324.56c-1.74,4.09-5.54,7.09-10.23,7.69-3.78.49-7.77.13-11.57.13-2.38,0-5.5.52-7.62-.68,2.02,2.23,5.86,1.51,8.66,1.51,3.8,0,7.79.36,11.57-.13,4.39-.57,8-3.23,9.87-6.92-.26-.51-.49-1.05-.68-1.6Z"/>
    <path class="st1" d="M136.21,293.05c-10.18-3.06-20.9-3.95-31.49-3.58-4.6.16-9.77,1.44-14.3.59-1.91-.36-3.64-1.12-5.13-2.17,1.69,1.49,3.79,2.55,6.17,3,4.52.85,9.7-.44,14.3-.59,10.59-.36,21.31.52,31.49,3.58,7.23,2.18,14.06,5.55,19.94,10.18-6.11-5.06-13.32-8.7-20.98-11.01Z"/>
    <g>
      <path class="st11" d="M208.39,243.92c.13-.25.23-.52.29-.8-.09.06-.19.12-.29.17v.62Z"/>
      <path class="st11" d="M208.39,293.34v.62c.13-.25.23-.52.29-.8-.1.06-.19.12-.29.17Z"/>
      <path class="st11" d="M204.23,319.05v-25.96c-.91-.64-1.51-1.7-1.51-2.89v-12.22c0-1.19.6-2.25,1.51-2.89v-32.03c-.91-.64-1.51-1.7-1.51-2.89v-12.22c0-1.19.6-2.25,1.51-2.89v-10.52c-.13-.22-.2-.49-.18-.81.11-1.93.07-3.87.07-5.81v-46.71c0-3.84-1.05-7.39-4.14-9.94-2.11-1.74-4.74-2.57-7.54-2.89-.14.04-.28.07-.42.07h-.02c-.26,0-.49-.07-.7-.18-4.26-.29-8.82.41-12.58.73-13.5,1.15-26.93,4.28-39.31,9.84-11.81,5.31-22.56,12.72-31.83,21.77-4.73,4.61-9.09,9.61-13.05,14.9-.93,1.24-1.84,2.5-2.72,3.77.38-.53.77-1.06,1.16-1.58,3.96-5.29,8.32-10.28,13.05-14.9,9.26-9.04,20.01-16.46,31.83-21.77,12.38-5.56,25.81-8.69,39.31-9.84,3.76-.32,8.32-1.03,12.58-.73.21.11.44.18.7.18h.02c.14,0,.28-.03.42-.07,2.81.32,5.43,1.15,7.54,2.89,3.08,2.55,4.14,6.1,4.14,9.94v46.71c0,1.94.04,3.88-.07,5.81-.02.32.06.59.18.81v10.52c-.91.64-1.51,1.7-1.51,2.89v12.22c0,1.19.6,2.25,1.51,2.89v32.03c-.91.64-1.51,1.7-1.51,2.89v12.22c0,1.19.6,2.25,1.51,2.89v25.96c0,3.37.05,6.91-1.31,9.68,2.96-2.91,2.87-7.52,2.87-11.87Z"/>
      <path class="st11" d="M206.08,154.71c.28-.79.64-1.53,1.05-2.24-.46.53-.89,1.1-1.27,1.69.07.18.15.37.21.55Z"/>
      <path class="st11" d="M316.08,326.98c-.72,1.38-1.27,2.8-1.99,4.1,1.67-1.75,2.4-4.08,3.55-6.29.5-.96,1.06-1.9,1.65-2.8-1.21,1.57-2.3,3.22-3.22,4.99Z"/>
      <path class="st11" d="M331.19,313.71c-3.54,3-6.56,6.22-9.03,9.93,2.15-2.81,4.64-5.34,7.47-7.74,1.54-1.3,2.77-2.68,3.65-4.23-.62.71-1.32,1.39-2.09,2.05Z"/>
      <path class="st11" d="M305.12,336.91c-5.02,0-10.04-.01-15.06-.02-15.8-.02-31.59-.04-47.39-.07-6.22,0-12.43-.02-18.65-.03-3.35,0-7.18.4-10.39-.69-4.02-1.36-6.17-3.99-7.31-7.2-.38.9-.87,1.74-1.44,2.52,1.17,3.06,3.31,5.56,7.19,6.87,3.22,1.09,7.04.69,10.39.69,6.22,0,12.43.02,18.65.03,15.8.02,31.59.04,47.39.07,5.02,0,10.04.01,15.06.02,5.62,0,10.51-1.6,13.35-6.59-2.91,3.28-7.09,4.41-11.79,4.41Z"/>
      <path class="st11" d="M333.31,298.98v-88.51c-.37-2.74-1.67-4.74-3.02-7.04-1.77-3.03-3.55-6.07-5.32-9.1-4.91-8.4-9.83-16.8-14.74-25.2-2.52-4.31-4.95-8.69-7.57-12.94-2.87-4.66-7.43-7.38-12.91-7.52-1.34-.04-2.69,0-4.04,0h-65.03c-2.57,0-5.01.16-7.29,1.61-1.59,1.01-2.73,2.31-3.51,3.79.56-.59,1.2-1.13,1.95-1.6,2.28-1.45,4.72-1.61,7.29-1.61h65.03c1.34,0,2.69-.04,4.04,0,5.49.14,10.04,2.86,12.91,7.52,2.62,4.25,5.05,8.63,7.57,12.94,4.91,8.4,9.83,16.8,14.74,25.2,1.77,3.03,3.55,6.07,5.32,9.1,1.35,2.3,2.65,4.3,3.02,7.04v88.51c0,3.39.09,6.3-1.3,8.96,3.01-3.26,2.86-6.81,2.86-11.15Z"/>
      <path class="st11" d="M196.09,336.6c-3.78.49-7.77.13-11.57.13-3.17,0-7.67.93-9.36-2.54-1.63-3.33-2.59-6.94-4.36-10.24-1.53-2.86-3.3-5.61-5.33-8.15-7.21-9.04-17.29-15.1-28.28-18.41-10.18-3.06-20.9-3.95-31.49-3.58-4.6.16-9.77,1.44-14.3.59-6.04-1.14-10.33-6.22-10.55-12.31-.54-14.87,0-29.86,0-44.74,0-5.19.21-10.69-.13-15.72-.32-4.82.01-10.2,2.38-14.35,1.99-3.49,4.21-6.98,6.58-10.38-2.97,4.07-5.72,8.33-8.14,12.57-2.37,4.15-2.71,9.53-2.38,14.35.33,5.03.13,10.54.13,15.72,0,14.88-.54,29.87,0,44.74.22,6.09,4.51,11.17,10.55,12.31,4.52.85,9.7-.44,14.3-.59,10.59-.36,21.31.52,31.49,3.58,10.99,3.31,21.07,9.37,28.28,18.41,2.03,2.54,3.8,5.29,5.33,8.15,1.77,3.3,2.73,6.91,4.36,10.24,1.7,3.47,6.19,2.54,9.36,2.54,3.8,0,7.79.36,11.57-.13,4.18-.54,7.64-2.97,9.58-6.39-2,2.25-4.8,3.79-8.02,4.21Z"/>
    </g>
    <path class="st6" d="M314.75,196.23c-2.52-4.05-5.05-8.1-7.57-12.15-2.83-4.55-5.66-9.09-8.5-13.64-1.58-2.54-3.03-5.37-5.04-7.64-2.93-3.32-7.11-5.06-11.57-5.33-.17-.02-.35-.03-.53-.03-16.67,0-33.34-.11-50.02,0-6.48.04-12.3,3.91-13.34,10.28-.5,3.11-.2,6.41-.2,9.54,0,8.5-.14,17.02,0,25.52.05,3.08.68,6.3,2.92,8.65,2.55,2.68,6.21,3.51,9.88,3.58,1.72.03,3.45,0,5.17,0h71.31c4.29,0,7.72-1.78,9.55-5.72,2.23-4.8.49-8.95-2.07-13.06ZM309.24,206.23c-.11.2-.55.61-.74.84-.23.01-.55.05-.69.05-2.58-.08-5.18,0-7.76,0h-67.52c-2.11,0-5.04.35-5.95-1.7-.84-1.91-.33-5.39-.33-7.52v-26.68c0-3.03.96-5.72,4.69-5.9,7.46-.36,15.03,0,22.49,0h28.12c4.34.14,6.2,2.98,8.15,6.1,2.29,3.68,4.58,7.36,6.88,11.04,4.16,6.67,8.88,13.25,12.57,20.17.32.6.57,1.15.56,1.84,0,.62-.16,1.22-.46,1.76Z"/>
    <path class="st6" d="M195.01,170.16c-.31-7.11-5.54-12.03-12.3-12.78-.32-.06-.65-.09-1.01-.09h-.02c-25.19.14-50.18,10.42-67.12,29.42-3.66,4.11-8.94,9.54-10.05,15.13-1.22,6.18,2.86,13.17,9.43,13.54,3.31.18,6.68,0,10,0h45.83c3.95,0,7.9.09,11.85,0,4.59-.1,9.26-1.44,11.71-5.68,1.53-2.65,1.67-5.7,1.67-8.68v-23.93c0-2.3.1-4.63,0-6.93ZM185.5,202.51c-.06,2.81-.78,3.23-3.89,3.29-3.22.06-6.45,0-9.67,0h-55.62c-.49,0-1.3.14-1.91.09-.04-.07-.14-.21-.18-.37-.22-1.09-.48-1.22-.18-2.28.57-2,2.8-4.29,4.07-5.93,15.14-19.57,39.17-30.3,63.59-30.44,5.37.26,3.79,7.69,3.79,11.31v20.3c0,1.34.03,2.69,0,4.04Z"/>
    <g>
      <polygon class="st4" points="148.44 214 168.83 214.21 189.86 159.68 173 160.72 148.44 214"/>
      <polygon class="st4" points="133.45 175.08 114.2 218.06 147.66 168.37 133.45 175.08"/>
      <path class="st4" d="M166.54,158.43l-30.18,55.15,5.03-.21s27.54-54.11,27.54-54.74l-2.39-.21Z"/>
      <polygon class="st4" points="281.43 160.72 256.87 214 277.27 214.21 298.29 159.68 281.43 160.72"/>
      <polygon class="st4" points="241.89 157.8 222.64 218.06 251.67 158.85 241.89 157.8"/>
      <path class="st4" d="M272.69,158.43l-30.18,55.15,7.32-.21s27.54-54.11,27.54-54.74l-4.68-.21Z"/>
    </g>
    <g>
      <path class="st11" d="M196.14,336.73c-3.78.49-7.77.13-11.57.13-3.18,0-7.67.93-9.36-2.54-1.63-3.33-2.59-6.94-4.36-10.24-1.53-2.86-3.3-5.61-5.33-8.15-7.21-9.04-17.29-15.1-28.28-18.41-10.18-3.06-20.9-3.95-31.49-3.58-4.6.16-9.77,1.44-14.3.59-6.04-1.14-10.33-6.22-10.55-12.31-.54-14.87,0-29.86,0-44.74,0-5.19.21-10.69-.13-15.72-.32-4.82.01-10.2,2.38-14.35,3.2-5.59,6.96-11.22,11.05-16.42,3.16-4.01,6.54-7.8,10.13-11.34-4.21,4.01-8.14,8.34-11.79,12.96-4.1,5.2-7.86,10.82-11.05,16.42-2.37,4.15-2.71,9.53-2.38,14.35.33,5.03.13,10.54.13,15.72,0,14.88-.54,29.87,0,44.74.22,6.09,4.51,11.17,10.55,12.31,4.52.85,9.7-.44,14.3-.59,10.59-.36,21.31.52,31.49,3.58,10.99,3.31,21.07,9.37,28.28,18.41,2.03,2.54,3.8,5.29,5.33,8.15,1.77,3.3,2.73,6.91,4.36,10.24,1.7,3.47,6.19,2.54,9.36,2.54,3.8,0,7.79.36,11.57-.13,3.31-.43,6.16-2.04,8.18-4.39-1.81,1.46-4.04,2.46-6.52,2.78Z"/>
      <path class="st11" d="M305.17,337.04c-5.02,0-10.04-.01-15.06-.02-15.8-.02-31.59-.04-47.39-.07-6.22,0-12.43-.02-18.65-.03-3.35,0-7.18.4-10.39-.69-4.02-1.36-6.17-3.99-7.31-7.2-.36.85-.82,1.65-1.35,2.4,1.2,2.85,3.32,5.17,7.01,6.41,3.22,1.09,7.04.69,10.39.69,6.22,0,12.43.02,18.65.03,15.8.02,31.59.04,47.39.07,5.02,0,10.04.01,15.06.02,4.8,0,9.06-1.17,11.97-4.62-2.77,2.21-6.36,3.01-10.31,3.01Z"/>
    </g>
    <path class="st0" d="M479.75,275.9c.01-.23-.02-.44-.06-.64-.58-5.35-4.68-9.76-10.34-9.76s-10.4,4.75-10.4,10.4,4.48,10.15,9.95,10.38c5.83.25,10.19-4.21,10.79-9.73.05-.2.08-.41.06-.65Z"/>
    <path class="st1" d="M480.42,274.33c-.58-5.35-4.68-9.76-10.34-9.76-3.52,0-6.69,1.84-8.58,4.6,1.92-2.23,4.75-3.66,7.85-3.66,5.66,0,9.76,4.41,10.34,9.76.05.2.08.4.06.64.01.24-.02.45-.06.64-.22,1.99-.93,3.84-2.01,5.39,1.5-1.7,2.48-3.91,2.74-6.32.05-.2.08-.41.06-.64.01-.24-.02-.44-.06-.64Z"/>
    <path class="st11" d="M468.93,286.31c-5.48-.23-9.95-4.89-9.95-10.38,0-2.09.65-4.05,1.75-5.69-1.69,1.86-3.76,5.69-3.76,8.34,0,5.49,4.48,10.15,9.95,10.38,3.8.16,7.98-3.07,9.89-5.89-1.94,2.1-4.69,3.38-7.88,3.25Z"/>
    <g>
      <path class="st11" d="M206.36,328.97c-.15.36-.33.71-.51,1.05.28-.08.55-.17.82-.26-.11-.26-.21-.52-.31-.79Z"/>
      <path class="st11" d="M358.43,300.4c-18.29,6.15-32.39,21.61-36.74,40.32h-22.86c-.08,0-.16,0-.24,0,0,.02,0,.03,0,.05h-130.22c-.02-.07-.03-.14-.05-.2l-9.49.54c.69,1.93,1.27,3.9,1.73,5.91h163.49s0-.03.01-.05h5.42c4.34-18.71,18.44-34.17,36.74-40.32,16.24-5.46,34.34-2.75,48.44,6.56-14.71-14.17-36.81-19.33-56.25-12.8Z"/>
      <path class="st11" d="M97.73,297.84c-6.13,1.34-12.13,3.24-17.83,5.86-1.79.82-3.54,1.73-5.24,2.71-10.63,7.02-18.59,17.54-22.52,29.53-6.64-2.17-12.18-6.88-15.46-13.08-.57-1.07-1.03-2.16-1.41-3.26l-1.56-10.3c0-.33,0-.66,0-1v-15.61c0-10.53-1.36-21.72,5.6-30.59.21-.26.42-.52.64-.78-3.21,1.68-6.09,4.02-8.45,7.02-6.96,8.87-5.6,20.06-5.6,30.59v15.61c0,.33,0,.66,0,1l1.56,10.3c.38,1.1.84,2.19,1.41,3.26,3.57,6.74,9.79,11.73,17.21,13.59,1.37.35,2.77.55,4.19.68-.27,1.49-.47,3-.62,4.52l9.47-.78c3.42-16.65,14.48-31.24,29.89-38.93,15.33-7.66,33.63-7.49,48.88-.23-11.59-8.41-26.17-11.92-40.17-10.11Z"/>
    </g>
    <path class="st11" d="M464.69,339.09h-34.65l3.33,4.58,31.43-.21s16.6-1.66,21.59-17.59c0,0-9.99,12.96-21.7,13.22Z"/>
    <path class="st4" d="M48.27,261.38c-5.5.49-8.74,5.02-8.04,10.42.12.9,1.54.91,1.43,0-.58-4.54,1.83-8.57,6.61-8.99.91-.08.91-1.51,0-1.43Z"/>
    <path class="st4" d="M141.3,353.9c.28-.96,1.78-.53,1.5.44-.28.96-1.78.53-1.5-.44h0Z"/>
    <path class="st4" d="M50.93,262.49c1,0,1.01-1.56,0-1.56s-1.01,1.56,0,1.56h0Z"/>
    <g>
      <path class="st3" d="M151.51,345.85c-3.64-19.19-21.13-32.89-40.39-33.11-17.25.2-32.65,10.9-38.7,27.08-5.97,15.96-.88,34.88,12.28,45.7,13.37,11,32.62,12.76,47.56,3.78,14.89-8.95,22.47-26.46,19.25-43.45Z"/>
      <path class="st13" d="M137.98,347.82c-2.3-12.15-13.38-20.83-25.58-20.97-10.93.13-20.67,6.9-24.5,17.15-3.78,10.11-.56,22.09,7.77,28.94,8.47,6.96,20.66,8.08,30.12,2.39,9.43-5.66,14.23-16.75,12.19-27.51Z"/>
      <path class="st3" d="M129.81,349.42c-1.55-8.2-9.03-14.05-17.25-14.14-7.37.09-13.95,4.65-16.53,11.57-2.55,6.82-.38,14.9,5.24,19.52,5.71,4.7,13.93,5.45,20.32,1.61,6.36-3.82,9.6-11.3,8.22-18.56Z"/>
      <path class="st4" d="M105.13,354c-.59-4.54,1.83-8.57,6.61-8.99.91-.08.92-1.51,0-1.43-5.5.49-8.74,5.02-8.04,10.42.12.9,1.55.91,1.43,0h0Z"/>
      <path class="st4" d="M114.41,345.12c1,0,1.01-1.56,0-1.56-1,0-1.01,1.56,0,1.56h0Z"/>
      <path class="st4" d="M141.73,355.01c1,0,1.01-1.56,0-1.56s-1.01,1.56,0,1.56h0Z"/>
      <path class="st4" d="M140.7,356.99c-1.75,14.03-13.37,24.8-27.18,26.41-.99.11-1,1.68,0,1.56,14.89-1.74,26.88-13.07,28.75-27.97.12-.99-1.44-.98-1.56,0Z"/>
    </g>
    <g>
      <path class="st3" d="M419.16,345.85c-3.64-19.19-21.13-32.89-40.39-33.11-17.25.2-32.65,10.9-38.7,27.08-5.96,15.96-.88,34.88,12.28,45.7,13.37,11,32.62,12.76,47.56,3.78,14.89-8.95,22.47-26.46,19.25-43.45Z"/>
      <path class="st13" d="M405.64,347.82c-2.3-12.15-13.38-20.83-25.58-20.97-10.93.13-20.67,6.9-24.5,17.15-3.78,10.11-.56,22.09,7.77,28.94,8.47,6.96,20.66,8.08,30.12,2.39,9.43-5.66,14.23-16.75,12.19-27.51Z"/>
      <path class="st3" d="M397.46,349.42c-1.55-8.2-9.03-14.05-17.25-14.14-7.37.09-13.95,4.65-16.53,11.57-2.55,6.82-.38,14.9,5.24,19.52,5.71,4.7,13.93,5.45,20.32,1.61,6.36-3.82,9.6-11.3,8.22-18.56Z"/>
      <path class="st4" d="M372.79,354c-.59-4.54,1.83-8.57,6.61-8.99.91-.08.92-1.51,0-1.43-5.5.49-8.74,5.02-8.04,10.42.11.9,1.54.91,1.43,0h0Z"/>
      <path class="st4" d="M382.06,345.12c1,0,1.01-1.56,0-1.56-1,0-1.01,1.56,0,1.56h0Z"/>
      <path class="st4" d="M409.14,354.88c1,0,1.01-1.56,0-1.56s-1.01,1.56,0,1.56h0Z"/>
      <path class="st4" d="M408.36,356.99c-1.75,14.03-13.37,24.8-27.18,26.41-.99.11-1,1.68,0,1.56,14.89-1.74,26.88-13.07,28.75-27.97.13-.99-1.44-.98-1.56,0Z"/>
    </g>
    <path class="st7" d="M64.56,351.15s49.85-44.43,93.63.04c0,0-2.25-41.66-47.22-41.66-44.85,0-46.41,41.62-46.41,41.62Z"/>
    <path class="st7" d="M332.22,351.15s49.85-44.43,93.63.04c0,0-2.25-41.66-47.22-41.66-44.85,0-46.41,41.62-46.41,41.62Z"/>
    <path class="st11" d="M406.46,236.37c-1.23,0-1.15,1.91.08,1.91s1.15-1.91-.08-1.91Z"/>
    <path class="st11" d="M411.02,238.15c-1.59,0-1.49,2.48.1,2.48s1.49-2.48-.1-2.48Z"/>
    <path class="st11" d="M413.96,243.1c.2-.72-.21-1.66-1.2-1.66-1.5,0-1.5,2.19-.16,2.45-.06.2-.06.42-.02.64-.44.73-.06,1.97,1.07,1.97.89,0,1.25-.77,1.12-1.45.4-.66.12-1.76-.81-1.94Z"/>
    <path class="st11" d="M411.93,246.53c-.24,0-.43.06-.59.15-.15-.47-.55-.85-1.18-.85-1.59,0-1.49,2.48.1,2.48.24,0,.43-.06.59-.15.15.47.55.85,1.18.85,1.6,0,1.49-2.48-.1-2.48Z"/>
    <path class="st11" d="M405.09,241.24c-1.23,0-1.15,1.91.08,1.91,1.23,0,1.15-1.91-.08-1.91Z"/>
    <path class="st11" d="M402.38,244.78c-1.23,0-1.15,1.91.08,1.91s1.15-1.91-.08-1.91Z"/>
    <path class="st11" d="M408.08,243.36c-1.59,0-1.49,2.48.1,2.48,1.59,0,1.49-2.48-.1-2.48Z"/>
    <path class="st11" d="M397.75,242.44c-.94,0-.88,1.47.06,1.47s.88-1.47-.06-1.47Z"/>
    <path class="st11" d="M401.28,238.39c-.94,0-.88,1.47.06,1.47.94,0,.88-1.47-.06-1.47Z"/>
    <path class="st11" d="M395.03,236.59c-.85,0-.79,1.32.06,1.32s.79-1.32-.06-1.32Z"/>
    <g>
      <path class="st11" d="M58.25,328.49c-.62-1.19-1.56-1.2-2.73-1.43-.17-.35-.51-.63-.99-.66.01-.49-.22-1-.71-1.23.04-.37-.07-.76-.32-1.04.43-.49.37-1.36-.14-1.82-.07-.11-.15-.21-.25-.29.91-.55.63-2.31-.72-2.31-.91,0-1.27.82-1.1,1.51-.19-.14-.43-.22-.73-.22-.72,0-1.09.5-1.14,1.05-.09-.02-.2-.04-.31-.04-.6,0-.96.35-1.09.79-.05.03-.1.05-.15.07-.13-.05-.28-.08-.44-.08-.52,0-.86.27-1.02.63-.31.08-.52.26-.66.5-.03-.46-.28-.92-.75-1.11-.13-.45-.47-.83-1.02-.9.12-.7-.3-1.54-1.22-1.54-.53,0-.87.28-1.03.65-.23-.1-.4-.14-.54-.19.03-.22,0-.45-.08-.66.89-.56.61-2.3-.73-2.3-.03,0-.05,0-.07,0,.34-.47.29-1.22-.13-1.67.34-.73-.06-1.85-1.13-1.85-.87,0-1.23.74-1.12,1.41-.16-.08-.34-.12-.55-.12-.57,0-.91.32-1.06.72-.12-.26-.31-.48-.59-.61.36-.47.32-1.23-.1-1.69.73-.64.41-2.21-.86-2.21-.7,0-1.07.48-1.13,1.01-.76,0-1.55.63-1.24,1.57.44,1.37.91,3.12,2.11,4.04-.07.22-.08.48.03.76.3.81.8,1.55,1.41,2.19-.25.44-.26,1.01.17,1.5.23.25.44.51.66.76-1.13-.17-1.88,1.6-.71,2.36.23.15.46.28.68.42.52.32,1.06.63,1.6.94.06.22.17.43.34.6.39.67,1.03,1.17,1.8,1.41-.33.65-.12,1.5.77,1.73.16.04.39.08.63.12.05.1.11.19.2.28,1.31,1.36,3.08,2.16,4.87,2.65,1.5.4,3.36,2.36,4.88,2.23,1.72-.14,3.95-4.11,4.25-5.52.1-.47.08-.88-.05-1.25.06.04.11.09.13.14.74,1.41,2.83.09,2.1-1.31ZM37.5,319.45s-.02-.02-.03-.04c.03.01.05.02.08.03-.01,0-.03,0-.05,0Z"/>
      <path class="st11" d="M41.53,312.98c.28,0,.5-.08.68-.2.2.36.55.63,1.08.63,1.07,0,1.37-1.11.97-1.85.36-.73-.03-1.88-1.12-1.88-.68,0-1.05.45-1.13.96-.17-.09-.36-.14-.59-.14-1.59,0-1.49,2.48.1,2.48Z"/>
      <path class="st11" d="M36.29,309.44c.05.24.16.47.35.67l.12.12c.46.46,1.32.44,1.75-.05.45-.52.44-1.26-.05-1.75l-.12-.12c-.18-.18-.41-.28-.66-.32-.11-.53-.52-1-1.22-1-1.5,0-1.5,2.18-.18,2.45Z"/>
    </g>
    <g>
      <path class="st11" d="M53.13,316.23c-.42-.37-.88-.37-1.25-.18.02-.4-.13-.81-.43-1.08.75-.63.43-2.22-.85-2.22s-1.45,1.53-.7,2.18c-.75.63-.43,2.22.85,2.22.15,0,.29-.03.41-.07-.05.36.06.75.41,1.06,1.19,1.06,2.76-.86,1.57-1.92Z"/>
      <path class="st11" d="M47.52,317.72c-.3-.38-.78-.64-1.25-.57-.03,0-.05,0-.08,0-1.35,0-1.48,1.77-.52,2.31.05.1.09.19.15.28.35.55,1.15.77,1.71.39.55-.38.76-1.12.39-1.71-.14-.23-.22-.49-.39-.7Z"/>
    </g>
    <path class="st11" d="M61.92,308.05c-1.11,0-1.04,1.73.07,1.73s1.04-1.73-.07-1.73Z"/>
    <path class="st11" d="M54.92,305.58c-1.11,0-1.04,1.73.07,1.73s1.04-1.73-.07-1.73Z"/>
    <path class="st11" d="M45.31,305.67c-1.6,0-1.49,2.48.1,2.48s1.49-2.48-.1-2.48Z"/>
    <path class="st11" d="M56.81,312.43c-1.59,0-1.49,2.48.1,2.48,1.6,0,1.49-2.48-.1-2.48Z"/>
    <path class="st11" d="M36.57,302.44c-1.6,0-1.49,2.48.1,2.48,1.6,0,1.49-2.48-.1-2.48Z"/>
    <path class="st11" d="M42.8,299.73c-1.11,0-1.04,1.73.07,1.73s1.04-1.73-.07-1.73Z"/>
    <path class="st11" d="M49.36,299.07c-1.11,0-1.04,1.73.07,1.73s1.04-1.73-.07-1.73Z"/>
    <path class="st11" d="M59.52,295.23c-.66,0-.61,1.02.04,1.02s.61-1.02-.04-1.02Z"/>
    <path class="st11" d="M46.2,293.55c-.66,0-.61,1.02.04,1.02s.61-1.02-.04-1.02Z"/>
    <path class="st11" d="M43.13,287.8c-.66,0-.61,1.02.04,1.02s.61-1.02-.04-1.02Z"/>
    <path class="st11" d="M40.49,294.08c-1.11,0-1.04,1.73.07,1.73,1.11,0,1.04-1.73-.07-1.73Z"/>
    <g>
      <path class="st11" d="M222.68,328.04c-2.21-.91-4.8-1.13-6.27-3.31-1.56-2.31-.67-5.03-1.97-7.35-1.26-2.23-4.95-4.13-7.27-2.26-1.02.82-1.28,2.09-1.05,3.32.06.31.14.61.24.91-.13,1.05-.13,2.1,0,3.14-.21,1.76-.47,4.36-.04,6.14-.37,1.87-.41,3.8,1.76,3.96,1.03.08,2.18-.4,2.43-1.5,1.69,1.81,3.8,3.25,6.13,4.1,2.4.87,6.92,2.2,8.56-.68,1.38-2.41-.1-5.49-2.5-6.48Z"/>
      <path class="st11" d="M216.53,314.68s-.08-.04-.11-.06c0-.08.01-.16.01-.24,0-.32-.09-.63-.28-.88-.34-.44-.8-.82-1.29-1.08-1.13-.6-2.08,1.15-.95,1.75.18.1.34.22.48.36,0,0,0,.01,0,.02-.08.3-.05.67.07.95.23.54.68.64,1.13.93.46.29,1.11.05,1.35-.4.27-.5.05-1.06-.4-1.35Z"/>
      <path class="st11" d="M220.68,320.95c-.37-.08-.82-.08-1.17.06-.38.14-.4.35-.76.37-.44.02-.71.29-.81.62-.6.21-.99,1-.37,1.53.65.56,1.49.81,2.35.69.75-.1,1.82-.66,2.01-1.46.19-.85-.44-1.62-1.24-1.8Z"/>
      <path class="st11" d="M218.73,310.21c-1.22,0-1.14,1.9.08,1.9,1.22,0,1.14-1.9-.08-1.9Z"/>
      <path class="st11" d="M225.86,323.23c-1.59,0-1.49,2.48.1,2.48,1.6,0,1.49-2.48-.1-2.48Z"/>
      <path class="st11" d="M223.01,315.8c-1.22,0-1.14,1.9.08,1.9,1.22,0,1.14-1.9-.08-1.9Z"/>
      <path class="st11" d="M222.23,308.1c-.58,0-.54.9.04.9s.54-.9-.04-.9Z"/>
      <path class="st11" d="M227.44,316.42c-.58,0-.54.9.04.9s.54-.9-.04-.9Z"/>
      <path class="st11" d="M230.63,321.85c-.58,0-.54.9.04.9s.54-.9-.04-.9Z"/>
      <path class="st11" d="M229,325.9c-.58,0-.54.9.04.9.58,0,.54-.9-.04-.9Z"/>
      <path class="st11" d="M227.74,306.84c-.58,0-.54.9.04.9.58,0,.54-.9-.04-.9Z"/>
      <path class="st11" d="M219.72,303.77c-.58,0-.54.9.04.9s.54-.9-.04-.9Z"/>
    </g>
    <g>
      <path class="st11" d="M489.71,329.71c1.23-3.37,3.09-9.72-.95-12.03-3.39-1.93-7.71.14-9.1,3.51-1.28,3.11-1.59,6.75-4.65,8.81-3.25,2.19-7.07.94-10.32,2.77-.54.31-1.07.72-1.56,1.2-.44.33-.75.8-1.24,1.1-.96.58-2.17.65-3.2,1.1-1.37.6-3.44,1.08-4.4,2.3-.08.11-.16.22-.23.33-.49.06-.96.13-1.43.22-1.56.31-.82,2.67.74,2.37.09-.02.18-.03.27-.05.08.19.17.37.31.55,1.1,1.34,3.39,1.15,4.88.81.6-.14,1.39-.31,2.16-.58.15.29.32.58.53.85,1.15,1.43,2.93,1.8,4.66,1.47.43-.08.86-.2,1.27-.33,1.48.19,2.96.19,4.42,0,2.48.3,6.13.67,8.63.06,2.63.52,5.34.58,5.57-2.47.11-1.44-.57-3.06-2.1-3.41,2.54-2.38,4.56-5.34,5.76-8.61Z"/>
      <path class="st11" d="M460.88,333.29c.13-.26.31-.47.5-.68.01,0,.02,0,.03.01.43.11.94.07,1.34-.1.75-.32.91-.96,1.3-1.58.4-.64.07-1.56-.57-1.9-.7-.38-1.49-.08-1.9.57-.03.05-.05.11-.08.16-.11-.01-.23-.02-.34-.02-.45,0-.88.12-1.24.4-.62.47-1.15,1.13-1.52,1.82-.84,1.6,1.62,2.93,2.46,1.33Z"/>
      <path class="st11" d="M470.3,326.72c.03.62.41,1,.87,1.14.3.84,1.41,1.39,2.15.52.78-.92,1.13-2.09.97-3.3-.14-1.05-.93-2.55-2.06-2.82-1.19-.28-2.28.62-2.53,1.74-.11.51-.11,1.15.08,1.64.21.53.49.55.51,1.07Z"/>
      <path class="st11" d="M457.28,326.64c0-1.72-2.67-1.61-2.67.11,0,1.72,2.67,1.61,2.67-.11Z"/>
      <path class="st11" d="M476.38,316.58c0-2.24-3.48-2.09-3.48.15s3.48,2.09,3.48-.15Z"/>
      <path class="st11" d="M453.68,331.66c.29-.23.49-.57.49-1.04,0-1.72-2.67-1.61-2.67.11,0,.42.16.72.4.93-.52.27-.92.78-.92,1.53,0,2.24,3.48,2.09,3.48-.15,0-.68-.33-1.14-.78-1.39Z"/>
      <path class="st11" d="M465.14,320.62c0-1.72-2.67-1.61-2.67.11,0,1.72,2.67,1.61,2.67-.11Z"/>
      <path class="st11" d="M452.91,321.78c0-.82-1.27-.76-1.27.05,0,.82,1.27.76,1.27-.05Z"/>
      <path class="st11" d="M464.61,314.46c0-.82-1.27-.76-1.27.05s1.27.76,1.27-.05Z"/>
      <path class="st11" d="M472.23,309.97c0-.82-1.27-.76-1.27.05s1.27.76,1.27-.05Z"/>
      <path class="st11" d="M477.93,312.27c0-.82-1.27-.76-1.27.05s1.27.76,1.27-.05Z"/>
      <path class="st11" d="M449.87,314.1c0,.82,1.27.76,1.27-.05s-1.27-.76-1.27.05Z"/>
      <path class="st11" d="M445.56,325.36c0,.82,1.27.76,1.27-.05s-1.27-.76-1.27.05Z"/>
    </g>
    <path class="st4" d="M447.41,246.29c-6.82-2.65-13.63-5.31-20.45-7.96-.94-.37-1.34,1.14-.42,1.51,6.82,2.65,13.63,5.31,20.45,7.96.94.36,1.34-1.15.42-1.51Z"/>
    <path class="st4" d="M423.58,237.16c-1,0-1.01,1.56,0,1.56s1.01-1.56,0-1.56Z"/>
    <g>
      <polygon class="st10" points="12.27 293.87 6.49 311.77 9.25 311.77 15.6 293.97 12.27 293.87"/>
      <polygon class="st10" points="7.9 293.92 2.38 311.04 3.01 311.35 8.78 293.92 7.9 293.92"/>
      <polygon class="st10" points="18.98 294.13 13.47 311.25 14.09 311.56 19.87 294.13 18.98 294.13"/>
    </g>
    <g>
      <polygon class="st10" points="469.38 267.39 472.29 267.48 466.74 283.05 464.33 283.05 469.38 267.39"/>
      <polygon class="st10" points="474.97 268.5 475.69 268.5 470.94 282.87 470.43 282.61 474.97 268.5"/>
    </g>
    <path class="st0" d="M102.75,115.55c0,2.52-2.05,4.57-4.57,4.57s-4.57-2.05-4.57-4.57,2.05-4.57,4.57-4.57,4.57,2.05,4.57,4.57Z"/>
  </g>
  <g>
    <path class="st12" d="M378.79,312.64c-17.25.2-32.65,10.9-38.7,27.08-5.96,15.96-.88,34.88,12.28,45.7,13.37,11,32.62,12.76,47.56,3.78,14.89-8.95,22.47-26.46,19.25-43.45-3.64-19.19-21.13-32.89-40.39-33.11ZM398.58,378.8c-10.39,8.31-25.29,9.05-36.57,2.1-11.19-6.89-17.18-20.59-14.43-33.49,3.15-14.76,16.16-25.23,31.19-25.41,13.19.15,25.52,8.37,29.95,20.99,4.5,12.83.51,27.29-10.15,35.81Z"/>
    <path class="st12" d="M392.91,337.48c-6.48-5.45-15.92-6.4-23.28-2.09-7.36,4.31-11.08,12.86-9.63,21.19,1.63,9.34,9.89,15.82,19.08,16.39.23.03.47.04.73.03.32,0,.61-.01.9-.06,8.11-.55,15.14-5.5,18.05-13.22,2.91-7.74.45-16.93-5.86-22.24ZM379.81,363.63c-5.91-.16-10.82-4.79-10.82-10.82s4.91-10.82,10.82-10.82,10.82,4.9,10.82,10.82-4.91,10.66-10.82,10.82Z"/>
    <path class="st12" d="M111.55,312.64c-17.25.2-32.65,10.9-38.7,27.08-5.96,15.96-.88,34.88,12.28,45.7,13.37,11,32.62,12.76,47.56,3.78,14.89-8.95,22.47-26.46,19.25-43.45-3.64-19.19-21.13-32.89-40.39-33.11ZM131.35,378.8c-10.39,8.31-25.29,9.05-36.57,2.1-11.19-6.89-17.18-20.59-14.43-33.49,3.15-14.76,16.16-25.23,31.19-25.41,13.19.15,25.52,8.37,29.95,20.99,4.5,12.83.51,27.29-10.15,35.81Z"/>
    <path class="st12" d="M125.67,337.48c-6.48-5.45-15.92-6.4-23.28-2.09-7.36,4.31-11.08,12.86-9.63,21.19,1.63,9.34,9.89,15.82,19.08,16.39.23.03.47.04.73.03.32,0,.61-.01.9-.06,8.11-.55,15.14-5.5,18.05-13.22,2.91-7.74.45-16.93-5.86-22.24ZM112.58,363.63c-5.91-.16-10.82-4.79-10.82-10.82s4.91-10.82,10.82-10.82,10.82,4.9,10.82,10.82c0,6.03-4.91,10.66-10.82,10.82Z"/>
    <path class="st12" d="M199.54,166.71c-.07-1.94-.48-3.76-1.16-5.42-.01-.03-.03-.07-.04-.1-.11-.27-.25-.54-.37-.8-.08-.16-.15-.32-.23-.48-.09-.18-.2-.34-.3-.52-.14-.23-.27-.47-.42-.69-.07-.11-.15-.21-.22-.32-.2-.28-.39-.55-.61-.81-.05-.06-.1-.11-.15-.17-.25-.3-.51-.59-.79-.87-.02-.02-.04-.04-.07-.06-2.36-2.36-5.54-3.9-9.2-4.27-.3-.05-.62-.09-.96-.08h-.02c-29.1.15-57.45,12.94-76.33,35.2-2.27,2.67-4.41,5.47-6.41,8.35-1.97,2.84-4.25,5.88-5.06,9.29-.74,3.12-.21,6.65,1.31,9.55,1.72,3.31,4.75,5.82,8.7,6.03,4.07.21,8.2,0,12.27,0h53.26c4.09,0,8.18.09,12.27,0,6.14-.13,11.81-2.63,13.76-8.86.87-2.78.76-5.74.76-8.62v-28.65c0-2.56.1-5.14,0-7.69ZM190.15,205.87c-.05,3.51-.87,5.13-4.66,5.25-3.35.11-6.71.01-10.06.01h-65.51c-.67,0-1.54.13-2.28.06.01-.03,0-.08-.05-.14-.11-.23-.7-.72-.96-1.19-.01-.03-.03-.06-.04-.08-.43-1-.44-2.14-.09-3.16.93-2.72,3.29-5.39,4.96-7.7,16.92-23.44,44.81-37.24,73.58-37.38,2.32.1,3.65,1.21,4.4,2.82,1.43,3.12.71,8.04.71,11.04v24.33c0,2.05.03,4.1,0,6.15Z"/>
    <path class="st12" d="M469.37,265.5c-5.65,0-10.4,4.75-10.4,10.4s4.48,10.15,9.95,10.38c5.83.25,10.19-4.21,10.79-9.73.05-.2.08-.41.06-.64.01-.23-.02-.44-.06-.64-.57-5.35-4.68-9.77-10.34-9.77ZM463.3,275.91c0-7.84,11.72-7.78,12.14,0-.42,7.77-12.14,7.84-12.14,0Z"/>
    <path class="st12" d="M497.45,315.55c.01-2.06-.05-4.12-.05-6.16,0-8.79.43-17.69-.05-26.46-.88-16.14-12.47-29.31-27.54-33.08-1.44-3.26-4.83-5.66-7.59-7.71-3.47-2.57-7.2-4.87-11.13-6.66-.15-.07-.31-.13-.47-.19-.21-.1-.42-.2-.65-.28-25.15-8.78-50.3-17.57-75.45-26.35-2.93-1.02-5.85-2.04-8.78-3.06-7.02-12.16-14.04-24.32-21.05-36.48-3.85-6.68-7.71-13.36-11.56-20.04-5.04-8.73-12.58-15.02-23.1-15.49-10.36-.46-20.84-.02-31.21-.02h-95.35c-.34-.08-.7-.13-1.07-.13-18.09.08-35.72,4.78-51.97,12.5-9.41-9.41-18.81-18.81-28.22-28.22.35-.65.55-1.38.55-2.17,0-2.53-2.05-4.58-4.58-4.58s-4.58,2.05-4.58,4.58,2.05,4.58,4.58,4.58c.89,0,1.72-.26,2.43-.7,9.2,9.2,18.39,18.4,27.59,27.59-8.67,4.31-16.94,9.46-24.64,15.24-20.68,15.49-39.2,35.58-50.46,59.01-2.65,5.52-4.96,11.26-6.48,17.2-.72,2.79-1.22,5.61-1.57,8.46-.11.92-.2,1.84-.26,2.76-3.85.82-7.56,2.21-11.01,4.34-7.23,4.47-12.67,11.35-15.41,19.39-1.68,4.94-1.82,10.03-1.82,15.17,0,1.74,0,3.48-.01,5.22H3.73c-.84,0-1.56.71-1.56,1.56v14.86c0,.84.71,1.56,1.56,1.56h12.78c0,1.25.01,2.5.02,3.75H-1v10.3h18.79c3.46,12.93,13.87,23.59,27.46,26.25,5.13,1.01,10.39.74,15.59.74,1.87,0,4.19-1.44,4.51-3.44,2.82-17.14,14.6-31.88,31.29-37.35,16.73-5.48,35.39-1.03,47.75,11.53,6.96,7.08,11.24,16.06,12.84,25.82.33,2,2.62,3.44,4.51,3.44h166.63c1.87,0,4.19-1.44,4.51-3.44,2.82-17.14,14.6-31.88,31.29-37.35,16.73-5.48,35.39-1.03,47.75,11.53,6.96,7.08,11.24,16.06,12.85,25.82.33,2,2.62,3.44,4.51,3.44h25.95c3.72,0,7.45.13,11.15-.38,7.96-1.09,15.46-4.91,21.01-10.75,4.28-4.5,7.25-9.95,8.78-15.87h14.8v-10.3h-13.55ZM98.24,118.05c-1.51,0-2.73-1.22-2.73-2.73s1.22-2.73,2.73-2.73,2.73,1.22,2.73,2.73-1.22,2.73-2.73,2.73ZM16.5,308.69H5.29v-11.74h11.24c-.02,3.91-.03,7.83-.03,11.74ZM327.4,157.88c2.09,3.62,4.17,7.25,6.27,10.87,3.43,5.95,6.87,11.9,10.3,17.84,3.34,5.87,6.69,11.74,10.03,17.61.21.38.43.75.64,1.13-.31-.01-.62-.03-.94-.04-1.07-.04-2.9.17-3.71-.07-1.62-.49-2.64-2.36-3.48-3.71-2.12-3.37-4.04-6.89-6.05-10.33-5.44-9.32-10.9-18.63-16.31-27.96-.73-1.26-1.53-2.53-2.04-3.91-.08-.21-.2-1.06-.34-1.64.16-.03.3-.05.37-.05,1.72-.08,3.51.09,5.27.26ZM55.11,243.22c1.02-4.64,2.53-9.19,4.4-13.56,4.45-10.36,10.64-20.1,17.64-28.91,16.45-20.69,37.81-38.1,62.16-48.6,13.3-5.74,27.61-9.12,42.11-9.33.32.07.65.11.99.11h88c12.61,0,25.21-.05,37.82,0,6.28.03,11.38,2.7,14.86,7.67-3.84,0-7.47.92-8.39,5.18-1.18,5.47,3.64,11.43,6.32,16.02,6.27,10.75,12.43,21.59,18.83,32.27,2.62,4.36,5.58,8.03,10.97,8.23,2.76.1,5.51.21,8.27.35.84,1.03,1.91,1.51,3,1.57,24.89,8.69,49.78,17.39,74.68,26.08,3.4,1.19,6.79,2.37,10.19,3.56,2.93,1.38,5.73,3.04,8.41,4.86.02.01.04.03.06.04h-118.93v-38.62c0-.24-.06-.46-.15-.66-.79-5.08-4.78-10.1-7.3-14.41-4.58-7.83-9.17-15.67-13.75-23.5-3.18-5.43-6.32-10.88-9.53-16.29-3.78-6.36-9.71-9.65-17.07-9.67-15.2-.05-30.4,0-45.6,0h-21.17c-1.41,0-2.83-.06-4.23.08-5.28.52-9.77,4.15-11.55,9.09-.85-2.39-2.31-4.57-4.83-6.42-5.65-4.14-13.17-3.09-19.75-2.65-7.32.49-14.61,1.5-21.76,3.14-26.22,6.02-48.97,21.02-65.57,42.08-4.1,5.2-7.86,10.82-11.05,16.42-2.37,4.15-2.71,9.53-2.38,14.35.33,5.03.13,10.54.13,15.72,0,3.77-.04,7.55-.08,11.33h-26.38c.14-1.86.26-3.71.66-5.54ZM321.07,157.8c-.1.06-.18.09-.21.05,0,0,.09-.02.21-.05ZM208.44,274.89v-16.15h86.18c12.9,0,25.83.19,38.75.18v40.14c0,4.85.2,8.71-4.04,12.28-4.56,3.83-8.85,8.2-11.63,13.53-1.45,2.77-2.23,5.73-5.04,7.51-1.61,1.02-3.35,1.42-5.24,1.49-3.16.12-6.35,0-9.52-.01-26.24-.04-52.48-.07-78.72-.11-5.69,0-10.52-3.09-10.73-9.26-.09-2.65,0-5.32,0-7.96v-23.1c1.15-.58,1.95-1.78,1.95-3.16v-12.22c0-1.38-.8-2.58-1.96-3.16ZM208.44,224.84v-24.8s0-.02,0-.02v-39.12c0-4.19,1.23-8.17,4.98-10.55,2.28-1.45,4.72-1.61,7.29-1.61h65.03c1.34,0,2.69-.04,4.04,0,5.49.14,10.04,2.86,12.91,7.52,2.62,4.25,5.05,8.63,7.57,12.94,4.91,8.4,9.83,16.8,14.74,25.2,1.77,3.03,3.55,6.07,5.32,9.1,1.35,2.3,2.64,4.3,3.02,7.04v38.22h-124.92v-5.39c1.15-.58,1.95-1.78,1.95-3.16v-12.22c0-1.38-.8-2.57-1.95-3.16ZM204.1,213.77c-.02.32.06.59.18.81v10.52c-.91.64-1.51,1.7-1.51,2.89v12.22c0,1.19.6,2.25,1.51,2.89v5.65h-120.24v-20.23c0-6.05-.62-12.21.87-18.12.07-.28.1-.44.11-.54.01-.02.02-.04.04-.07.33-.63.8-1.25,1.17-1.86.77-1.27,1.56-2.53,2.37-3.78,1.9-2.94,3.89-5.81,5.99-8.61,3.96-5.29,8.32-10.28,13.05-14.9,9.26-9.04,20.01-16.46,31.83-21.77,12.38-5.56,25.81-8.69,39.31-9.84,3.76-.32,8.32-1.03,12.58-.73.21.11.44.18.7.18h.02c.14,0,.28-.03.42-.07,2.81.32,5.43,1.15,7.54,2.89,3.08,2.55,4.14,6.1,4.14,9.94v46.71c0,1.94.04,3.88-.07,5.81ZM84.04,277.73v-19h120.24v16.41c-.91.64-1.51,1.7-1.51,2.89v12.22c0,1.19.6,2.25,1.51,2.89v25.96c0,5.77.16,12-6.86,14.11-3.54,1.06-7.99.45-11.62.45-1.88,0-3.77.08-5.64,0-.3-.01-.75.09-1.04,0-1.61-.52-2.23-4-2.89-5.58-4.36-10.48-11.5-19.5-21-25.78-16.48-10.9-37.54-12.82-56.76-11.11-2.86.25-5.62.73-8.37-.39-3.64-1.49-5.87-4.75-6.05-8.65-.06-1.47,0-2.96,0-4.43ZM487.97,315.55h-5.28v10.3h3.66c-.83,2.56-2.08,5.04-3.93,7.4-4.18,5.32-10.37,8.95-17.05,9.97-3.05.47-6.31.26-9.39.26h-22.86c-4.34-18.71-18.44-34.17-36.74-40.32-19.76-6.64-42.28-1.2-56.98,13.51-7.34,7.34-12.52,16.72-14.86,26.81h-158.98c-4.34-18.71-18.44-34.17-36.74-40.32-19.76-6.64-42.28-1.2-56.98,13.51-7.35,7.35-12.53,16.75-14.87,26.86-3.67.06-7.38.06-10.91-.82-7.41-1.86-13.63-6.85-17.21-13.59-.57-1.07-1.03-2.16-1.41-3.26h3.79v-10.3h-5.35c0-.33,0-.66,0-1v-15.61c0-10.53-1.36-21.72,5.6-30.59,4.19-5.34,10.03-8.58,16.46-9.74.31.07.63.11.96.11h31.79c-.08,7.82-.09,15.65.19,23.44.22,6.09,4.51,11.17,10.55,12.31,4.52.85,9.7-.44,14.3-.59,10.59-.36,21.31.52,31.49,3.58,10.99,3.31,21.07,9.37,28.28,18.41,2.03,2.54,3.8,5.29,5.33,8.15,1.77,3.3,2.73,6.91,4.36,10.24,1.7,3.47,6.19,2.54,9.36,2.54,3.8,0,7.79.36,11.57-.13,4.69-.6,8.48-3.6,10.23-7.69,1.14,3.21,3.29,5.84,7.31,7.2,3.22,1.09,7.04.69,10.39.69,6.22,0,12.43.02,18.65.03,15.8.02,31.59.04,47.39.07,5.02,0,10.04.01,15.06.02,6.05,0,11.26-1.85,13.97-7.8,2.83-6.19,6.93-11.02,12.1-15.4,3.22-2.73,5.11-5.78,5.25-10.09.1-3.29,0-6.61,0-9.9v-34.88c5.21-.02,10.41-.06,15.61-.18.32,0,.64,0,.96,0,.16,0,.33,0,.49-.03h49.89c19.54,0,39.08.07,58.62,0,.94,0,1.89-.11,2.81-.31,12.22,1.73,22.41,11.8,23.12,24.53.44,7.94.05,16,.05,23.95,0,2.92.05,5.82-.06,8.67Z"/>
    <path class="st12" d="M318.64,234.59h-12.8c-2.06,0-3.75,1.69-3.75,3.75s1.69,3.75,3.75,3.75h12.8c2.06,0,3.75-1.69,3.75-3.75s-1.69-3.75-3.75-3.75Z"/>
    <path class="st12" d="M114.67,234.59h-12.8c-2.06,0-3.75,1.69-3.75,3.75s1.69,3.75,3.75,3.75h12.8c2.06,0,3.75-1.69,3.75-3.75s-1.69-3.75-3.75-3.75Z"/>
    <path class="st12" d="M212.17,205.97c.04,2.74.46,5.58,1.73,8.01.43.83.96,1.6,1.6,2.31,2.9,3.18,7.05,4.16,11.21,4.25,1.95.04,3.92,0,5.87,0h80.92c4.86,0,8.76-2.11,10.84-6.79,2.06-4.65,1.13-8.78-.86-12.79-.46-.93-.97-1.85-1.52-2.77-2.86-4.81-5.73-9.62-8.59-14.43-3.21-5.4-6.43-10.8-9.64-16.2-1.8-3.02-3.44-6.37-5.72-9.07-3.33-3.94-8.07-6.02-13.13-6.33-.19-.02-.39-.03-.6-.03-18.92,0-37.84-.13-56.76,0-7.36.05-13.96,4.64-15.13,12.21-.57,3.69-.23,7.61-.23,11.33,0,10.1-.16,20.21,0,30.31ZM221.56,200.23v-31.68c0-3.6,1.09-6.8,5.32-7.01,8.46-.43,17.05,0,25.52,0h31.91c4.92.17,7.04,3.53,9.24,7.24,2.6,4.37,5.2,8.74,7.8,13.11,4.72,7.92,10.07,15.72,14.25,23.94.36.7.63,1.34.62,2.16,0,.73-.19,1.44-.52,2.09-.13.24-.63.73-.84.99-.26.02-.62.06-.78.06-2.93-.1-5.88,0-8.81,0h-76.62c-2.37,0-5.68.4-6.73-1.97-.95-2.26-.38-6.4-.38-8.92Z"/>
  </g>
</svg>