<?xml version="1.0" encoding="UTF-8"?>
<svg id="Layer_1" xmlns="http://www.w3.org/2000/svg" version="1.1" viewBox="0 0 512 512">
  <!-- Generator: Adobe Illustrator 29.1.0, SVG Export Plug-In . SVG Version: 2.1.0 Build 142)  -->
  <defs>
    <style>
      .st0 {
        fill: #a32430;
      }

      .st1 {
        fill: #929496;
      }

      .st2 {
        fill: #a6a8aa;
      }

      .st3 {
        fill: #939e96;
      }

      .st4 {
        fill: #fff;
      }

      .st5 {
        fill: #f1f1f2;
      }

      .st6 {
        opacity: .6;
      }

      .st6, .st7 {
        isolation: isolate;
      }

      .st6, .st8 {
        fill: #434244;
      }

      .st9 {
        fill: #646b67;
      }

      .st10 {
        fill: #ef6767;
      }

      .st7 {
        fill: #e3f6ff;
        opacity: .1;
      }

      .st11 {
        fill: #272525;
      }

      .st12 {
        fill: #d0d1d3;
      }
    </style>
  </defs>
  <g>
    <path class="st3" d="M477.5,216.23c-15.65,0-31.3-.04-46.96-.04h-97.74c-5.17-3.6-10.33-7.19-15.5-10.79-2.59-1.8-6.1.61-6.1,3.5v9.41c-15.66,12.13-34.62,17.77-54.33,17.77h-77.62c-2.52,0-5.05.06-7.58,0-3.51-.08-5.93-1.83-8.27-4.18-2.46-2.48-4.92-4.97-7.38-7.45-2.15-2.17-4.24-4.42-6.46-6.52-1.17-1.11-2.37-1.69-3.98-1.74-3.36-.11-6.74,0-10.09,0H55.12c-4.09,0-8.1,0-12.14.98-10.59,2.56-19.33,10.38-23.41,20.42-2.6,6.39-2.43,12.98-2.43,19.71v13.51c-.77.65-1.29,1.64-1.29,2.97,0,5.27.24,10.43,2.16,15.41.28.72.58,1.42.9,2.11,1.07,3.46,2.67,6.76,4.99,9.84,6.49,8.59,16.48,13.58,27.24,13.69,2.64.03,5.27,0,7.91,0,1.62,0,3.63-1.25,3.91-2.98,2.7-16.51,14.1-30.71,30.16-35.97,16.25-5.33,34.39-.93,46.31,11.36,4.02,4.15,7.1,8.98,9.24,14.23.7,2.21,1.24,4.48,1.61,6.8.11.66.46,1.24.95,1.72.12.62.24,1.24.34,1.86.28,1.73,2.27,2.98,3.91,2.98h159.23c1.62,0,3.63-1.25,3.91-2.98,2.7-16.51,14.1-30.71,30.16-35.97,16.25-5.33,34.39-.93,46.31,11.36,4.02,4.15,7.1,8.98,9.24,14.23.7,2.21,1.24,4.48,1.61,6.8.11.66.46,1.24.95,1.72.12.62.24,1.24.34,1.86.28,1.73,2.27,2.98,3.91,2.98h21.15c9.07,0,17.81.3,26.07-4.3,6.51-3.63,11.36-9.26,14.46-15.93.16-.2.3-.41.42-.65,4.3-9.02,8.6-18.03,12.9-27.05,2.62-5.49,5.24-10.99,7.86-16.48,2.09-4.39,4.29-8.64,4.22-13.68-.15-11.36-9.53-20.26-20.73-20.49Z"/>
    <path class="st9" d="M495.1,235.51c-.05-.38-.12-.75-.19-1.13-.71.04-1.48-.3-1.78-.94-.15-.3-.28-.61-.4-.92-2.2,4.6-4.39,9.21-6.59,13.81-4.3,9.02-8.6,18.03-12.9,27.05-.11.24-.26.45-.42.65-3.1,6.67-7.94,12.31-14.46,15.93-8.26,4.6-17,4.3-26.07,4.3h-21.15c-1.64,0-3.63-1.25-3.91-2.98-.1-.62-.22-1.24-.34-1.86-.49-.48-.84-1.06-.95-1.72-.38-2.32-.92-4.59-1.61-6.8-2.13-5.25-5.21-10.09-9.24-14.23-11.92-12.29-30.05-16.69-46.31-11.36-16.06,5.27-27.46,19.46-30.16,35.97-.28,1.73-2.29,2.98-3.91,2.98h-159.23c-1.64,0-3.63-1.25-3.91-2.98-.1-.62-.22-1.24-.34-1.86-.49-.48-.84-1.06-.95-1.72-.38-2.31-.92-4.59-1.61-6.8-2.13-5.25-5.21-10.09-9.24-14.23-11.92-12.29-30.05-16.69-46.31-11.36-16.06,5.27-27.46,19.46-30.16,35.97-.28,1.73-2.29,2.98-3.91,2.98-2.64,0-5.27.03-7.91,0-10.76-.11-20.76-5.09-27.24-13.69-.63-.84-1.21-1.7-1.74-2.57-.42,2.64-.93,5.26-1.43,7.84.87,1.8,1.91,3.54,3.17,5.21,6.49,8.59,16.48,13.58,27.24,13.69,2.64.03,5.27,0,7.91,0,1.62,0,3.63-1.25,3.91-2.98,2.7-16.51,14.1-30.71,30.16-35.97,16.25-5.33,34.39-.93,46.31,11.36,4.02,4.15,7.1,8.98,9.24,14.23.7,2.21,1.23,4.48,1.61,6.8.11.66.46,1.24.95,1.72.12.62.24,1.24.34,1.86.28,1.73,2.27,2.98,3.91,2.98h159.23c1.62,0,3.63-1.25,3.91-2.98,2.7-16.51,14.1-30.71,30.16-35.97,16.25-5.33,34.39-.93,46.31,11.36,4.02,4.15,7.1,8.98,9.24,14.23.7,2.21,1.24,4.48,1.61,6.8.11.66.46,1.24.95,1.72.12.62.24,1.24.34,1.86.28,1.73,2.27,2.98,3.91,2.98h21.15c9.07,0,17.81.3,26.07-4.3,6.51-3.63,11.36-9.26,14.46-15.93.16-.2.3-.41.42-.65,4.3-9.02,8.6-18.03,12.9-27.05,2.62-5.49,5.24-10.99,7.86-16.48.59-1.24,1.19-2.46,1.74-3.7-.33-.22-.58-.58-.65-1.13Z"/>
    <path class="st0" d="M25.26,260.49c0-.73-.62-1.35-1.35-1.35H4.86c-.73,0-1.35.62-1.35,1.35v14.2c0,.73.62,1.35,1.35,1.35h19.05c.4,0,.7-.14.91-.36.02-.01.03-.03.05-.04,0,0,.02-.02.03-.03.22-.22.37-.52.37-.92v-14.2Z"/>
    <g>
      <path class="st8" d="M320.1,302.11s47.35-39.3,88.93.04c0,0-2.14-36.86-44.85-36.86-42.6,0-44.09,36.82-44.09,36.82Z"/>
      <g>
        <path class="st1" d="M398.76,308.66c-3.14-16.58-18.24-28.42-34.87-28.62-14.89.17-28.19,9.42-33.41,23.41-5.15,13.8-.76,30.14,10.6,39.5,11.54,9.5,28.16,11.03,41.06,3.27,12.86-7.73,19.4-22.87,16.62-37.55Z"/>
        <path class="st12" d="M387.08,310.36c-1.99-10.5-11.55-18-22.08-18.12-9.43.11-17.85,5.96-21.15,14.82-3.26,8.74-.48,19.09,6.71,25.01,7.31,6.02,17.83,6.98,26,2.07,8.14-4.9,12.28-14.48,10.52-23.78Z"/>
        <path class="st1" d="M380.03,311.75c-1.34-7.08-7.79-12.14-14.89-12.22-6.36.07-12.04,4.02-14.27,10-2.2,5.89-.32,12.87,4.53,16.87,4.93,4.06,12.03,4.71,17.54,1.39,5.49-3.3,8.28-9.77,7.1-16.04Z"/>
        <path class="st4" d="M358.72,315.71c-.5-3.92,1.58-7.4,5.71-7.77.78-.07.79-1.3,0-1.23-4.75.42-7.54,4.34-6.94,9,.1.78,1.33.79,1.23,0h0Z"/>
        <path class="st4" d="M366.73,308.03c.87,0,.87-1.35,0-1.35s-.87,1.35,0,1.35h0Z"/>
        <path class="st4" d="M389.84,316.26c.87,0,.87-1.35,0-1.35-.87,0-.87,1.35,0,1.35h0Z"/>
        <path class="st4" d="M389.16,318.09c-1.51,12.13-11.55,21.43-23.47,22.83-.85.1-.86,1.45,0,1.35,12.86-1.5,23.21-11.29,24.82-24.18.11-.86-1.24-.85-1.35,0Z"/>
      </g>
      <path class="st6" d="M318.21,310.04s47.88-34.93,91.42.04c0,0-.71-44.88-44.62-44.88-43.79,0-46.8,44.84-46.8,44.84Z"/>
    </g>
    <g>
      <path class="st8" d="M63.21,302.11s47.35-39.3,88.93.04c0,0-2.14-36.86-44.85-36.86-42.6,0-44.09,36.82-44.09,36.82Z"/>
      <g>
        <path class="st1" d="M141.87,308.66c-3.14-16.58-18.24-28.42-34.87-28.62-14.89.17-28.19,9.42-33.41,23.41-5.15,13.8-.76,30.14,10.6,39.5,11.54,9.5,28.16,11.03,41.06,3.27,12.86-7.73,19.4-22.87,16.62-37.55Z"/>
        <path class="st12" d="M130.19,310.36c-1.99-10.5-11.55-18-22.08-18.12-9.43.11-17.85,5.96-21.15,14.82-3.26,8.74-.48,19.09,6.71,25.01,7.31,6.02,17.83,6.98,26,2.07,8.14-4.9,12.28-14.48,10.52-23.78Z"/>
        <path class="st1" d="M123.13,311.75c-1.34-7.08-7.79-12.14-14.89-12.22-6.36.07-12.04,4.02-14.27,10-2.2,5.89-.32,12.87,4.53,16.87,4.93,4.06,12.03,4.71,17.54,1.39,5.49-3.3,8.28-9.77,7.1-16.04Z"/>
        <path class="st4" d="M101.83,315.71c-.5-3.92,1.58-7.4,5.71-7.77.78-.07.79-1.3,0-1.23-4.75.42-7.54,4.34-6.94,9,.1.78,1.33.79,1.23,0h0Z"/>
        <path class="st4" d="M109.84,308.03c.87,0,.87-1.35,0-1.35s-.87,1.35,0,1.35h0Z"/>
        <path class="st4" d="M132.95,316.26c.87,0,.87-1.35,0-1.35-.87,0-.87,1.35,0,1.35h0Z"/>
        <path class="st4" d="M132.27,318.09c-1.51,12.13-11.55,21.43-23.47,22.83-.85.1-.86,1.45,0,1.35,12.86-1.5,23.21-11.29,24.82-24.18.11-.86-1.24-.85-1.35,0Z"/>
      </g>
      <path class="st6" d="M61.32,310.04s47.88-34.93,91.42.04c0,0-.71-44.88-44.62-44.88-43.79,0-46.8,44.84-46.8,44.84Z"/>
    </g>
    <g>
      <polygon class="st10" points="11.01 260.62 13.53 260.7 8.72 274.19 6.63 274.19 11.01 260.62"/>
      <polygon class="st10" points="14.57 261.75 15.29 261.75 10.61 276.08 10.11 275.82 14.57 261.75"/>
      <polygon class="st10" points="17.73 260.43 18.44 260.43 13.77 274.76 13.26 274.5 17.73 260.43"/>
    </g>
    <path class="st1" d="M485.15,235.57c0-.15-.01-.28-.04-.4-.37-3.63-3.15-6.62-6.98-6.62s-7.02,3.21-7.02,7.02,3.02,6.84,6.71,7c3.95.17,6.9-2.85,7.29-6.6.03-.12.05-.25.04-.4Z"/>
    <path class="st0" d="M509.64,226.25h-16.26c-.58,0-1.16.42-1.3.99-2.19,8.59-4.37,17.18-6.56,25.77-.22.85.41,1.71,1.3,1.71h16.35c.23,0,.43-.05.6-.13.32-.14.59-.41.7-.86,2.16-8.59,4.31-17.18,6.47-25.77.21-.85-.41-1.71-1.3-1.71Z"/>
    <g>
      <path class="st9" d="M167.97,241.17v34.33c0,2.57-.25,5.36.42,7.86,1.56,5.9,7.11,9.57,13.03,9.72,1.08.03,2.16,0,3.25,0,6.69,0,13.38.02,20.07.03,19.32.03,38.65.05,57.97.08,5.68,0,11.37.02,17.05.02,2.57,0,5.04-.26,7.4-1.41,2.84-1.39,5.04-3.75,6.34-6.62,1.77-3.92,3.8-7.41,6.67-10.65,4.34-4.91,11.55-8.48,12.54-15.51.37-2.58.14-5.31.14-7.9v-28.55c0-1.74-2.7-1.74-2.7,0v32.46c0,.73.03,1.47,0,2.21-.14,4-2.24,6.52-5.19,8.95-5.34,4.41-10.3,9.74-13.16,16.12-2.2,4.89-5.4,8.15-11.07,8.2-4.44.04-8.88-.01-13.32-.02-18.3-.03-36.59-.05-54.89-.08-7.67-.01-15.33-.02-23-.03-4.06,0-9.37.7-13.1-1.19-7.69-3.89-5.74-14.32-5.74-21.44v-26.59c0-1.74-2.71-1.75-2.71,0h0Z"/>
      <path class="st9" d="M196.08,271.78h-13.23c-1.7,0-3.08-1.39-3.08-3.08v-1c0-1.7,1.39-3.08,3.08-3.08h13.23c1.7,0,3.08,1.39,3.08,3.08v1c0,1.7-1.39,3.08-3.08,3.08Z"/>
    </g>
    <path class="st12" d="M346.22,217.22c-.07-.08-.15-.16-.25-.23-8.66-6.33-17.32-12.65-25.99-18.98-13.9-10.15-27.8-20.31-41.7-30.46-3.19-2.33-6.38-4.66-9.57-6.99-.63-.46-1.46-.06-1.85.49-1.13,1.55-2.26,3.1-3.39,4.64-.46.63-.06,1.46.49,1.85,8.66,6.33,17.32,12.65,25.99,18.98,13.9,10.15,27.8,20.31,41.7,30.46,3.19,2.33,6.38,4.66,9.57,6.99.63.46,1.46.06,1.85-.49,1.13-1.55,2.26-3.1,3.39-4.64.46-.63.24-1.25-.24-1.62Z"/>
    <path class="st12" d="M169.62,236.8c-7.32-13.47-14.64-26.94-21.97-40.41-.38-.69-1.2-.77-1.85-.49-2,.89-4,1.77-6,2.66-.68.3-.8,1.27-.49,1.85,6.99,12.71,13.99,25.43,20.98,38.14.17.4.53.69,1.09.69h.01s.05,0,.08,0c2.32-.14,4.64-.28,6.97-.42,1.03-.06,1.68-1.1,1.17-2.03Z"/>
    <path class="st2" d="M169.63,237.41c-1.11-.67-1.76-1.52-2-2.69l-3.28.2s-.05,0-.07,0h-.01c-.48,0-.79-.25-.93-.59-5.99-10.89-11.98-21.77-17.97-32.66-.27-.5-.17-1.32.42-1.58.86-.38,1.73-.77,2.59-1.15-.37-.6-.6-1.25-.68-1.98-1.73.77-3.46,1.53-5.19,2.3-.68.3-.8,1.27-.49,1.85,6.99,12.71,13.99,25.43,20.98,38.14.17.4.53.69,1.09.69h.01s.05,0,.08,0c2.32-.14,4.64-.28,6.97-.42.09,0,.17-.03.26-.05-.45-.85-.92-1.55-1.78-2.07Z"/>
    <g>
      <path class="st7" d="M204.95,242.32c-.28,0-.52-.06-.74-.14l-27.26,67.96,4.57,3.43,29.44-71.23c-2-.01-4.01-.02-6.01-.02Z"/>
      <path class="st7" d="M222.63,242.4l-28.58,71.35h32.17l28.83-72.16c-10.79.77-21.61.85-32.42.81Z"/>
      <path class="st7" d="M81.35,275.52c.95-.57,1.91-1.12,2.88-1.65l.5-1.46c-1.23.88-2.34,1.96-3.38,3.11Z"/>
      <path class="st7" d="M69.74,221.98l-28.45,81.62,15.63-.07c2.24-3.59,4.42-7.26,6.78-10.79,2.63-5.67,7.23-10.91,11.02-15.31,2.84-3.3,5.61-7.18,9.55-9.26.72-.38,1.46-.68,2.22-.92l15.18-44.37c-10.66.14-21.32.15-31.93-.89Z"/>
      <path class="st7" d="M100.85,270.31l4.2.52,18.88-49.56c-1.97.86-4.02,1.53-6.11,2.06l-16.97,46.98Z"/>
      <path class="st7" d="M430.82,221.44l-27.37,71.12,7.03.81,27.66-72.1c-2.44.11-4.88.17-7.33.17Z"/>
      <path class="st7" d="M408.05,220.42c-7.5-.61-14.89-.89-22.42-.66-6.51.2-13.02.5-19.54.33l-20.01,45.21,39.51,6.31,24.83-51c-.79-.06-1.58-.12-2.37-.19Z"/>
    </g>
    <g>
      <polygon class="st10" points="502.82 226.98 507.21 227.12 498.84 250.58 495.2 250.58 502.82 226.98"/>
      <polygon class="st10" points="509.03 228.94 510.27 228.94 502.14 253.87 501.26 253.42 509.03 228.94"/>
    </g>
    <path class="st5" d="M447.86,243.62c-2.07,0-1.94,3.22.14,3.22s1.94-3.22-.14-3.22Z"/>
    <path class="st5" d="M469.24,244.09c-1.49-.93-3.64-.46-5.3-.46-3.13,0-6.2.14-9.32.27-2.07.09-1.94,3.31.14,3.22,2.46-.11,4.89-.27,7.36-.27,1.15,0,2.31.03,3.46,0,.63-.02,1.56-.28,2.14.08,1.76,1.1,3.28-1.74,1.53-2.83Z"/>
    <path class="st5" d="M47.71,229.56c-2.68.11-5.62,1.23-7.88,2.66-1.15.73-2.27,1.72-3.1,2.79-.92,1.18-1.19,2.63-2.28,3.71-1.49,1.45.86,3.65,2.34,2.21,1.76-1.72,2.14-4.04,4.16-5.56,1.83-1.37,4.62-2.49,6.9-2.59,2.07-.09,1.94-3.31-.14-3.22Z"/>
    <path class="st5" d="M55.28,228.21c-2.07,0-1.94,3.22.14,3.22s1.94-3.22-.14-3.22Z"/>
  </g>
  <g>
    <path class="st11" d="M376.25,279.76c-15.1-5.66-33.02-.78-43.23,11.67-10.38,12.66-12.01,30.88-3.48,44.99,8.5,14.06,25.08,21.2,41.14,18.1,18.08-3.48,31-19.99,31.2-38.17-.17-16.33-10.32-30.86-25.62-36.59ZM373.75,345.25c-12.28,4.48-26.11.83-34.55-9.16-8.39-9.94-9.36-24.63-2.67-35.7,6.59-10.91,19.8-16.87,32.34-14.3,14.41,2.95,24.73,15.61,24.89,30.27-.14,12.66-7.97,24.5-20,28.89Z"/>
    <path class="st11" d="M369.98,298.6c-6.96-2.6-15.18-.32-19.85,5.43-4.66,5.73-5.4,13.93-1.65,20.35,3.81,6.5,11.4,9.84,18.77,8.51,8.31-1.5,14.08-8.85,14.48-17.07.01-.14.02-.29.02-.45,0-.19,0-.37-.03-.55-.39-7.28-4.82-13.64-11.74-16.23ZM363.9,327.14c-6.42.02-11.77-5.36-11.77-11.77s5.35-11.77,11.77-11.77,11.61,5.35,11.77,11.77c-.16,6.43-5.23,11.75-11.77,11.77Z"/>
    <path class="st11" d="M120.88,279.76c-15.1-5.66-33.02-.78-43.23,11.67-10.38,12.66-12.01,30.88-3.48,44.99,8.5,14.06,25.08,21.2,41.14,18.1,18.08-3.48,31-19.99,31.2-38.17-.17-16.33-10.32-30.86-25.62-36.59ZM118.39,345.25c-12.28,4.48-26.11.83-34.55-9.16-8.4-9.94-9.36-24.63-2.67-35.7,6.59-10.91,19.8-16.87,32.34-14.3,14.41,2.95,24.73,15.61,24.89,30.27-.13,12.66-7.97,24.5-20,28.89Z"/>
    <path class="st11" d="M114.62,298.6c-6.96-2.6-15.18-.32-19.85,5.43-4.66,5.73-5.4,13.93-1.65,20.35,3.81,6.5,11.4,9.84,18.77,8.51,8.31-1.5,14.08-8.85,14.48-17.07.01-.14.02-.29.02-.45,0-.19,0-.37-.03-.55-.38-7.28-4.82-13.64-11.73-16.23ZM108.53,327.14c-6.42.02-11.77-5.36-11.77-11.77s5.35-11.77,11.77-11.77,11.61,5.35,11.77,11.77c-.16,6.43-5.23,11.75-11.77,11.77Z"/>
    <path class="st11" d="M477.83,228.59c-3.82,0-7.02,3.21-7.02,7.02s3.02,6.84,6.71,7c3.95.17,6.9-2.85,7.29-6.6.03-.12.05-.25.04-.4,0-.15-.01-.28-.04-.4-.37-3.63-3.15-6.62-6.98-6.62ZM473.51,235.61c0-5.58,8.33-5.53,8.63,0-.3,5.53-8.63,5.58-8.63,0Z"/>
    <path class="st11" d="M460.84,230.64h-18.13c-2.46,0-4.46,2-4.46,4.46v.92c0,2.46,2,4.46,4.46,4.46h18.13c2.46,0,4.46-2,4.46-4.46v-.92c0-2.46-2-4.46-4.46-4.46Z"/>
    <path class="st11" d="M510.66,226.41h-15.45c-3.68-5.92-10.27-9.85-17.66-10-15.65,0-31.3-.04-46.96-.04h-85.69c-8.38-6.12-16.75-12.24-25.13-18.36-13.9-10.15-27.8-20.31-41.7-30.46-3.19-2.33-6.38-4.66-9.57-6.99-.63-.46-1.46-.06-1.85.49-1.13,1.55-2.26,3.1-3.39,4.64-.46.63-.06,1.46.49,1.85,8.66,6.33,17.32,12.65,25.99,18.98,8.43,6.15,16.85,12.31,25.28,18.47-1.97.22-3.76,2.03-3.76,4.09v9.41c-15.66,12.13-34.62,17.77-54.33,17.77h-77.62c-2.52,0-5.05.06-7.58,0-1.02-.02-1.95-.19-2.81-.47-7.12-13.1-14.24-26.19-21.36-39.29-.38-.69-1.2-.77-1.85-.49-2,.89-4,1.77-6,2.66-.68.3-.8,1.27-.49,1.85,3.05,5.54,6.09,11.08,9.14,16.61-.8-.48-1.68-.74-2.73-.77-3.36-.11-6.74,0-10.09,0H55.17c-4.09,0-8.1,0-12.13.98-10.59,2.56-19.33,10.38-23.41,20.42-2.6,6.39-2.43,12.98-2.43,19.71v1.68H4.53c-.73,0-1.35.62-1.35,1.35v14.2c0,.73.62,1.35,1.35,1.35h11.39c.02,1.25.07,2.49.16,3.72H0v9.84h18.16c.25.63.51,1.25.79,1.85,1.07,3.46,2.67,6.76,4.99,9.84,6.49,8.6,16.48,13.58,27.24,13.69,2.64.03,5.27,0,7.91,0,1.62,0,3.63-1.25,3.91-2.98,2.7-16.51,14.1-30.71,30.16-35.97,16.25-5.33,34.39-.93,46.31,11.36,4.02,4.15,7.1,8.98,9.24,14.23.7,2.21,1.24,4.48,1.61,6.8.11.66.46,1.24.95,1.72.12.62.24,1.24.34,1.86.28,1.73,2.27,2.98,3.91,2.98h159.23c1.62,0,3.63-1.25,3.91-2.98,2.7-16.51,14.1-30.71,30.16-35.97,16.25-5.33,34.39-.93,46.31,11.36,4.02,4.15,7.1,8.98,9.24,14.23.7,2.21,1.24,4.48,1.61,6.8.11.66.46,1.24.95,1.72.12.62.24,1.24.34,1.86.28,1.73,2.27,2.98,3.91,2.98h21.15c9.07,0,17.81.3,26.07-4.3,6.51-3.63,11.36-9.27,14.46-15.93.16-.2.3-.41.42-.65,4.3-9.02,8.6-18.03,12.9-27.05,1.94-4.06,3.87-8.12,5.81-12.18h12.18c.23,0,.43-.05.6-.14.32-.14.59-.41.7-.86,2.16-8.59,4.31-17.18,6.47-25.77.22-.85-.4-1.71-1.3-1.71ZM17.19,270.97c-.65.55-1.12,1.34-1.25,2.37H5.88v-11.5h11.31c0,3.04,0,6.09,0,9.13ZM274.68,172.19c-2.79-2.04-5.58-4.08-8.37-6.11.6-.82,1.2-1.65,1.81-2.47,8.34,6.09,16.67,12.18,25.01,18.27,13.9,10.15,27.8,20.31,41.7,30.46,1.84,1.34,3.68,2.69,5.52,4.03h-5.19c-6.26-4.57-12.52-9.14-18.77-13.71-13.9-10.15-27.8-20.3-41.7-30.46ZM172.71,266.09v-21.71c8.38.16,16.78-.02,25.15-.02h42.94c9.43,0,19.11.5,28.49-.56,14.18-1.6,27.93-6.3,39.96-14.02.96-.61,1.94-1.25,2.92-1.9v5.72c-1.28.37-2.23,1.55-2.23,2.95v.76c0,1.4.95,2.58,2.23,2.95v6.97c-1.28.37-2.23,1.55-2.23,2.95v.76c0,1.4.95,2.58,2.24,2.95,0,.57.02,1.13,0,1.7-.14,4-2.24,6.52-5.19,8.95-5.33,4.41-10.3,9.74-13.16,16.12-2.2,4.89-5.4,8.15-11.07,8.2-4.44.04-8.88-.01-13.32-.02-18.3-.03-36.59-.05-54.89-.08-7.67-.01-15.33-.02-23-.03-4.06,0-9.37.7-13.1-1.19-7.69-3.89-5.74-14.32-5.74-21.44ZM142.29,200.47c1.17-.52,2.34-1.04,3.51-1.56,6.15,11.3,12.29,22.61,18.43,33.91-.26-.24-.52-.49-.78-.75-2.46-2.48-4.92-4.97-7.38-7.45-.39-.39-.77-.79-1.16-1.18-4.21-7.65-8.42-15.31-12.64-22.97ZM487.78,235.08c-2.38,4.99-4.76,9.98-7.14,14.97h-77.03l6.96,7.56h66.47c-.98,2.06-1.96,4.11-2.94,6.17h-59.55l6.96,7.56h48.98c-.88,1.85-1.77,3.7-2.65,5.55-.95,1.98-1.89,3.97-2.84,5.95-.19.27-.35.56-.48.87-2.9,7.1-9.12,12.72-16.45,14.92-4.1,1.23-8.21,1.09-12.42,1.09h-22.43c-4.03-17.88-17.45-32.68-34.89-38.55-18.74-6.31-40.1-1.14-54.04,12.82-7.03,7.04-11.97,16.04-14.15,25.73h-152.58c-4.03-17.88-17.45-32.68-34.89-38.55-18.74-6.31-40.1-1.14-54.04,12.82-7.03,7.04-11.97,16.05-14.15,25.74-5.74.02-11.36-.14-16.64-2.97-3.35-1.79-6.19-4.25-8.41-7.15h4.46v-9.84h-8.57c0-.28-.02-.57-.02-.85v-22.8c0-1.96-.02-3.91,0-5.87.06-5.61,1.82-11.05,5.22-15.54,5.08-6.7,12.92-10.21,21.22-10.23,4.07-.01,8.15,0,12.22,0h80.55c3.53,3.57,7.06,7.13,10.6,10.7,1.37,1.38,2.7,2.83,4.12,4.16,3.03,2.83,6.74,4.47,10.78,4.91v29.58c0,2.57-.25,5.36.42,7.86,1.56,5.9,7.11,9.57,13.03,9.72,1.08.03,2.16,0,3.25,0,6.69,0,13.38.02,20.07.03,19.32.03,38.65.05,57.97.08,5.68,0,11.37.02,17.05.02,2.57,0,5.04-.26,7.4-1.41,2.84-1.39,5.04-3.75,6.34-6.62,1.77-3.92,3.8-7.41,6.67-10.65,4.34-4.91,11.55-8.48,12.54-15.51.16-1.13.2-2.3.2-3.46,1.31-.35,2.29-1.54,2.29-2.96v-.76c0-1.44-1.01-2.65-2.36-2.98v-6.91c1.35-.32,2.36-1.54,2.36-2.98v-.76c0-1.44-1.01-2.66-2.36-2.98v-7.57c1.03-.77,2.03-1.57,2.94-2.42,1.56-1.46,1.54-3.02,1.54-4.93v-1.83c3.07,2.14,6.14,4.28,9.21,6.41.65.71,1.6,1.2,2.84,1.24.06,0,.13,0,.19,0,.14,0,.28,0,.41,0h57.1c18.27,0,36.55-.19,54.81.04,11.2.14,22.42,0,33.63,0,4.86.1,9.13,2.92,11.24,6.94-.21,1.24-.5,2.47-1.01,3.62ZM503.13,252.17h-9.84c.25-.53.51-1.07.76-1.6,2.09-4.39,4.29-8.64,4.22-13.68-.04-2.77-.63-5.4-1.66-7.79h12.3c-1.93,7.69-3.86,15.38-5.79,23.07Z"/>
    <path class="st11" d="M185.06,270.12h12.9c1.78,0,3.24-1.46,3.24-3.25v-.67c0-1.78-1.46-3.25-3.24-3.25h-12.9c-1.78,0-3.24,1.46-3.24,3.25v.67c0,1.78,1.46,3.25,3.24,3.25Z"/>
  </g>
</svg>